<mxfile host="Electron" modified="2024-03-27T20:55:54.952Z" agent="Mozilla/5.0 (Macintosh; Intel Mac OS X 10_15_7) AppleWebKit/537.36 (KHTML, like Gecko) draw.io/24.1.0 Chrome/120.0.6099.109 Electron/28.1.0 Safari/537.36" etag="wFU06qYRmC80_C3DUbaG" version="24.1.0" type="device">
  <diagram id="23iRSUPoRavnBvh4doch" name="Page-1">
    <mxGraphModel dx="2261" dy="1954" grid="1" gridSize="10" guides="1" tooltips="1" connect="1" arrows="1" fold="1" page="1" pageScale="1" pageWidth="827" pageHeight="1169" math="0" shadow="0">
      <root>
        <mxCell id="0" />
        <mxCell id="1" parent="0" />
        <mxCell id="xsDj6IwwAKfttmJT4Nek-130" style="edgeStyle=orthogonalEdgeStyle;rounded=0;orthogonalLoop=1;jettySize=auto;html=1;exitX=0.5;exitY=1;exitDx=0;exitDy=0;entryX=0;entryY=0.75;entryDx=0;entryDy=0;" parent="1" source="43" target="gP_kXPei_DPr6xhCDkMP-106" edge="1">
          <mxGeometry relative="1" as="geometry">
            <mxPoint x="733.5" y="715" as="targetPoint" />
          </mxGeometry>
        </mxCell>
        <mxCell id="38" value="Serverless container" style="swimlane;whiteSpace=wrap;html=1;dashed=1;" parent="1" vertex="1">
          <mxGeometry x="-130" y="190" width="510" height="250" as="geometry" />
        </mxCell>
        <mxCell id="xsDj6IwwAKfttmJT4Nek-133" value="Frontend" style="rounded=0;whiteSpace=wrap;html=1;" parent="38" vertex="1">
          <mxGeometry x="50" y="70" width="120" height="160" as="geometry" />
        </mxCell>
        <mxCell id="xsDj6IwwAKfttmJT4Nek-137" value="Backend" style="swimlane;whiteSpace=wrap;html=1;" parent="38" vertex="1">
          <mxGeometry x="265" y="40" width="195" height="190" as="geometry" />
        </mxCell>
        <mxCell id="43" value="POST: /movie-recognition" style="whiteSpace=wrap;html=1;" parent="xsDj6IwwAKfttmJT4Nek-137" vertex="1">
          <mxGeometry x="25" y="40" width="150" height="60" as="geometry" />
        </mxCell>
        <mxCell id="45" value="GET: /movie-recognition" style="whiteSpace=wrap;html=1;" parent="xsDj6IwwAKfttmJT4Nek-137" vertex="1">
          <mxGeometry x="25" y="120" width="150" height="60" as="geometry" />
        </mxCell>
        <mxCell id="yDjlZjU0aNHBCC8FsVgM-98" value="" style="endArrow=classic;html=1;rounded=0;entryX=0;entryY=0.5;entryDx=0;entryDy=0;exitX=1;exitY=0.25;exitDx=0;exitDy=0;" edge="1" parent="38" source="xsDj6IwwAKfttmJT4Nek-133" target="43">
          <mxGeometry width="50" height="50" relative="1" as="geometry">
            <mxPoint x="190" y="120" as="sourcePoint" />
            <mxPoint x="260" y="70" as="targetPoint" />
          </mxGeometry>
        </mxCell>
        <mxCell id="yDjlZjU0aNHBCC8FsVgM-99" value="" style="endArrow=classic;html=1;rounded=0;entryX=0;entryY=0.5;entryDx=0;entryDy=0;exitX=1;exitY=0.75;exitDx=0;exitDy=0;" edge="1" parent="38" source="xsDj6IwwAKfttmJT4Nek-133" target="45">
          <mxGeometry width="50" height="50" relative="1" as="geometry">
            <mxPoint x="190" y="340" as="sourcePoint" />
            <mxPoint x="240" y="290" as="targetPoint" />
          </mxGeometry>
        </mxCell>
        <mxCell id="51" value="" style="edgeStyle=orthogonalEdgeStyle;rounded=0;orthogonalLoop=1;jettySize=auto;html=1;exitX=1;exitY=0.5;exitDx=0;exitDy=0;" parent="1" source="43" target="50" edge="1">
          <mxGeometry relative="1" as="geometry">
            <mxPoint x="500" y="275" as="sourcePoint" />
          </mxGeometry>
        </mxCell>
        <mxCell id="93" value="Cloud function" style="swimlane;whiteSpace=wrap;html=1;dashed=1;" parent="1" vertex="1">
          <mxGeometry x="420" y="190" width="740" height="200" as="geometry" />
        </mxCell>
        <mxCell id="50" value="ReceiveVideoHandler" style="whiteSpace=wrap;html=1;" parent="93" vertex="1">
          <mxGeometry x="10" y="80" width="140" height="60" as="geometry" />
        </mxCell>
        <mxCell id="59" value="ProcessVideoHandler" style="whiteSpace=wrap;html=1;" parent="93" vertex="1">
          <mxGeometry x="190" y="80" width="140" height="60" as="geometry" />
        </mxCell>
        <mxCell id="58" style="edgeStyle=orthogonalEdgeStyle;rounded=0;orthogonalLoop=1;jettySize=auto;html=1;entryX=0;entryY=0.5;entryDx=0;entryDy=0;" parent="93" source="50" target="59" edge="1">
          <mxGeometry relative="1" as="geometry">
            <mxPoint x="330" y="85" as="targetPoint" />
          </mxGeometry>
        </mxCell>
        <mxCell id="79" value="" style="edgeStyle=orthogonalEdgeStyle;rounded=0;orthogonalLoop=1;jettySize=auto;html=1;endArrow=none;" parent="93" source="50" target="59" edge="1">
          <mxGeometry relative="1" as="geometry">
            <mxPoint x="150" y="85" as="sourcePoint" />
            <mxPoint x="230" y="290" as="targetPoint" />
          </mxGeometry>
        </mxCell>
        <mxCell id="67" value="RecognizeFrameHandler" style="whiteSpace=wrap;html=1;" parent="93" vertex="1">
          <mxGeometry x="370" y="80" width="160" height="60" as="geometry" />
        </mxCell>
        <mxCell id="64" style="edgeStyle=orthogonalEdgeStyle;rounded=0;orthogonalLoop=1;jettySize=auto;html=1;exitX=1;exitY=0.5;exitDx=0;exitDy=0;entryX=0;entryY=0.5;entryDx=0;entryDy=0;" parent="93" source="59" target="67" edge="1">
          <mxGeometry relative="1" as="geometry">
            <mxPoint x="650" y="85" as="targetPoint" />
          </mxGeometry>
        </mxCell>
        <mxCell id="81" value="AggregateResultsHanlder" style="whiteSpace=wrap;html=1;" parent="93" vertex="1">
          <mxGeometry x="570" y="80" width="160" height="60" as="geometry" />
        </mxCell>
        <mxCell id="82" value="" style="edgeStyle=orthogonalEdgeStyle;rounded=0;orthogonalLoop=1;jettySize=auto;html=1;" parent="93" source="67" target="81" edge="1">
          <mxGeometry relative="1" as="geometry" />
        </mxCell>
        <mxCell id="xsDj6IwwAKfttmJT4Nek-110" value="External service" style="swimlane;whiteSpace=wrap;html=1;dashed=1;" parent="1" vertex="1">
          <mxGeometry x="580" y="-51" width="580" height="200" as="geometry" />
        </mxCell>
        <mxCell id="xsDj6IwwAKfttmJT4Nek-106" value="" style="shape=image;verticalLabelPosition=bottom;verticalAlign=top;imageAspect=0;image=data:image/svg+xml,PHN2ZyB4bWxuczp4bGluaz0iaHR0cDovL3d3dy53My5vcmcvMTk5OS94bGluayIgeG1sbnM9Imh0dHA6Ly93d3cudzMub3JnLzIwMDAvc3ZnIiB4bWw6c3BhY2U9InByZXNlcnZlIiB2aWV3Qm94PSIwIDAgNDAwIDQwMCIgeT0iMHB4IiB4PSIwcHgiIGlkPSLQodC70L7QuV8xIiB2ZXJzaW9uPSIxLjEiPiYjeGE7PGcgaWQ9IkJhY2tncm91bmQiPiYjeGE7CSYjeGE7CQk8bGluZWFyR3JhZGllbnQgZ3JhZGllbnRUcmFuc2Zvcm09Im1hdHJpeCg2LjEyMzIzNGUtMTcgMSAxIC02LjEyMzIzNGUtMTcgMSAwKSIgeTI9IjE5OSIgeDI9IjQwMCIgeTE9IjE5OSIgeDE9IjkuMDk0OTQ3ZS0xMyIgZ3JhZGllbnRVbml0cz0idXNlclNwYWNlT25Vc2UiIGlkPSJTVkdJRF8xXyI+JiN4YTsJCTxzdG9wIHN0eWxlPSJzdG9wLWNvbG9yOiNFNTJEMjciIG9mZnNldD0iMCIvPiYjeGE7CQk8c3RvcCBzdHlsZT0ic3RvcC1jb2xvcjojQkYxNzFEIiBvZmZzZXQ9IjEiLz4mI3hhOwk8L2xpbmVhckdyYWRpZW50PiYjeGE7CTxyZWN0IGhlaWdodD0iNDAwIiB3aWR0aD0iNDAwIiBmaWxsPSJ1cmwoI1NWR0lEXzFfKSIvPiYjeGE7PC9nPiYjeGE7PGcgaWQ9IkxvZ28iPiYjeGE7CTxwYXRoIGQ9Ik0xNzAuNiwxNTkuOWw2My45LDQyLjdsOS00LjZMMTcwLjYsMTU5Ljl6IiBvcGFjaXR5PSIwLjEyIiBpZD0iVGhlX1NoYXJwbmVzcyIvPiYjeGE7CTxnIGlkPSJMb3plbmdlIj4mI3hhOwkJPGc+JiN4YTsJCQk8cGF0aCBkPSJNMzMyLjIsMTQ2LjFjMCwwLTIuNi0xOC42LTEwLjctMjYuOGMtMTAuMi0xMC44LTIxLjgtMTAuOC0yNy0xMS40Yy0zNy44LTIuNy05NC40LTIuNy05NC40LTIuN0gyMDAmIzEwOyYjOTsmIzk7JiM5OyYjOTtjMCwwLTU2LjYsMC05NC40LDIuN2MtNS4zLDAuNi0xNi44LDAuNy0yNywxMS40Yy04LjEsOC4yLTEwLjcsMjYuOC0xMC43LDI2LjhzLTIuNywyMS44LTIuNyw0My43djIwLjVjMCwyMS44LDIuNyw0My43LDIuNyw0My43JiMxMDsmIzk7JiM5OyYjOTsmIzk7czIuNiwxOC42LDEwLjcsMjYuOGMxMC4zLDEwLjgsMjMuNywxMC40LDI5LjcsMTEuNWMyMS42LDIuMSw5MS43LDIuNyw5MS43LDIuN3M1Ni43LTAuMSw5NC41LTIuOGM1LjMtMC42LDE2LjgtMC43LDI3LTExLjQmIzEwOyYjOTsmIzk7JiM5OyYjOTtjOC4xLTguMiwxMC43LTI2LjgsMTAuNy0yNi44czIuNy0yMS44LDIuNy00My43di0yMC41QzMzNC45LDE2Ny45LDMzMi4yLDE0Ni4xLDMzMi4yLDE0Ni4xeiBNMTcyLjEsMjM1di03NS44bDcyLjksMzhMMTcyLjEsMjM1JiMxMDsmIzk7JiM5OyYjOTsmIzk7eiIgZmlsbD0iI0ZGRkZGRiIvPiYjeGE7CQk8L2c+JiN4YTsJPC9nPiYjeGE7PC9nPiYjeGE7PC9zdmc+;" parent="xsDj6IwwAKfttmJT4Nek-110" vertex="1">
          <mxGeometry x="50" y="60" width="100" height="100" as="geometry" />
        </mxCell>
        <mxCell id="xsDj6IwwAKfttmJT4Nek-108" value="" style="shape=image;verticalLabelPosition=bottom;labelBackgroundColor=default;verticalAlign=top;aspect=fixed;imageAspect=0;image=data:image/svg+xml,PHN2ZyB4bWxuczp4bGluaz0iaHR0cDovL3d3dy53My5vcmcvMTk5OS94bGluayIgeG1sbnM9Imh0dHA6Ly93d3cudzMub3JnLzIwMDAvc3ZnIiB4bWw6c3BhY2U9InByZXNlcnZlIiB3aWR0aD0iNTEycHgiIHZpZXdCb3g9IjAgMCA1MTIgNTEyIiB2ZXJzaW9uPSIxLjEiIGlkPSJMYXllcl8xIiBoZWlnaHQ9IjUxMnB4Ij48Zz48cGF0aCBmaWxsPSIjRUQxRjI0IiBkPSJNNTEwLjY4OSw0NzguODU0YzAsMTcuNTYxLTE0LjI3NSwzMS44MzYtMzEuODM2LDMxLjgzNkgzMy4xNDZjLTE3LjU1OSwwLTMxLjgzNi0xNC4yNzUtMzEuODM2LTMxLjgzNiAgIFYzMy4xNDZjMC0xNy41NiwxNC4yNzctMzEuODM2LDMxLjgzNi0zMS44MzZoNDQ1LjcwN2MxNy41NjEsMCwzMS44MzYsMTQuMjc2LDMxLjgzNiwzMS44MzZWNDc4Ljg1NHoiLz48L2c+PHBhdGggaWQ9InBhdGg0MCIgZmlsbD0iI0ZGRkZGRiIgZD0iTTMxMy40NzUsMTA1LjM2NmgtNDUuNjQ4Yy00NC44NTQsMC04Mi44OTIsMzQuMTQyLTgyLjg5MiwxMDAuNDI3ICBjMCwzOS43NjUsMTguNDIsNjkuMDg0LDUxLjI1LDgzLjU0N2wtNjEuMjYyLDExMC44NjljLTIuMDA1LDMuNjE5LDAsNi40MjYsMy4yMDIsNi40MjZoMjguNDMzYzIuNCwwLDQuMDEtMC44MDEsNC44MS0yLjgwNyAgbDU1LjY1OS0xMDguODYzaDIwLjAyMXYxMDguODYzYzAsMS4xOTcsMS4xOTcsMi44MDcsMi43OTksMi44MDdoMjQuODMyYzIuNCwwLDMuMjAzLTEuMjA1LDMuMjAzLTMuMjA1VjEwOS4zODMgIEMzMTcuODgxLDEwNi41NzEsMzE2LjI3OSwxMDUuMzY2LDMxMy40NzUsMTA1LjM2NnogTTI4Ny4wNDcsMjY5LjI2aC0xNi44MThjLTI2LjQyNywwLTUyLjA1My0xOS4yODEtNTIuMDUzLTY3LjQ4MyAgYzAtNTAuMjIsMjQuMDI0LTcwLjcwNSw0OC40NDgtNzAuNzA1aDIwLjQyNFYyNjkuMjZ6Ii8+PC9zdmc+;" parent="xsDj6IwwAKfttmJT4Nek-110" vertex="1">
          <mxGeometry x="247" y="60" width="100" height="100" as="geometry" />
        </mxCell>
        <mxCell id="xsDj6IwwAKfttmJT4Nek-109" value="" style="shape=image;verticalLabelPosition=bottom;labelBackgroundColor=default;verticalAlign=top;aspect=fixed;imageAspect=0;image=data:image/png,iVBORw0KGgoAAAANSUhEUgAAAZQAAAGUCAIAAACdp0P3AAAABGdBTUEAALGPC/xhBQAAACBjSFJNAAB6JgAAgIQAAPoAAACA6AAAdTAAAOpgAAA6mAAAF3CculE8AAAABmJLR0QA/wD/AP+gvaeTAAAwqklEQVR42u2dZ5gUZdpGT01OTAAECUqQnESCqBgWAcE1E1zDKqKYIwqoCAYw58XAkiSKK4qKmP0kyQIquCSVnHNOM8PE/n4wAxM6VHVXp+n7XHPhTE+H6prq4/Pc9db7Gt26dUMIIcKNKO0CIUQ4EnPiP99//732hRAiLDjRL6ryEkKobRRCCMlLCCEkLyGE5CWEEJKXEEJIXkIIyUsIISQvIYSQvIQQQvISQkheQggheQkhhOQlhJC8hBBC8hJCCMlLCCF5CSGE5CWEEJKXEEJIXkIIyUsIISQvIYSQvIQQkpcQQkheQggheQkhJC8hhJC8hBBC8hJCCMlLCCF5CSGE5CWEEJKXEELyEkIIyUsIISQvIYTkJYQQkpcQQkheQggheQkhJC8hhJC8hBBC8hJCSF5CCCF5CSGE5CWEkLyEEELyEkIIyUsIISQvIYTkJYQQkpcQQkheQgjJSwghJC8hhJC8hBCSlxBCSF5CCCF5CSGE5CWEkLyEEELyEkIIyUsIIXkJIYTkJYQQkpcQQkheQgjJSwghJC8hhJC8hBCSlxBCSF5CCCF5CSEkLyGEkLyEEELyEkIIyUsIIXkJIURAiYnMt+3oHbSXHrqS5/8Ky53WLJXfupAUHXIbtmg/l83jaH4kHsmNa/FED/q+I3kJ4YL4KKZ2CEVz/e8Qf58fieY6owoPXM4NFxEVqe2T5CVM8drZnJ0eclu17BBd53IwN7L+FlVSuLsr/ToTF4vDUNsohGu6n84DDUJuq1YdpdvP7I8kcyXHc9slPNSd5EQwIv2wlLyEB6rFM759yH1S1hzl0jnsPh4pf4XYaP5xHoOupEoqGDh0XEpewj0GjG/P6QmhtVXrjtFpLjsjw1xRBleczVPXcGZVaUvyEqZ5rDF/rxFam7Qli67z2JEdEfv/4kY8fQ3Na0d0tiV5Ccu0yeCFFqG1Sduy6TSHTZkVf+e3rcPQKzmvgbQleQmLJMfwYQfiQuk0/O7jdJ3LhopurkbVGXgZV7VWJC95Ca8Y0ZomlUJoe/bkcOlcVh2tyPu8Vjr9O3PTuURHK9uSvIRX9KzN7fVCaHv25dB5Ln8eqbA7vHIS91/CXRcS737oluHiS/ISAqidyOi2IbQ9h/Lo/jMrD1fMvZ0UR7/zefhvVEpy7abIlpTkJUwRZTC5A5XjQmV7Dudx2TyWHKyAuzo2mhvb8HgXqmnoluQlfGdoU/52WqhsTGY+V83ntwMVbScbBlc3Z0hX6mnoluQlbKFjVYY0C5WNySrgyvn8vK+i7eRL6vNsN1rV1BgIyUvYRFosU84lJjQ+UdkFXDWfOXsr1B4+pybPdOXi+ha05bDyo+QlIpSRbaibHBJbkltI74XM2lNx9m3DKgzuxNXNMQz5SPISttK3LjeeGRJbkldIr4V8vbOC7NgalRh0Ef88hxgN3ZK8hO2clcK/zgmJLSlwcMuvzNxREfZqegKPnM895xIfq1EOkpfwA7FRfNiBSiFwIBQ4uPVXPt4a9rs0LpqbWjL0Eqok62Si5CX8xgst6FA5+JtR6KDvb0zdEt47M8rgmkYM68SZ6dKW5CX8ySWn8Vij4G+GA+77ncmbw3tndqrDi51oXs3vYyCU8UtekU7VeKZ2ICrYcYwDHvidURvCeE92qMmwizj/jFLZlqWzijoFKXkJsxgwrh01E4O/JY8v5/314bobm1Zh8Hlc21hNouQlAsX9Dbi6ZvA3Y/AKXlsdljvwjEoMPJc+LYmOwmGYuKbar1+Sl4gQmqfyaqvgb8bQlby0Kvz2XpVEHmnD/ecQF6MxEJKXCCAJ0Uw9j8RgLx87/M/wWzk8OZZ7WjKwPZXiT/WJ/su2FIRJXqIUb5xNq7Qgb8Nba3j6j3DaabFR3NqEIR2onqwLqiUvEQwuP517zwryNoxYy6PLwmaPRRlcW5/h51E/TdqSvESQqJ4Q/OVjx23kkaVhs8curcWL53H2aU5OJqprk7xE4CqIKedSPajLx07YxF1LwuNjf241hp/LJTXNjoFQmCV5CX8xsDFdqgdzA6Ztpd9iCkP+o9k4nWfa0qN+qAxikOkkr4imbQbDmgdzA6Zv4+ZfKAjtj1qtZJ5qTZ9GxESf8oKvstCQLslLeE3Ql4/9fDs3/kJ+CJurcjwDWnB/cxJjrKXyQegHZTTJK3J47xwaB2/52O92ceMi8gpDdOckxXB/Ewa1JC0+0BZQLiZ5CXf0qk2fukF79R93c90CckLSXDEGfRsw9GxqJHk+mSh3SF4ioJyRFMzlY+fv47oFHC8Iud1iQM8zGdaaRmlgWLky0Y4aSkhewnNl8Z/zyAjS8rEL9nP5z2Tmh9xu6XgaL7WmY/GsW9a8Y0e4rhJP8hIeeLoZF1QJzksv2k/3eRwLMXO1SGNoC3qd6X22Zdksdp9MlNokr4rPhVUZ3DQ4L730EH+fz9FQMledJJ5sRr/6REXZNADCfyWVxk9IXpFMeixTOhAdjGN6+WG6zOVgbqjsiqrxDGjEI42Ji7aggMC3cmoeJS8BMLItdZKC8LqrjnLZPPaHhrlSYri/AYObkBprdvoaf2RY/kBqk7wqJv3qccMZQXjdNUe5dA67jwd/D8RFcVtdhjU/dSGnwy4pWG/iVFJJXsIUDVJ4s3UQXnfdMTrNZWewzRVl0LMWL7eifnJp49ihDAsa8jaokukkrwglLoqPzwvC8rEbM7l0Ljuyg/z2r67Jiy1pnursd24lEvjw3prjPLWrS9ZJXiLMeaklbTIC/aLbsukyl61ZwXzj51Xh5ZZccpq3QvFBbX4v4lxv4bHjfPkbk2bx59YIPeAlrwrCZdXpH/DlY3cfp+tcNmQG7V03TeW55vSubcEU9qrNm4LLZ9Ot2MyH8/j8F7Jy1DaKMOe0eCacG+jhPntyuHQuq44G5y2fkcSQptxRz9OIkHKi8c4vXqrNSnjvkaPH+XIxk+byx1Yd8pJXheDE8rE1AjtF6r4cOs/lzyNBeL9V4hjYmIcbkmBlASQH3ozwsqENtGNw2fItTJnP579FeqkleVU0HmrIVYFdPvZQHt1/ZuXhQL/T5BgeaMCTTUiLtbkXcxl4GTa0gV4PLjuaw4wlTJrPSpVaklfFo0UaL7UM6CsezqPbPJYcDOiLxkbRty7PNrdYYJo+k+hd6eS/8H75ViYv4PPFZKrUkrwqJAnRTO0Q0OVjM/O5aj6/HghoU9yrNi+2pEGKt4933az5MfDyKuE6lsPnvzNxASu36eiWvCo0b7emZQCXj80q4Mr5/LwvcK/YpTqv2DH+w4lH7GsSnUvKsKa2ZduYvIjPflepJXlFANfW4u76gXu57AKums+cvQF6ufaVeaklnavZ6SxTd7O1kvKotmO5fLaUSYtYrlJL8ooQaiUytl3gXi63kN4LmbUnEK/VuBLDW9Crts8jP7wtrKxVUh5bSxcs287kX/hsKcdUaklekUOUwaRzqRKoKVLzCum9kK93BsLITzfj9nrE2DpirUxh5TBXWJmtpCyO8MrJ5/tVjPovv27WgSx5RR5PNOHSagF6rQIHt/zKlzv8+yqVYrivAU81te/CTMOijPyRf5V+wtV7+Xgpk37lULYOYckrImmXwbPNAmeuW3/lY38OMjoxfc3wFlSLt/upfe8Z7ThNmZPPd6uZuJi563XwSl4RTEoMH3YgNiDLxzrgniVM3eLH5rdnLV5tRd1k/74LDz2jeZdZPE25Zi8fLWPSEg6q1JK8xMg2NArI8rEOuHcJYzf66/m7VOeNs2nlp3EeluosH0afOi3Tcgr4di0TljB3gw5YyUsAcP0Z/LNOgMz1wO+M8s9n7/wqvNKKi6r6/22Ur7PMy8ir6x9X7+Oj5Uz8n0otyUuUoH4yYwK1fOwTy3nfDwFN81Se8TR9jf2tYsnbLZ5ndJh7eHY+361jwlLmbNRxKnmJMn8kgykdSI0NxGsNXsGrq21+zjOTeMrM9DU2FVzW8ixPPaMbRa7Zz4crmLSMAyq1JC/hlOeac35Alo8dupKXVtn5hN5NX2Nb/eVdnVU+jC/dM+YU8M16xi9jziYdm5KXcM1FVXm8SSBe6PXVPP+Xbc9m4/Q1lsouu+ospz3jmoNM+YOJy1VqSV7CExlxAVo+9u21DFxuz1OdmL7mueacnhCMXeZ2EIOpOqvc3XIK+HoD41cwZ7OW8JG8hDn+3YYz/b987Ii19F9qjzd61eallpyVEpzd5XBaN1lyGaVOU649xOQ/mbiS/Sq1JC9hnrvrc73/l48dt5FH7DBXl+q82opz0oO3v1xH9a7c5HAxBiKngK838sEfzNmiUkvyEhZpmhqI5WMnbOKuJb5+Ps+tzMst6VQtVHadk6i+vMJK3r/EPdceZtJfTPhTpZbkJbwiPoqpHUjy8xm6aVvpt5hCH9TVpBLDbJm+xo6yy11L6Om0Y04BX29m3J/M3qpSS/ISPvBKK1r7uf+avo2bf6HA209q7USG+mH6GnsU5qwlLNsbniy1jjBhFRNXsU+lluQlfKTb6TzU0L8v8cV2bvyFfK/MVTmOQY15qGFA58737CxPLWEZl+UUMHML4/5i9naVWpKXsINq8Uxo798u7Ptd3LCIvELLD0yK5sGGPNGE9NjQ23EmR28ZrDvC+DVMWM2+4zrcJC9h3wfwg/b+HR71426uXUCORXPFGNxej2eaUTMxFPeak7OK5VyWW8jMLYxZzewdKrUkL2E3/RtxRQ0/Pv/8fVy3gOMF1h7VpTpvnU2LtBDecS6S+BPfrDvCB2uZuJY9KrUkL+EPWqbxQgs/Pv+C/Vz+M5n5Fh7SsSovt+TCqiG938qWXcUWy3UwYwtj1zBrp0otyUv4jeQYpp3vx6uXF+2n+zyOmTZXizSebhaI6WvsrLmKy651R/lgHRPWq9SSvIT/ebs1Tfw2RerSQ1wxn6PmzFUnicFN6VePKCMM9lvJsiu3kC+3M3qdSi3JSwSKHrXoV89fT778MF3mciDX8z2rxjOgEY80Ij4qTHZcccG1LZtxGxipVEvyEoGkdiKj/bZ87OqjdJvHfk/mSonh/gYMbhKg+Q7tMle+g9l7GLOez7Z5P9pWSF7CG/y6fOzaY3Sawy63xciJlceGNad6Qjjtt23ZfLiF99axNUsHkeQlgsFTTf11PfO6Y3Saw87j7rzZsxYvt6J+ctjsrgIHs/cwegOfbVepJSSv4NG+MkOb+uWZt2TRdR7bXV+s16U6r/n/8kkb2Z7NlM28t16llpC8gk1aLB+f55flY7dl02kOmzKd//a8KrzckktOU6klJC/hFe+3oZ4f+rXdx+k6lw3OzNU0leeah8b0NaZLrffXs0WllpC8Qoc+dbnpTPufdm8Ol85l1dGyt5+RxJCArTzmG4UOZu1h9AY+3+7lpBdC8hL+on4KAxvb/7T7cug8lz+PlLrxxPQ1QVl5zCo7spm8mZHr2axSS0heocltde1v3A7mctk8Vhw+dUtyDP0bMqBxYFces06Bg693MmoD3+3yaU5XIXkJv2O7uY7k0f1n/neo6McTK48925waoT10S6WWkLwimsx8rvovvx4o0mKv2rzQkoYpobvBSrWE5CXIKuDK+czbC9ClOi+3pG1G6G7tzuNM2sS/N7gcxiGE5BUR5BTSawFz9tK+Mi+1pHO1EN1OlVpC8hKnyC2k1wLWZzLt/NAduqVSS0heohR5hdz3OxdWZfoFxIXe9DUnS60vdnizzIcQkleFZX0mI87x+5K0XrAjmw82MXaDTiAKyUs4w39zrqrUEpKXiAh2HWfiJkZvcH41pRCSlwi5UuvH3YzewJc7dAIxaFRKIjWZ1BTSklm0UvISQqVW8EiIIy2JtORSXyf0lJpMWgppKaSmkJpC5TSiY8DAYYBBw+skLyFclFpKtbyRUSzpSaQVf6UnER9LQixpyUWSSk0mLZn0ZFJTqJpGVBQOTinJzTeqdyUv4YHdx5mwiTEbWX9MO6PYRwmkJ5KeRFoi6YmkJZKWRHpikZ6KSqckMpKIjS1tnDImwpmSyq1ESfmFdV3cTfISAgf8tJvRG5ixg9yKXmolxpCeUPSVlljsphP/JhYbKon0RKqkEB3luibCg6rK7mSPdzDvMslLiIO5fLKNf60tOzVYmMkonvR4MuJJTyA9noyEU3pKTyA+hsSYIjFVT8E4oQ9c9Ggu+riTC3SXEY33qvLZZZKXiFCWHGT0BiZvJrsg9HwUTUY86XGn/s04qaeSnkqgciJx0eVUYji7pYyAXHVhZZ4EEw+xqip8dpnkJSK21Bqxlj+OBFZGcSREFX1T9BVLejwZJ9wUV6yqeKolEh1lzkcUf5LLf6pdVUxOxeTKGraUXeUxbHCZ5CVUavnko4zYUyZy842TaandWAlPt2DiFo9Flke7Ga7LLjcPMayrSi6TvIRTDuUxbSvvrGPlYdt8VDXOt2Xc3FupfHFU5hbDxC0eiywz/aDvLSSerO2VyyQvUZFxwJKDTNvK7D0kxVA/mbYZpMcW92vl/k0O2KHhxlPOpFZKEG4KKDO3lC7HAtFCujdR6WrOs8skLxEJGNAug3YZIbdZZc/oOY2i3bjGfMMYmBbS57LLYd5lkR3YR+lTLYJprnImKmsNVy2kx2LNfcNo+BaQeVGpeVt2OczfQfISInDmKldhORl97rTUwrcW0sXdbD4LaT65d68qPN9B8hIisK2smZDelaQMTy2kp4YxhFpI91WVYcJlkpcQgYu6PFVYHgSH9fOSodlCWi27dGGj5CVCy1xetJCG/S2kIwAtpL1ll9pGIQJnrpKf59IfUbMtpNMH2tFCmkrHfGwhDdcPsVR2RXbnKHmJYJir9OlFJ3Jx00Ia5kZLVIwW0v2UEgrshQgJc5lsITE9WsKVZcKlhXSlKl3eKHmJgJqr5IfTlhbSY9Tl8QxjqLWQ1ssuhyovIfxuLldKioQWEnsuOVLZJXmJkDdX4FtIw58tpJXBX6ZOMmp6HMlLBMdc/mkhHb60kPizhTTpHa9nrZC8hAiQubxuIQ3rnrJ6daQ/Wkg/JPealVDyEiFvLsNTvWa9hfSQ9/unhfR+8Jeb5F6BvRBBM1cwWkjCt4VUci95iVAxl1pIn1vIyESTEQq7zVViWi77zeXPFtLSeUmH1y0kFltIzD1ElZcQwTSXuRbS4Y8W0uJ5SbxuIf0x37TkJUSQzWWuEMMfLaSlptIIdAvpcfCX2kYhfDWXU4UFroU0THjKaguJuflXg9hCSl5CeKGtUg1dGX34u4Us/1iC10J6GmDhvxZS8hLCesFVwi82m8tMIYapFtLyNUb43DAGuIWUvEQFZvFBdh8/tVJs5TjiokLJXNjcQlpejshVKeTjdUUBW/VW8hIVlXYZLDnI6A1M2UxWAVhZELtKedOVNJQLc1kIv9y0gd62kE4qLJMr2uKpqTQThAV81VvJS1Rk2mYwqi2vtGLaVt5dx4rDZGezI9vUY8uaLo6MONLjyIgv/j6+6N8qCcRFWSnEzJjLxxbS5HJEHmeODtkWUvISkUB6LHfV5676RYXY5M1kF3h+VHaBRdPFF6mtSHDxxXZLKPo+PZ6MBKokEBMdwBYSKy0kYdNCSl4icguxd9ax8rBtz5xdQHYWO7LMmS6m2GXxJdSWcOorI4H0BNISqJpETFRgW0gr5yWtnXO0t4WUvIQKMZOFmI1k55Odz85M06ZLKP2VSFrxN0VfCaQnUSWFaEvLETltIbF+XpKgtZCSl4joQuzllnyyjRFr+eNIKG5kdj7Zx9h5zNSdE2JPSS0tscQ3SUU/piWRlkR6ElUrERVl8ZrtkGohJS8hMuKCXIjZyPE8duWx66hp0yUWuSztxDfJpCaSnkxaEmnJxaZLpmoahlpIyUuEdCHWjpfO5pOtjFjDn0cq+PstMp25t5kQW6yzk/+W+EpNoVo61TNITSE+LhAtpOQlxKkPyYkPVUYcdzXgzob8tIvR65mxjbxC7R2O53H8ELsPmdBcHGnJpCaTllLktaJ/U0hLITWF1EpF36RVIi5OLaTkJXw0V5kBqNC5Bp1rsvs4EzYwbh3rj2o3mdNcLsdz2X3QXEEXV+S11EolvqlU5LjUSqSmFn2Tnk5MTGmXSV5CBRflx5QW/6paIoNaMKA5/7eLsWuZuVWFmN2mO8CeA6bunJxUbLRKkpeQucoVXKUGwRf/yoiiay261mLXcSatY+waNqoQCziZWWRmsXN35O4BTUYoirRV6iIeo9S49lI/lhjUXj2Jga34qxffdqdnPWJ1NAlVXiJg2ipTVZX83k0tVrKdjDK4tBaX1mZ3NpPXMuYvNqkQE6q8hH8LLqdVleG5Fit1t+IfqyXxWGv+vJFvrqTHWSrEhCov4R9tYS7h8vAro/QTGkRBp9p0OoNdWXy4hrF/sOmI9rhQ5SWKOZrv1cDRcmWU84QLa+GX09tPT+bRNqz8J59fxRX1iNYVLULyEkClGNYe4+ZfWGMyYCrZDBouf3TSD1J29hVH6YXpXU46aABERdGtLtOuZM3tDO9InVT96YTkFfFcU5OetWn1A9cvZGOmJ22V6/jKjOGyFn7h4m7larSTL3R6Cv3bsaIvM3tyXSNidOgJySuS6VGLKR34fDtNvuPuJew67sRc5cXk8kdKBfAuazGj3PyohssarcxTRUXR6UwmXclfdzHsIs5M099QSF6RSq/afNiBAgejN9DgW55YwaG8Ux5xE2/ZFn6ZNFrp209PoX8Hlt/JjOu5rrEKMSF5hTxf7rD/kprrz2B0W6IMMvN5ZRUNv+X1NWQVlhWTw8qP7goup+GXSaOVbmOjouhUlwnXsuweHu9IzUo6QITkFar8doCn/7D/aW+vx5h2RBkA+3IYuIxGXzNiLTmOEorBt/ALs62i+/DL6eobtVMZfDErH+CLG7m2qQoxIXmFJK+u5qc9tj6jAQZ96zGy3an5UbZn88jvNPmKMespcFgsvvwffjldMy3K4G/1mdCT5Q/yTGdqKxETkldIUeigz6/sy7FNWye9c+dZvNmm1O83Z3LPr7T+hk+2uCypght+lV8QyAE1UnmkI0sf4vNbuKY50TpOheQVImzPps9vPszEVMJZjtLrQj/UmDfalL37n4e54Wcu/I7ZuwMafjlMh19OXy4qikvOYvz1LOvP011ViAnJKzT4Zicj13urLZzUSicN8kgTXm3j5KG/7KPrD3T/kSX7AxR+4cpohuulZ3GiuRppPHwxSx5lel+uaaFCTEheweaxZSw/bMVZLkY/lL/l0WYMben8mX7ayXlf0f0HVhwKXvjl8XZnBVp0NJc0YNyN/G8QQ7tTS4WY5CWCxfECblrkdnke14Yq744yBc4zrRnc0uUT/7SD9jO4cTbrj9ocfjl8D7/cnJ00cBjUSOOhv7H4cT7tx9WtVIhJXiIY/HGEgcs9tIdlUi3z9ddzbRjk2l+FDqZvpNV07p/Prmzbwi9LRnM4Db/cdqwlC7GLGzH2nywezJArqKlCTPISAea9dczYYVZPZUst9yKDF9oyoIW7V88rZOwqmn3MkF+LhuZbDr8M78MvLIZfTu9cM50HO7F4CJP7cXEjDE1fIXmJgNH3N7Zml6izPFVVTm6ktMg4dZ8X2nNvUw8bkJnP60tpOpXnl3A032L4hX3hl2HZXCcfGBVN1+ZMu5f/PsUDXaiqwfqSlwgAB3O55RcKTFdVThtJV2ozDN6+gLubmtiMHJ5fTLMPeWMpxws9hV+GH8IvPIVfTtOx0v1mvdN46ip+H8ao27mosQqxCkt0gwYNgPXr10fU2362eTBe1QCD2XuZt9fJLzdnkRTDhdWcFFkYzm+knMUo11eevE/3M9mVxe/7PG9mVj6ztjF1NcmxtKpWvLS9q4TLXPjlTmGuh4A5Cb/MFGIUFWKNa9K7Az3OJTGOjXvIytXnvYJwwlqqvAIhrLIVkwuGLmfhfgs9o5nM/uRn2zB450JubGh2w7ce5YHZtJvKZ+uKnsT28Mvs7Vg2V8lCrG41Bl/L4hf5951c1FSFmNpG4clWJRVT8nPlZnH2fAe3LuBIvov2EE+NpCeRGVGM7cQNDSy8m9UHuOVb/jaNbzaZDr8MP4ZfDhPhl8PZM8fEcmU7PnqEucO5rztVlIhJXvKUU1U53DR6bp9y/TEeWuxpbASWM/uTd4s2GNuZ3g2svdHFu+g9g66fsGCH6YLLUvhlmA2/MCyEX04LsXrVebInv73GyHu5sJkKMckrYgzlylOuVIXTu7ll8gambnJZUnmX2ZdUW3QU4zpzVT3Le2Lhdi77mKuns3yvibONVkZ+eb7dphayZCF2RXumDmDWi9x7hQoxySvMleTeTWY85dJWpSXikfsWsfaohZzLYbgcZ+9UZLHRTO7G3+t6s+dmb+aiydw6kw2Hwiz8KvsM4DCoX4MnerPobd57gAubqxCTvEIeX9zkXbeI6coLOJbPLfPJc3iuvzw0kq7HtcbFMPVyunvlr0IHn6+m/Tge+oEdmSbmmQil8MtRzmsYxMZyRQemPMFPr3HPVWSoEJO8wrTyslSOWS7BTMZM+xi+zNp5RlMnH0tsRmwMUy7nktpe7sK8QiYs5ZxRPPETe7LMLunodfjlsDH8MlwWYvVq8PgNLHqXdx+mY0sVYpJXuFVe3pVjZgN705+HV5Yze5c7PXmX2ZcsixJj+fQaLq7t/Z7MzmPkb7QeybOzOZrjWk8+h1/+bSHLFGJx/P18Jj/FD29y9zUqxCSvMK+8vA7sy46ZsNKd9Z3LvtxSn8ayF2wb3mT2Je+TGMun13JhbZ92Z2Yuby+k9fu8vZCcArvDLyOg5iqViNVi0M0sGMU7j9GxlQoxyauiB/alngEvM/sT7Mji3vlu20O8zOxLRlFJsXxyDe1q+LpT92fx3E+0fY8Jv5Pv8Db88mraaLvCL1eF2OUXMPEZvh/BXT1IVyEmeVXUwN7hPrC3yIxNjFll9oJth5XMvqQUUuKZ0ZO2p9uwb7cfof9XdBzJjD8pxHP45XA/wgsL00ZbC7/MmavUGLHaDLyF/37AvwZxwdmyh+QVaYG9dX8NWMiKA5aHR7ivtsrfITWBGb0553R7dvDaffSdxsUjmfGH2wIKF0YLQPhlWGshSxViFzJhON+O5M5eKsQkr/AP7DHzEK84XkCfWWQVmCu1zGT2Lrx2wl9nV7dtP/+5m9s/5vIxLNhUWkNYXBstiOGX60Ks/hkM6MvcSbz9JBecI5lIXmEb2FsYZO+FBQ4w9Bfrk3yZy+xLlmPpiXx2PU2r2rmzf93C1WPpOZ7lO82FX4Ro+OXk4RAfT/eL+eBFvhpNv+tJUyEmeYVBYI9XJZi3vL+Crzb7OjG0mS6yajIzb6JJVZt3+dx1dHmXO6ayfn8Qwi9sCb9wV8edVYfH+jHnI94ayvlt5BbJqwIF9pgeYe98m+He2ezKNj0xNNYy+5KbfVoyX95Moyp273YHX67gojd5YBpbD7kNv2xaM83O2N5jIWbggPh4ul3CuNeYOZ47blQhJnmFZ2DvxVXZ7tmXzW0/UOhqtmisjLzHdTkGDoNqyXxxE3XT7d/3eQVMW8J5rzBgOnuPebs2WuBjexMt5KkXgvp1ePQuZn3KG89yflupRvIKcGAf5VNg7/JRPjBvOyOWWrw2yHxmX1p/NdKYeQt10v3yJ8grYPIiOrzE8K85kuPpIqEQDL/wdCrgZCHWiTFv8cUkbr+ZVBVikldwA3t33SKe7uzztj+zgN92u71gCOuZPc5XbKydzsw+nOG3VcUyc3h3Fh2e551ZZOe7mJoiNMMvEy1kybdwVj3638tPX/L6cM5rL/NIXn6Qly0jJ3yfFcddzVJI3+84lufztdnmxuLXTuezWzndnyXDwUxemMkFzzNlYdFcGk5G54dR+FWuhTxViMVxWWdGj+Cj8fS6luQkKUjysq9ttKUKw+erst2z8TAD55Z6I95n9m4Wmi1eYuOsKsy8jep+bnl2HmLgf+j4HFMWUOAIq/DLXAtZcsc2a8rQJ/nhG4Y+SdMmEpHkFYzA3n+z4rhn8h98vNrcfF6eMnvKD2otlxDVr8qMvlRL8ftfZusBBn1Elxf56n8+hF9GYMMviy3kyZdOTqJnD6ZOYeoUevYgSYWY5GVbYG/4IbC3j/4/sfmIuYmh3Wb2Hkfen/im4Wl82ofKAfmArd7J3WO56lX+u8b1XGBmpo3292WPPrSQJW9v2pQhQ/j+B4YMpUlTeUnyCkpg79RWtgb2JzmSQ5+vyHVYD7/wJvxyQLMafNaXjMQA/ZV+38j1b3Hj2yzf4mw7/TRtNIFuIU8VYsn06MmH/2HKf+jRS4WY5BUCgb3DP5UXsGQnry20PjG0eW2V6yJb1GT6HaQnBu5v9fNfXPEit7/Lqu3eTxsduPDL2xay5P2bNuOpZ/h2FoOfpbEKMckrVAJ7u/316kLmbfVDZo/LO7SsxUe3kRIfwL+Xgx+X0e057h3Jln2mDBWg8AuLhZiJFvLkY5Mr0aM3U6Yz6VOuu57ERPlK8sLOtN4RwBH2Til0cNdXHDhud2bvtmRrV4eP7yA5LqB/tEIHXy+m01M8MZG9R5xMbB/o8MtF3WRbIVZ8t6YteHIY38znyeE0UiGmysv2tD4wI+ydsuMoD31rYZyXy8wec+UYOAza1+E//QLtLyAvn6lzuHgQL0/jSHbwwi+n5sI+cxll67XkSlz3DyZ/ycQvuPYGEpMkL1VeAZ7G3j9vaOZqJi2zMjG01VnwnXnt3HpMuI2E2CD8AbNyGPk1Fw9g5Fdk5QU8/HJlLsPWFtKF9Zq05IkX+GoRT7xIw6aSl+RlJa33YjEhv1ZeJ3j8B9YcsDWzx0M5hsHFjRh/G3ExwfkzHjrGKx/T6TE+/In8wkCFXzgZgOaXFtKp9YrvllyJa29i0reM/kzyUtsYmCrMb2Tn0Wd60eI9Fuazx8N9PLqvU1Mm3B40fwG7DzLkA/7Wn49mFQ3N92/45XZxycC0kCXrtZbtJC9VXn4I7AOT2Z/krz08N9v0CkMeLw8yF34BlzZl1K3ERgfzT7p9H0+N4fJBfLOo6FMdgPDLqWiwu4X0bD3JS5WX7xWZw89XZXvk34v4fq1XKwx5zOxdd5EOg+6tGNmHmGAfUOu28eBb9BrCf1d6CL8cdoRfTs3lsLuFxFMLKXmp8grQYkL+9TI8OINdxyxk9ma15en6oSta834I+AtYupZbn+OGoSxeVW6aaTcrGNkRfrksxPzcQkpeCuz9Fdg7jMAdZ/syuf+Lsh9aL2e4x7mnXLWZV7bhjZuJCo2P0+K/uOEp+jzHqs2eayvL4Zdpc3kuxKxcC+n0sZKX2sYADZsIALPXMXKh68UcLWb2zuMwnIRfGPTuwOsh4y9gwTKu6c/Dr7Flt63hl13mwoVPLbWQkpcqr0AE9oFi2I/8vt2r2QpxN6O0+y7yxI//uIBXb8YImQ9VoYNv/0v3+xj6PnsPWpw22kT4Zd5c/m0hJS8F9t5NYB+UWXHckFfA3Z9wLNftCkOeTjU6PA1qdfXjjR15JZT8BeTn8/F3dL2T18dzONP0tNEmwi/z5rKnhZS5VHkFJ7AP4LvcuJ+nvvY5s8fyoIoTP950Ec/0Drm/fHYOYz6lUx/e+ICj2XZMG+2jubDeQpYr4iSvSJeXw3+BPX6cFcc9Hy7m8+U+r0prpossF34Bd3Th6d6h+PfPzGbMJ1zWl7HTyMkLTvhlajiYlau4Ja/IbRttq8IIzgh7Vwz8gq2H7M7sMVV8YXDnZQzpHaKHwcHDvDGOy29n2tcUFJoOv7An/LKzhZS81DaG+wh7pxzO5r7/FF83Y1dmbzr8wuCu7jx8VegeCzv38OzbXH0n388rHprv8UIiP5nL6xZS8lJgXwFG2Dvll028+ZPPS6VZCr8oVdA9dh0PXhXSh8TGLTz6HDfcz5xFXoZfvpjLxxZS8lLlVRFG2LvijR9ZsMFdHu9ws1QH1sOvcr8d0IP7rgj142LlKu5/klseZPHygIZf3reQurZR8nL4NbAP7Ah7pxQ6uH8qB7NLH/feLdVhlErlza8/9Pj13P33MDg6/reC2x7kzkf5a63fwi9saiHVNqptDOTEhMFixyEGfOK6Z8R0F4lnT7lqKp/4B7d0CY+DZNFibujHgKfZss3u8At34069aCElL7WNfgnsCdIIe6d8tYypv5qbrRDL2jJz/ZARxbA+3Nw5PA6TwkJ+mMW1NzPsFfbssyn88mQuqy2k2kYF9v4K7B0hU3mdYMh01u3x/oJtU10k7h6OwfC+3Hhp2Bwt+fl8+gV/78GwlzhwyLfwy6m5MJHlu24hVXmp8qqAI+ydkpXLfZPILbQvs7fSRZ74xohi+B1ce2E4HTJ5eUz/giuv41/vcjTTq/DLlbnsKMQkrwiVl8PwSy0WmHVnvWDFVl6aaV9mb3hz/VBUFK/dx9Udw+zAycpi/ESuvIbxE8nNsxh+GTYUYjKX2kbb0nrLVVhoMGoW//eHvzJ7k9cPRUfz+gNc2TH8jp/Dhxkxgquv4bPPKCiwNfzCRJaPpsRR5RWUwD40DjWHg0ensOeIlaU6TGoL09cPQXQ0bzxAl/BcQmL3bp4fTq+efP0VhYUWL9i2vYWUvCKz8gpoYB8y7DtK/8kUumiirWkLL8MvDKJjeGcAl4btEjibN/H0U9zQix9/cHFFkS/mQuaSvHyrvGwJ7AmN0RIlmfMHH8w2ndmbGB3mRfiFQWws7w2kU9swPqDWr+OJx7j9Zhb/Zmv4Za6FlLwiVF4eZyK0K7APzf9PvvAZK7d5ldljboQqJibPMYiJZcQgzm8Z3ofV8qXccxv3386qv/wTfrkpxCSvCGwbg1CFhRK5+dw7isxcn5fXNt1FuhrOmhDHqCF0aBH2R9evC7m1J08+zJbNtoZfaDIvyYtgBPaEXM94ko17GDatbLBlZhkOl9oyvAm/HAYJCYweSvvm4f9/Rwc/fcf13Rn8EDu2+9lcqrwitvKKtBH2Tpk6j5m/mZgtB7PawqvwC4PEREY9zdmNK8JhVljIT99yfVdeGsL+vXabi3Lhl+Slysu/gX2o7pInJ7HtQOlrfV1n9g5LXaSV8MthkJzMuGG0bFRBjrW8PL74iF6deO9Vjh6xKbZHU+JEsLwcvn0RhrPiuOdIFo+MpsDha2bvZDJCi+EXUCmFcc/TvEHFOeKys5g8kp4XM/nfHM+xu4WUvCKqbcS+r3AcYe88aV7D+1/7nNlj9nJuN+GXwyA1hbEv0KhuhTrwjhzi/Ze4/iI+GU9enm0tpOSlttHLVYXCaEocj7z9BUvWepvZ4+UkX67mjM9IY/wrNKhT0Y6+vbt462n+cREzPqSw0KbwS/KKnMrLH2l9KE9jb5L8Ah54n0NZFjN7rJyLNB1+OQwqpzPhNc46swIehLu28eogbu3M7K+KF/7wuhCTvFR52VKOhWlgf5Kd+xn8genMHnPlGKbWSXM6kWHldMa+whk1K+aRuHE1Q+/knitY8rMPLaTkpcorkgP7knzzC9N/9mbpbCdzqFpcJ82p1KqfxsQ3qF2jwh6Qfyzh4Z7078VfSz1IyqnOJC9VXpEe2Jfk6fFs2Gk9s8en6xwdrqVWvRoT3qLW6RX5qFw8l7u68GgP1v/pdu0iDZWQvFx+Rdkc2BPalzc6JSuHR94jr8CrcfaGlSEU5sIvDGpUZ8Lb1KxewY/NxXO542Ke6cuOTZ7MpdWD1DbaH9gTutOommflBt6YZkdmj9khFB5W8TCocTpj3qRa1Qp+fBYWMucLbmnPG4+wf3fp9Yqc6UzyUuUViEsdw+tK2rFfMn+FD5k9Xg71wvUY/Tq1+eBfnFal4h+k+XnMHM/NrRn1NMeOuG0hJS9VXvbWYs4fG14lgIPH3mHfYW8zez+EXw6DOmcy7l9UqRwRx+rxTD56k5uaM+EFso65aCElL1VeETgljkf2HeLx90vMimEls8c/4RcG9eoy6i3S0yLlgD16kIkv8M9mfPQ6ubkaKiF5BWqEPWFbeZ1g7u9M/tYbbTn8Fn45DBo1ZPQI0lIj6LA9tI8xQ7i1OV+No6Agos2ltjFAI+wd4Vx5neDliazabHq2QlcLCNkafgGNGzHqHVIrRdbRu2crb91Lv3OYOx2HQzOpqvIKWGAfnjssN49H3yQ7z/NVjR7XqbUl/Dr5q6aNeedNkpMi7hDe8hfD/8GDHfnfrAj9EMdE5ts+406EVdZuoVVv7YbQYtUvDOqiyksIISQvIYSQvIQQQvISQkheQggheQkhhOQlhJC8hBBC8hJCCMlLCCF5CSGE5CWEEJKXEEJIXkIIyUsIISQvIYSQvIQQkpcQQkheQggheQkhJC8hhJC8hBBC8hJCCMlLCCF5CSGE5CWEEJKXEELyEkIIyUsIISQvIYSQvIQQkpcQQkheQggheQkhJC8hhJC8hBBC8hJCSF5CCCF5CSGE5CWEEJKXEELyEkIIyUsIISQvIYTkJYQQkpcQQkheQgjJSwghJC8hhJC8hBBC8hJCSF5CCCF5CSGE5CWEkLyEEELyEkIIyUsIIXkJIYTkJYQQkpcQQkheQgjJSwghJC8hhJC8hBCSlxBCSF5CCCF5CSEkLyGEkLyEEELyEkIIyUsIIXkJIYTkJYQQkpcQQvISQgjJSwghJC8hhOQlhBCSlxBC+B+jW7du2gtCCFVeQggRCP4ft7tz7WepmaQAAAAldEVYdGRhdGU6Y3JlYXRlADIwMjEtMTItMjlUMDc6MjI6MDArMDA6MDAiys44AAAAJXRFWHRkYXRlOm1vZGlmeQAyMDIxLTEyLTI5VDA3OjIyOjAwKzAwOjAwU5d2hAAAAABJRU5ErkJggg==;" parent="xsDj6IwwAKfttmJT4Nek-110" vertex="1">
          <mxGeometry x="440" y="60" width="100" height="100" as="geometry" />
        </mxCell>
        <mxCell id="xsDj6IwwAKfttmJT4Nek-111" style="edgeStyle=orthogonalEdgeStyle;rounded=0;orthogonalLoop=1;jettySize=auto;html=1;entryX=0;entryY=0.5;entryDx=0;entryDy=0;" parent="1" source="50" target="xsDj6IwwAKfttmJT4Nek-106" edge="1">
          <mxGeometry relative="1" as="geometry">
            <Array as="points">
              <mxPoint x="500" y="60" />
            </Array>
          </mxGeometry>
        </mxCell>
        <mxCell id="xsDj6IwwAKfttmJT4Nek-113" style="edgeStyle=orthogonalEdgeStyle;rounded=0;orthogonalLoop=1;jettySize=auto;html=1;entryX=0.5;entryY=1;entryDx=0;entryDy=0;" parent="1" source="59" target="xsDj6IwwAKfttmJT4Nek-106" edge="1">
          <mxGeometry relative="1" as="geometry" />
        </mxCell>
        <mxCell id="xsDj6IwwAKfttmJT4Nek-116" style="edgeStyle=orthogonalEdgeStyle;rounded=0;orthogonalLoop=1;jettySize=auto;html=1;entryX=0.425;entryY=1.005;entryDx=0;entryDy=0;entryPerimeter=0;" parent="1" source="67" target="xsDj6IwwAKfttmJT4Nek-108" edge="1">
          <mxGeometry relative="1" as="geometry" />
        </mxCell>
        <mxCell id="xsDj6IwwAKfttmJT4Nek-117" style="edgeStyle=orthogonalEdgeStyle;rounded=0;orthogonalLoop=1;jettySize=auto;html=1;entryX=0.5;entryY=1;entryDx=0;entryDy=0;" parent="1" source="81" target="xsDj6IwwAKfttmJT4Nek-109" edge="1">
          <mxGeometry relative="1" as="geometry" />
        </mxCell>
        <mxCell id="xsDj6IwwAKfttmJT4Nek-119" value="Storage" style="swimlane;whiteSpace=wrap;html=1;dashed=1;" parent="1" vertex="1">
          <mxGeometry x="661" y="460" width="245" height="300" as="geometry" />
        </mxCell>
        <mxCell id="gP_kXPei_DPr6xhCDkMP-106" value="" style="shape=image;verticalLabelPosition=bottom;labelBackgroundColor=default;verticalAlign=top;aspect=fixed;imageAspect=0;image=https://raw.githubusercontent.com/ydb-platform/ydb/0223f027e53b95833e7f694ae738528df2f70ab5/ydb/docs/_assets/logo.svg;" parent="xsDj6IwwAKfttmJT4Nek-119" vertex="1">
          <mxGeometry x="72.5" y="180" width="100" height="100" as="geometry" />
        </mxCell>
        <mxCell id="gP_kXPei_DPr6xhCDkMP-107" value="" style="shape=image;verticalLabelPosition=bottom;verticalAlign=top;imageAspect=0;aspect=fixed;image=data:image/svg+xml,PHN2ZyB4bWxucz0iaHR0cDovL3d3dy53My5vcmcvMjAwMC9zdmciIHdpZHRoPSIzMiIgaGVpZ2h0PSIzMiIgdmlld0JveD0iMCAwIDMyIDMyIiBmaWxsPSJub25lIj4mI3hhOzxwYXRoIGQ9Ik0wIDE2QzAgNy4xNjM0NCA3LjE2MzQ0IDAgMTYgMFYwQzI0LjgzNjYgMCAzMiA3LjE2MzQ0IDMyIDE2VjE2QzMyIDI0LjgzNjYgMjQuODM2NiAzMiAxNiAzMlYzMkM3LjE2MzQ0IDMyIDAgMjQuODM2NiAwIDE2VjE2WiIgZmlsbD0iIzUyODJGRiIvPiYjeGE7PHBhdGggZmlsbC1ydWxlPSJldmVub2RkIiBjbGlwLXJ1bGU9ImV2ZW5vZGQiIGQ9Ik0yMiA4QzIyIDcuNCAyMS42IDcgMjEgN0gxMUMxMC40IDcgMTAgNy40IDEwIDhWMTBIMjJWOFpNMjMgMTJDMjMgMTEuNCAyMi42IDExIDIyIDExSDEwQzkuNCAxMSA5IDExLjQgOSAxMlYxNEgyM1YxMlpNOSAxNUgyM0MyMy41IDE1IDI0IDE1LjQgMjQgMTZWMjJDMjQgMjIuNiAyMy42IDIzIDIzIDIzSDlDOC40IDIzIDggMjIuNiA4IDIyVjE2QzggMTUuNCA4LjQgMTUgOSAxNVpNMTQgMjBIMThDMTguNSAyMCAxOSAxOS41IDE5IDE5QzE5IDE4LjQgMTguNiAxOCAxOCAxOEgxNEMxMy40IDE4IDEzIDE4LjQgMTMgMTlDMTMgMTkuNiAxMy40IDIwIDE0IDIwWiIgZmlsbD0id2hpdGUiLz4mI3hhOzwvc3ZnPg==;" parent="xsDj6IwwAKfttmJT4Nek-119" vertex="1">
          <mxGeometry x="72.5" y="50" width="100" height="100" as="geometry" />
        </mxCell>
        <mxCell id="xsDj6IwwAKfttmJT4Nek-122" style="edgeStyle=orthogonalEdgeStyle;rounded=0;orthogonalLoop=1;jettySize=auto;html=1;entryX=0;entryY=0.25;entryDx=0;entryDy=0;entryPerimeter=0;" parent="1" source="59" edge="1">
          <mxGeometry relative="1" as="geometry">
            <Array as="points">
              <mxPoint x="640" y="665" />
            </Array>
            <mxPoint x="733.5" y="665" as="targetPoint" />
          </mxGeometry>
        </mxCell>
        <mxCell id="xsDj6IwwAKfttmJT4Nek-123" style="edgeStyle=orthogonalEdgeStyle;rounded=0;orthogonalLoop=1;jettySize=auto;html=1;entryX=0;entryY=0.5;entryDx=0;entryDy=0;entryPerimeter=0;" parent="1" source="50" edge="1">
          <mxGeometry relative="1" as="geometry">
            <mxPoint x="733.5" y="690" as="targetPoint" />
            <Array as="points">
              <mxPoint x="500" y="690" />
            </Array>
          </mxGeometry>
        </mxCell>
        <mxCell id="xsDj6IwwAKfttmJT4Nek-124" style="edgeStyle=orthogonalEdgeStyle;rounded=0;orthogonalLoop=1;jettySize=auto;html=1;entryX=1;entryY=0.5;entryDx=0;entryDy=0;" parent="1" source="67" target="gP_kXPei_DPr6xhCDkMP-107" edge="1">
          <mxGeometry relative="1" as="geometry">
            <Array as="points">
              <mxPoint x="930" y="560" />
            </Array>
            <mxPoint x="860" y="560" as="targetPoint" />
          </mxGeometry>
        </mxCell>
        <mxCell id="xsDj6IwwAKfttmJT4Nek-126" style="edgeStyle=orthogonalEdgeStyle;rounded=0;orthogonalLoop=1;jettySize=auto;html=1;exitX=0.75;exitY=1;exitDx=0;exitDy=0;entryX=1;entryY=0.25;entryDx=0;entryDy=0;entryPerimeter=0;" parent="1" source="67" edge="1">
          <mxGeometry relative="1" as="geometry">
            <Array as="points">
              <mxPoint x="930" y="330" />
              <mxPoint x="930" y="665" />
            </Array>
            <mxPoint x="833.5" y="665" as="targetPoint" />
          </mxGeometry>
        </mxCell>
        <mxCell id="xsDj6IwwAKfttmJT4Nek-127" style="edgeStyle=orthogonalEdgeStyle;rounded=0;orthogonalLoop=1;jettySize=auto;html=1;" parent="1" source="81" edge="1">
          <mxGeometry relative="1" as="geometry">
            <mxPoint x="834" y="690" as="targetPoint" />
            <Array as="points">
              <mxPoint x="1070" y="690" />
              <mxPoint x="834" y="690" />
            </Array>
          </mxGeometry>
        </mxCell>
        <mxCell id="xsDj6IwwAKfttmJT4Nek-128" style="edgeStyle=orthogonalEdgeStyle;rounded=0;orthogonalLoop=1;jettySize=auto;html=1;entryX=0;entryY=0.5;entryDx=0;entryDy=0;" parent="1" source="59" target="gP_kXPei_DPr6xhCDkMP-107" edge="1">
          <mxGeometry relative="1" as="geometry">
            <Array as="points">
              <mxPoint x="640" y="560" />
            </Array>
            <mxPoint x="733.5" y="560" as="targetPoint" />
          </mxGeometry>
        </mxCell>
        <mxCell id="xsDj6IwwAKfttmJT4Nek-131" style="edgeStyle=orthogonalEdgeStyle;rounded=0;orthogonalLoop=1;jettySize=auto;html=1;exitX=0.5;exitY=1;exitDx=0;exitDy=0;entryX=0;entryY=0.75;entryDx=0;entryDy=0;" parent="1" source="45" target="gP_kXPei_DPr6xhCDkMP-106" edge="1">
          <mxGeometry relative="1" as="geometry">
            <mxPoint x="733.5" y="715" as="targetPoint" />
          </mxGeometry>
        </mxCell>
        <mxCell id="xsDj6IwwAKfttmJT4Nek-139" style="edgeStyle=orthogonalEdgeStyle;rounded=0;orthogonalLoop=1;jettySize=auto;html=1;entryX=0;entryY=0.5;entryDx=0;entryDy=0;" parent="1" source="xsDj6IwwAKfttmJT4Nek-138" target="xsDj6IwwAKfttmJT4Nek-133" edge="1">
          <mxGeometry relative="1" as="geometry" />
        </mxCell>
        <mxCell id="xsDj6IwwAKfttmJT4Nek-138" value="" style="shape=actor;whiteSpace=wrap;html=1;" parent="1" vertex="1">
          <mxGeometry x="-300" y="270" width="90" height="140" as="geometry" />
        </mxCell>
        <mxCell id="19Tu_cthAzZ1wYiQVMjy-96" value="Techologies" style="swimlane;whiteSpace=wrap;html=1;dashed=1;" parent="1" vertex="1">
          <mxGeometry x="-130" y="-90" width="510" height="239" as="geometry" />
        </mxCell>
        <mxCell id="19Tu_cthAzZ1wYiQVMjy-93" value="" style="shape=image;verticalLabelPosition=bottom;labelBackgroundColor=default;verticalAlign=top;aspect=fixed;imageAspect=0;image=https://upload.wikimedia.org/wikipedia/commons/thumb/8/8e/Nextjs-logo.svg/394px-Nextjs-logo.svg.png;" parent="19Tu_cthAzZ1wYiQVMjy-96" vertex="1">
          <mxGeometry x="10" y="48.58" width="120" height="24.42" as="geometry" />
        </mxCell>
        <mxCell id="19Tu_cthAzZ1wYiQVMjy-94" value="" style="shape=image;verticalLabelPosition=bottom;labelBackgroundColor=default;verticalAlign=top;aspect=fixed;imageAspect=0;image=https://mantine.dev/_next/static/media/mantine-logo-full.37ba3fa3.svg;" parent="19Tu_cthAzZ1wYiQVMjy-96" vertex="1">
          <mxGeometry x="8.16" y="90" width="120" height="31.2" as="geometry" />
        </mxCell>
        <mxCell id="19Tu_cthAzZ1wYiQVMjy-101" value="" style="shape=image;verticalLabelPosition=bottom;labelBackgroundColor=default;verticalAlign=top;aspect=fixed;imageAspect=0;image=https://raw.githubusercontent.com/campusMVP/dotnetCoreLogoPack/master/ASP.NET%20Core/Bitmap%20RGB/Bitmap-MEDIUM_ASP.NET-Core-Logo_Black_Square_RGB.png;clipPath=inset(20.67% 19% 23.33% 18.67%);" parent="19Tu_cthAzZ1wYiQVMjy-96" vertex="1">
          <mxGeometry x="400" y="121.2" width="99.07" height="89" as="geometry" />
        </mxCell>
        <mxCell id="19Tu_cthAzZ1wYiQVMjy-107" value="" style="shape=image;verticalLabelPosition=bottom;labelBackgroundColor=default;verticalAlign=top;aspect=fixed;imageAspect=0;image=data:image/svg+xml,PHN2ZyB4bWxucz0iaHR0cDovL3d3dy53My5vcmcvMjAwMC9zdmciIGZpbGw9Im5vbmUiIHZpZXdCb3g9IjAgMCAzOTAgMjQwIiBoZWlnaHQ9IjI0MCIgd2lkdGg9IjM5MCI+JiN4YTs8ZyBjbGlwLXBhdGg9InVybCgjY2xpcDBfMjgzNV81NzAxKSI+JiN4YTs8cGF0aCBmaWxsPSJibGFjayIgZD0iTTg5Ljc4IDIyNy4zQzk5LjUzIDIyNy4zIDEwNi4xNiAyMjMuNzkgMTEwLjE5IDIyMS4wNlYyMDguNDVDMTA0Ljk5IDIxMi4yMiA5OS4yNyAyMTUuMDggOTAuOTUgMjE1LjA4Qzc2LjY1IDIxNS4wOCA2OS44OSAyMDMuNTEgNjkuODkgMTgwLjg5QzY5Ljg5IDE1Ny42MiA3Ni4zOSAxNDYuNTcgOTEuNzMgMTQ2LjU3Qzk4Ljg4IDE0Ni41NyAxMDUuNTEgMTQ5LjY5IDExMC4xOSAxNTIuNjhWMTQwLjA3QzEwNi4wMyAxMzcuMDggOTkuMjcgMTM0LjM1IDkwLjk1IDEzNC4zNUM2Ni45IDEzNC4zNSA1My45IDE1Mi4wMyA1My45IDE4MC44OUM1My45IDIxMC41MyA2Ny40MiAyMjcuMyA4OS43OCAyMjcuM1oiLz4mI3hhOzxwYXRoIGZpbGw9ImJsYWNrIiBkPSJNMTM2LjA4MSAxMzUuNjVIMTIwLjYxMVYyMjZIMTM2LjA4MVYxMzUuNjVaIi8+JiN4YTs8cGF0aCBmaWxsPSJibGFjayIgZD0iTTE3NS4zMDkgMTU5LjMxQzE1OC4yNzkgMTU5LjMxIDE0Ni40NDkgMTcxLjQgMTQ2LjQ0OSAxOTMuMzdDMTQ2LjQ0OSAyMTUuMjEgMTU4LjI3OSAyMjcuMyAxNzUuMzA5IDIyNy4zQzE5Mi4zMzkgMjI3LjMgMjA0LjE2OSAyMTUuMjEgMjA0LjE2OSAxOTMuMjRDMjA0LjE2OSAxNzEuNCAxOTIuMzM5IDE1OS4zMSAxNzUuMzA5IDE1OS4zMVpNMTc1LjMwOSAyMTUuMDhDMTY2LjcyOSAyMTUuMDggMTYyLjQzOSAyMDguNDUgMTYyLjQzOSAxOTMuMzdDMTYyLjQzOSAxNzguMTYgMTY2LjcyOSAxNzEuNTMgMTc1LjMwOSAxNzEuNTNDMTgzLjg4OSAxNzEuNTMgMTg4LjE3OSAxNzguMTYgMTg4LjE3OSAxOTMuMjRDMTg4LjE3OSAyMDguNDUgMTgzLjg4OSAyMTUuMDggMTc1LjMwOSAyMTUuMDhaIi8+JiN4YTs8cGF0aCBmaWxsPSJibGFjayIgZD0iTTI1MC4zMDcgMjA3LjU0QzI0Ny40NDcgMjExLjA1IDI0Mi44OTcgMjE0LjA0IDIzNy4zMDcgMjE0LjA0QzIzMS44NDcgMjE0LjA0IDIyOS4zNzcgMjExLjcgMjI5LjM3NyAyMDYuNzZWMTYwLjYxSDIxMy45MDdWMjA4LjMyQzIxMy45MDcgMjIxLjMyIDIxOS4xMDcgMjI3LjA0IDIzMS43MTcgMjI3LjA0QzI0MC45NDcgMjI3LjA0IDI0Ni40MDcgMjIzLjY2IDI0OS41MjcgMjIwLjU0SDI1MC4zMDdMMjUwLjY5NyAyMjZIMjY1Ljc3N1YxNjAuNjFIMjUwLjMwN1YyMDcuNTRaIi8+JiN4YTs8cGF0aCBmaWxsPSJibGFjayIgZD0iTTMwMC44OTUgMjI3LjNDMzA4LjE3NSAyMjcuMyAzMTQuMTU1IDIyMy45MiAzMTguMzE1IDIxNy41NUwzMTkuMDk1IDIyNkgzMzMuMzk1VjEzNS42NUgzMTcuOTI1VjE2OC4yOEMzMTQuMDI1IDE2Mi40MyAzMDguMzA1IDE1OS4zMSAzMDEuNTQ1IDE1OS4zMUMyODYuNTk1IDE1OS4zMSAyNzYuMTk1IDE3MS45MiAyNzYuMTk1IDE5My43NkMyNzYuMTk1IDIxNS4zNCAyODYuMzM1IDIyNy4zIDMwMC44OTUgMjI3LjNaTTMwNS40NDUgMTcxLjUzQzMxMy43NjUgMTcxLjUzIDMxNy45MjUgMTc4LjE2IDMxNy45MjUgMTkzLjI0QzMxNy45MjUgMjA4LjQ1IDMxMy41MDUgMjE1LjA4IDMwNC43OTUgMjE1LjA4QzI5Ni4zNDUgMjE1LjA4IDI5Mi4xODUgMjA4LjU4IDI5Mi4xODUgMTkzLjc2QzI5Mi4xODUgMTc4LjI5IDI5Ni42MDUgMTcxLjUzIDMwNS40NDUgMTcxLjUzWiIvPiYjeGE7PHBhdGggZmlsbD0iYmxhY2siIGQ9Ik01MC44NyAxMDVWODkuNjZDNTAuODcgNzguMDkgNDkuNDQgNzQuNzEgNDUuMDIgNjUuMDlMMjEuODggMTQuNjVINS41TDM1LjE0IDc5LjEzVjEwNUg1MC44N1pNNjEuMTQgNTguMzNMODAuMzggMTQuNjVINjQuMzlMNDUuMTUgNTguMzNINjEuMTRaTTIyNS40NiAxMDYuM0MyMzIuNzQgMTA2LjMgMjM4LjcyIDEwMi45MiAyNDIuODggOTYuNTVMMjQzLjY2IDEwNUgyNTcuOTZWMTQuNjVIMjQyLjQ5VjQ3LjI4QzIzOC41OSA0MS40MyAyMzIuODcgMzguMzEgMjI2LjExIDM4LjMxQzIxMS4xNiAzOC4zMSAyMDAuNzYgNTAuOTIgMjAwLjc2IDcyLjc2QzIwMC43NiA5NC4zNCAyMTAuOSAxMDYuMyAyMjUuNDYgMTA2LjNaTTMyMC40OSAxMDAuNThWODcuOTdDMzE1LjY4IDkxLjIyIDMwNy42MiA5NC4wOCAzMDAuMDggOTQuMDhDMjg4Ljc3IDk0LjA4IDI4NC40OCA4OC43NSAyODMuODMgNzcuODNIMzIxLjE0VjY5LjY0QzMyMS4xNCA0Ni44OSAzMTEuMTMgMzguMzEgMjk1LjY2IDM4LjMxQzI3Ni44MSAzOC4zMSAyNjcuODQgNTIuNzQgMjY3Ljg0IDcyLjVDMjY3Ljg0IDk1LjI1IDI3OS4wMiAxMDYuMyAyOTguNzggMTA2LjNDMzA4LjY2IDEwNi4zIDMxNS45NCAxMDMuNyAzMjAuNDkgMTAwLjU4Wk0xMjUuODggNjAuNDFDMTI1Ljg4IDQ0LjU1IDExNy44MiAzOC41NyAxMDEuNDQgMzguNTdDOTEuMyAzOC41NyA4My4xMSA0Mi44NiA3OC40MyA0Ni4yNFY1OS42M0M4My4zNyA1NS42IDkwLjkxIDUwLjkyIDk5LjYyIDUwLjkyQzEwNy4wMyA1MC45MiAxMTAuNDEgNTMuNTIgMTEwLjQxIDYwLjU0VjY0LjdIMTA3Ljk0Qzg0LjI4IDY0LjcgNzMuNzUgNzIuMzcgNzMuNzUgODYuMDJDNzMuNzUgOTguNjMgODEuODEgMTA1LjkxIDkzLjc3IDEwNS45MUMxMDIuODcgMTA1LjkxIDEwNi43NyAxMDIuOTIgMTA5Ljc2IDk5LjhIMTEwLjQxQzExMC41NCAxMDEuNDkgMTExLjA2IDEwMy43IDExMS41OCAxMDVIMTI2LjY2QzEyNi4xNCA5OS42NyAxMjUuODggOTQuMzQgMTI1Ljg4IDg5LjAxVjYwLjQxWk0xNTMuOTYgNTguMDdDMTU2LjgyIDU0LjU2IDE2MS4zNyA1MS41NyAxNjYuOTYgNTEuNTdDMTcyLjQyIDUxLjU3IDE3NC44OSA1My45MSAxNzQuODkgNTguODVWMTA1SDE5MC4zNlY1Ny4yOUMxOTAuMzYgNDQuMjkgMTg1LjE2IDM4LjU3IDE3Mi41NSAzOC41N0MxNjMuMzIgMzguNTcgMTU3Ljg2IDQxLjk1IDE1NC43NCA0NS4wN0gxNTMuOTZMMTUzLjU3IDM5LjYxSDEzOC40OVYxMDVIMTUzLjk2VjU4LjA3Wk0zNjguMDcgMTA1SDM4NS40OUwzNjQuMTcgNzEuMzNMMzgyLjYzIDM5LjYxSDM2Ny4xNkwzNTUuOTggNTkuMzdMMzQzLjUgMzkuNjFIMzI2LjA4TDM0NS44NCA3MC45NEwzMjUuMyAxMDVIMzQxLjAzTDM1NC4xNiA4Mi45TDM2OC4wNyAxMDVaTTIzMC4wMSA1MC41M0MyMzguMzMgNTAuNTMgMjQyLjQ5IDU3LjE2IDI0Mi40OSA3Mi4yNEMyNDIuNDkgODcuNDUgMjM4LjA3IDk0LjA4IDIyOS4zNiA5NC4wOEMyMjAuOTEgOTQuMDggMjE2Ljc1IDg3LjU4IDIxNi43NSA3Mi43NkMyMTYuNzUgNTcuMjkgMjIxLjE3IDUwLjUzIDIzMC4wMSA1MC41M1pNMjk1LjQgNTAuNTNDMzAzLjA3IDUwLjUzIDMwNS40MSA1Ni45IDMwNS40MSA2NS4wOVY2Ni4zOUgyODMuODNDMjg0LjIyIDU1Ljk5IDI4Ny45OSA1MC41MyAyOTUuNCA1MC41M1pNMTEwLjQxIDg5LjRDMTA4LjQ2IDkyLjI2IDEwNC44MiA5NC42IDk5LjM2IDk0LjZDOTIuODYgOTQuNiA4OS42MSA5MC44MyA4OS42MSA4NS4xMUM4OS42MSA3Ny41NyA5NC45NCA3NC45NyAxMDguMiA3NC45N0gxMTAuNDFWODkuNFoiLz4mI3hhOzwvZz4mI3hhOzxkZWZzPiYjeGE7PGNsaXBQYXRoIGlkPSJjbGlwMF8yODM1XzU3MDEiPiYjeGE7PHJlY3QgZmlsbD0id2hpdGUiIGhlaWdodD0iMjQwIiB3aWR0aD0iMzkwIi8+JiN4YTs8L2NsaXBQYXRoPiYjeGE7PC9kZWZzPiYjeGE7PC9zdmc+;" parent="19Tu_cthAzZ1wYiQVMjy-96" vertex="1">
          <mxGeometry x="181.21" y="83.31" width="162.5" height="100" as="geometry" />
        </mxCell>
        <mxCell id="yDjlZjU0aNHBCC8FsVgM-93" value="" style="shape=image;verticalLabelPosition=bottom;labelBackgroundColor=default;verticalAlign=top;aspect=fixed;imageAspect=0;image=data:image/png,iVBORw0KGgoAAAANSUhEUgAAC7AAAAQgCAYAAABlv1FKAAAACXBIWXMAAFiVAABYlQHZbTfTAAAgAElEQVR4nOzd33Hc1tnA4XM8vidTgZgKxFRAelCAmArEVGD6HjNiZnJvugLRFZgpACOqglAViKogUgXnm6OczbdmZIl/Fu8C2OeZ2WFim7vYAxAUxR9e5FJKAgAAAAAAAAAAAACAsX1nhQEAAAAAAAAAAAAAiCBgBwAAAAAAAAAAAAAghIAdAAAAAAAAAAAAAIAQAnYAAAAAAAAAAAAAAEII2AEAAAAAAAAAAAAACCFgBwAAAAAAAAAAAAAghIAdAAAAAAAAAAAAAIAQAnYAAAAAAAAAAAAAAEII2AEAAAAAAAAAAAAACCFgBwAAAAAAAAAAAAAghIAdAAAAAAAAAAAAAIAQAnYAAAAAAAAAAAAAAEII2AEAAAAAAAAAAAAACCFgBwAAAAAAAAAAAAAghIAdAAAAAAAAAAAAAIAQAnYAAAAAAAAAAAAAAEII2AEAAAAAAAAAAAAACCFgBwAAAAAAAAAAAAAghIAdAAAAAAAAAAAAAIAQAnYAAAAAAAAAAAAAAEII2AEAAAAAAAAAAAAACCFgBwAAAAAAAAAAAAAghIAdAAAAAAAAAAAAAIAQAnYAAAAAAAAAAAAAAEII2AEAAAAAAAAAAAAACCFgBwAAAAAAAAAAAAAghIAdAAAAAAAAAAAAAIAQAnYAAAAAAAAAAAAAAEII2AEAAAAAAAAAAAAACCFgBwAAAAAAAAAAAAAghIAdAAAAAAAAAAAAAIAQAnYAAAAAAAAAAAAAAEII2AEAAAAAAAAAAAAACCFgBwAAAAAAAAAAAAAghIAdAAAAAAAAAAAAAIAQAnYAAAAAAAAAAAAAAEII2AEAAAAAAAAAAAAACCFgBwAAAAAAAAAAAAAghIAdAAAAAAAAAAAAAIAQAnYAAAAAAAAAAAAAAEII2AEAAAAAAAAAAAAACCFgBwAAAAAAAAAAAAAghIAdAAAAAAAAAAAAAIAQAnYAAAAAAAAAAAAAAEII2AEAAAAAAAAAAAAACCFgBwAAAAAAAAAAAAAghIAdAAAAAAAAAAAAAIAQAnYAAAAAAAAAAAAAAEII2AEAAAAAAAAAAAAACCFgBwAAAAAAAAAAAAAghIAdAAAAAAAAAAAAAIAQAnYAAAAAAAAAAAAAAEII2AEAAAAAAAAAAAAACCFgBwAAAAAAAAAAAAAghIAdAAAAAAAAAAAAAIAQAnYAAAAAAAAAAAAAAEII2AEAAAAAAAAAAAAACCFgBwAAAAAAAAAAAAAghIAdAAAAAAAAAAAAAIAQAnYAAAAAAAAAAAAAAEII2AEAAAAAAAAAAAAACCFgBwAAAAAAAAAAAAAghIAdAAAAAAAAAAAAAIAQAnYAAAAAAAAAAAAAAEII2AEAAAAAAAAAAAAACCFgBwAAAAAAAAAAAAAghIAdAAAAAAAAAAAAAIAQAnYAAAAAAAAAAAAAAEII2AEAAAAAAAAAAAAACCFgBwAAAAAAAAAAAAAghIAdAAAAAAAAAAAAAIAQAnYAAAAAAAAAAAAAAEII2AEAAAAAAAAAAAAACCFgBwAAAAAAAAAAAAAghIAdAAAAAAAAAAAAAIAQAnYAAAAAAAAAAAAAAEII2AEAAAAAAAAAAAAACCFgBwAAAAAAAAAAAAAghIAdAAAAAAAAAAAAAIAQAnYAAAAAAAAAAAAAAEII2AEAAAAAAAAAAAAACCFgBwAAAAAAAAAAAAAghIAdAAAAAAAAAAAAAIAQAnYAAAAAAAAAAAAAAEII2AEAAAAAAAAAAAAACCFgBwAAAAAAAAAAAAAghIAdAAAAAAAAAAAAAIAQAnYAAAAAAAAAAAAAAEII2AEAAAAAAAAAAAAACCFgBwAAAAAAAAAAAAAghIAdAAAAAAAAAAAAAIAQAnYAAAAAAAAAAAAAAEII2AEAAAAAAAAAAAAACCFgBwAAAAAAAAAAAAAghIAdAAAAAAAAAAAAAIAQAnYAAAAAAAAAAAAAAEII2AEAAAAAAAAAAAAACCFgBwAAAAAAAAAAAAAghIAdAAAAAAAAAAAAAIAQAnYAAAAAAAAAAAAAAEII2AEAAAAAAAAAAAAACCFgBwAAAAAAAAAAAAAghIAdAAAAAAAAAAAAAIAQAnYAAAAAAAAAAAAAAEII2AEAAAAAAAAAAAAACCFgBwAAAAAAAAAAAAAghIAdAAAAAAAAAAAAAIAQAnYAAAAAAAAAAAAAAEII2AEAAAAAAAAAAAAACCFgBwAAAAAAAAAAAAAghIAdAAAAAAAAAAAAAIAQAnYAAAAAAAAAAAAAAEII2AEAAAAAAAAAAAAACCFgBwAAAAAAAAAAAAAghIAdAAAAAAAAAAAAAIAQAnYAAAAAAAAAAAAAAEII2AEAAAAAAAAAAAAACCFgBwAAAAAAAAAAAAAghIAdAAAAAAAAAAAAAIAQAnYAAAAAAAAAAAAAAEII2AEAAAAAAAAAAAAACCFgBwAAAAAAAAAAAAAghIAdAAAAAAAAAAAAAIAQAnYAAAAAAAAAAAAAAEII2AEAAAAAAAAAAAAACCFgBwAAAAAAAAAAAAAghIAdAAAAAAAAAAAAAIAQAnYAAAAAAAAAAAAAAEII2AEAAAAAAAAAAAAACCFgBwAAAAAAAAAAAAAghIAdAAAAAAAAAAAAAIAQAnYAAAAAAAAAAAAAAEII2AEAAAAAAAAAAAAACCFgBwAAAAAAAAAAAAAghIAdAAAAAAAAAAAAAIAQAnYAAAAAAAAAAAAAAEII2AEAAAAAAAAAAAAACCFgBwAAAAAAAAAAAAAghIAdAAAAAAAAAAAAAIAQAnYAAAAAAAAAAAAAAEII2AEAAAAAAAAAAAAACCFgBwAAAAAAAAAAAAAghIAdAAAAAAAAAAAAAIAQAnYAAAAAAAAAAAAAAEII2AEAAAAAAAAAAAAACCFgBwAAAAAAAAAAAAAghIAdAAAAAAAAAAAAAIAQAnYAAAAAAAAAAAAAAEII2AEAAAAAAAAAAAAACCFgBwAAAAAAAAAAAAAghIAdAAAAAAAAAAAAAIAQAnYAAAAAAAAAAAAAAEII2AEAAAAAAAAAAAAACCFgBwAAAAAAAAAAAAAghIAdAAAAAAAAAAAAAIAQAnYAAAAAAAAAAAAAAEII2AEAAAAAAAAAAAAACCFgBwAAAAAAAAAAAAAghIAdAAAAAAAAAAAAAIAQAnYAAAAAAAAAAAAAAEII2AEAAAAAAAAAAAAACCFgBwAAAAAAAAAAAAAghIAdAAAAAAAAAAAAAIAQAnYAAAAAAAAAAAAAAEII2AEAAAAAAAAAAAAACCFgBwAAAAAAAAAAAAAghIAdAAAAAAAAAAAAAIAQAnYAAAAAAAAAAAAAAEII2AEAAAAAAAAAAAAACCFgBwAAAAAAAAAAAAAghIAdAAAAAAAAAAAAAIAQAnYAAAAAAAAAAAAAAEII2AEAAAAAAAAAAAAACCFgBwAAAAAAAAAAAAAghIAdAAAAAAAAAAAAAIAQAnYAAAAAAAAAAAAAAEII2AEAAAAAAAAAAAAACCFgBwAAAAAAAAAAAAAghIAdAAAAAAAAAAAAAIAQAnYAAAAAAAAAAAAAAEII2AEAAAAAAAAAAAAACCFgBwAAAAAAAAAAAAAghIAdAAAAAAAAAAAAAIAQAnYAAAAAAAAAAAAAAEII2AEAAAAAAAAAAAAACCFgBwAAAAAAAAAAAAAghIAdAAAAAAAAAAAAAIAQAnYAAAAAAAAAAAAAAEII2AEAAAAAAAAAAAAACCFgBwAAAAAAAAAAAAAghIAdAAAAAAAAAAAAAIAQAnYAAAAAAAAAAAAAAEII2AEAAAAAAAAAAAAACCFgBwAAAAAAAAAAAAAghIAdAAAAAAAAAAAAAIAQAnYAAAAAAAAAAAAAAEII2AEAAAAAAAAAAAAACCFgBwAAAAAAAAAAAAAghIAdAAAAAAAAAAAAAIAQAnYAAAAAAAAAAAAAAEII2AEAAAAAAAAAAAAACCFgBwAAAAAAAAAAAAAghIAdAAAAAAAAAAAAAIAQAnYAAAAAAAAAAAAAAEII2AEAAAAAAAAAAAAACCFgBwAAAAAAAAAAAAAghIAdAAAAAAAAAAAAAIAQAnYAAAAAAAAAAAAAAEII2AEAAAAAAAAAAAAACCFgBwAAAAAAAAAAAAAghIAdAAAAAAAAAAAAAIAQAnYAAAAAAAAAAAAAAEII2AEAAAAAAAAAAAAACCFgBwAAAAAAAAAAAAAghIAdAAAAAAAAAAAAAIAQAnYAAAAAAAAAAAAAAEII2AEAAAAAAAAAAAAACCFgBwAAAAAAAAAAAAAghIAdAAAAAAAAAAAAAIAQAnYAAAAAAAAAAAAAAEII2AEAAAAAAAAAAAAACCFgBwAAAAAAAAAAAAAgxPeWGQAAAIBtyDmfppQOUkrXKaXbUsqtHQEAAAAAAADLlkspdjEAAAAA4XLONVw/uvO671JKH1dRe3vclFI+2kNsQs75oF048TUuqAAAAAAAABiJCewAAABMVs55jKuufyilXE/8fZ+nlF5t+GnfllKON/ycMIbn7Tl/F7bnnD8fxy1uv2mPj1P/et6GP7gw4Clmc/7IOR+2OH31sT72146rhzzX3X+0urgirY6/teOxHos3G3kTAAAAAAAACydgBwAAAGAuVlH2i9X2tsj40ypqL6Wc2Zu7Iedcw/Tj9jjccLT/JesR/P+81p1jcXX3gGt3EAAAAAAAAPg9ATsAAAAAc7fXguL6ELAvWM65TlQ/SSmdPmaqeoD1YzGt7qaRc16F7derj6J2AAAAAABgVwnYAQAAAIBJyzmvovUXM91Td8P2+p4+1Bi/lHKz3U0DAAAAAACIJWAHAAAAACYp51yj9fOU0rMF7qH6nkxhBwAAAAAAdo6AHQAAAACYlJzzcUrpcqHh+n+VUm4nsikAAAAAAABhBOwAAAAAwCTknPdbuP5iB/bIhwlsAwAAAAAAQDgBOwAAAACwdTnnw5TS1dKnrq8xfR0AAAAAANhJ39ntAAAAAMA25ZxPU0rXOxSvVzcT2AYAAAAAAIBwJrADAAAAAFvT4vXXO7gHPk5gGwAAAAAAAMKZwA4AAAAAbMUOx+vJBHYAAAAAAGBXCdgBAAAAgHA558OU0sUOr7wJ7AAAAAAAwE4SsAMAAAAAoXLO+ymlq5TS3q6ufCnlegKbAQAAAAAAEE7ADgAAAABEO08pPbPqAAAAAAAAu0fADgAAAACEyTkfp5R+3PEVfzuBbQAAAAAAANgKATsAAAAAEOncaqePE9gGAAAAAACArRCwAwAAAAAh2vT1I6udbiawDQAAAAAAAFshYAcAAAAAopxZ6c9MYAcAAAAAAHbW93Y9AAAAADC2nPNBSunFFhf6Q0rpdu1xX4cppf3239b38GwD22ICOwAAAAAAsLME7AAAAACwLGdrwfUmbGpa+EnwKtdg/SqldF0fpZSNTj3POa/C9oP22G+x+30i94cE9AAAAAAAAIsiYAcAAACABSmlTHW6d1TA/i6ldFFKuRzzRb61zm3ifH0cr8Xt9bFXShGwAwAAAAAAO0vADgAAAABEOAp4jZ9KKRdT2JstUr9tE+D/K+e8yen4AAAAAAAAsyNgBwAAAABGlXM+HvklPtVJ5xOePv9fpZSPE9kUAAAAAACArfjOsgMAAAAAIzsc+flP5hCvAwAAAAAAIGAHAAAAAMY3ZsD+91LKtX0IAAAAAAAwDwJ2AAAAAGBsByM9/6eU0oW9BwAAAAAAMB8CdgAAAABgbGMF7JellI/2HgAAAAAAwHwI2AEAAACAsT0b6fkv7TkAAAAAAIB5+d7+AgAAALYh53zwB1OZj+/8/5uU0t0Jyze7PnU553x3ndIX1u62PX6nlHI9/hYuU855P6V0uPbm6v/eb8fozWrdSyn/s+5s3KdSyo1lHccXzjF3z9l3z80f7Y/NyTl/Ps8scU3vHFvrx9X69yzHEwAAAADAggnYAQAAgI1bi9NXce/q48GmJjHnnOuHT2sR5c3qsYR4eC2UPl4L/Dayfm3tVt62j7d3Hjt9kUCLRw/bmh+34/f5Az4/tbW9qg9B+yjErU/UztXHjz3O71o7t7xdOy9f7/r55L7a/jhLKZ20c/3bL1yYNBvtPHq8di49euB61A8f1o6ja1E7AAAAAMAyCNgBAACAR7sTWa8CtUfHj4+wtxbEvVh9es75Q4vdrlrwNotwssV+p209o9bx6M7H9e1JLaC8Xbs4YJHT29tE4OO1Y3lvA0971B4/55x/TSmdR4TsOeeLO1Pin6ru97Oxt/sR3Enggdo5+6Qd5ycbOs6/ZP28/Cr957XfrUXIVwFv95s29LXy5K+PnPNpO/c/KPD+yvPV93TxxKe5LKVcPvB1xzi+nrXHi/T/398v2/a5MAgAAAAAYKZyKcW+AwAAYJJyzmP80PrD1APcnPP5KvjboLellCdPcW3TYU/WovWNTFMf2acWsl9Ocd+34O+0Td2dw3qmDR5P15sKNldKKfk+/93asXy8fvFDgF/GjsFHWNcn7++Rzud/L6Wcj/C8i9MC6ZPgY/1rVufli21O1N7U18p9zzt3Xnu/nfdPv3Lu/1RK2X/Ec9ev1zcP/bw73pVS7hX3t9er7+PlE1/zoeqFQWem+wMAAAAAzM939hksQ98NZ303HNidAADAGOo015xznXT6vk6TbpHaXGLrvba9b2qs2EK7SWgXK9y2NZ3Les5WjdZzzmc555u1Yzk66P2xvn6LV3marYXPc1CPsXqOaefu1xOK19PaeflfUzsvP0a7IOZe2nlode5/9Y1z/1gT8u/j+bfOU/XCiHZ8vdlCvJ7aa97W8/oWXhsAAAAAgCcQsMNy1Cla7/tuOO+7wS/BAQCAjWoTcpcQWB+1kP1qmwHx2gUBr7YcKC5ei3hP26TlVbT+fMvvu77+tYj9yUxd/gNt4vrNPQLpKThau8DoXhO/J+ibAXs7F12089C9z/0PieNHcPIH21QvBPrYLozY9vFV1/HnbX9fBwAAAADgYQTssDz1F2C3fTec2rcAAMCGfVjQgr5oU1vDp/62sPRfM78g4HoC2/BVbcrxZZty/LpFslNSI/araa4ec9WO++uJhMUPddQmsp/Pa7M/+8PwfjUJv52LfnzEc08mYM85n7SLr36e4MVXL1wYBAAAAAAwHwJ2WKb6C6TXfTdc990w61swAwAAk3K7sN2x16b+hl0A3F7rddTr7aJ6UUKdxNumHL+c+IT7ozrJeALbwQKsTV2f2sUaD/Uq53yz5cnjD/XFbW1f30+928Y2g+zPf6+4dmHEbxO/MMLdLQAAAAAAZkLADsv2+RbMfTdc9t0wp1/6AQAA0zT5qduP9DoiYm/T3pcSr0/5WHjTJvHOxfnMQl0mqE34fj3xCzYeoobINWL/w8nmE/O77dzwpPJtrsFeu5PFnC6MeL7gP68AAAAAACyGgB12Q504d9N3w3nfDSYQAQAAj7W0CezrXrfAfBRtGuzVJN4pU1Pj1nN7hcdqgfGrBS7gXpumPYeI/fNFKDOaVP4QU7+TxZc8zzlfTG+zAAAAAABYEbDD7thrv8ysIfuJ/Q4AADzCkgP26qqF5mO4WNBk5FRKMd12s05GPPZYsBbpvlzwW5xLxP6sTcF/P8Kk8tEurlq4H8e8MA0AAAAAgKcRsMPuqdOffuu74brvhrnchhkAAJiAHYiW91povlF1Iu/CAtNPE9iGpanHnovNeZCc82mNdHdg1VYR+9Qv8ljiFPy5M4UdAAAAAGCiBOywu+o0qH/13XDZd4MpbwAAwH29W/hKvWzB+Sadb/ctbdzNwt7PVJzu+gJwf20i+S7FuTViv5rAdmyDARSP97xd6AEAAAAAwMQI2IE6BfC274alBRUAAMA4bndgXTf989HSJmt/nMA2LNHRDCZMMx0XLereJfVr5GwHj8Fd28+bJmAHAAAAAJggATuQ2i/CXvXdUEP2YysCAAB8xS5M397YFPac8/EC40MT2Mdj0jLf1CZKH+3oSp3v4oUeI9wZZJcctTsWAAAAAAAwIQJ2YN2zlNKbvhuu+27wizEAAOBLdiVe3tTU9CVeJGwC+3hcVM5XtXj7YodXaW9H37+/p3saU9gBAAAAACZGwA58SZ3i9b7vhou+G9y+HAAAWHe7I6shYP9jJrCPx5RgvuVkgXd1eKiN3SVjRvz93NNs6ns6AAAAAAAb8r2FBL7ixzqhqO+Gs38M3aWFAgBgIU5zzlOPiie7faWUm5zzQz7lbft4sza5++ZLU7xLKdfpPxOG777/g/Y4bI9nj93+Bziqk45LKU+dNj5mkPzPlNJ1W8/bUspXLy7IOR+uRZAHaxN9V//84J5rawL7eESqfMv5Flbo3drX/XX7uH4Oue+5Y5NOt7QW21LP01cz3v7VMfSxfc/aX/v+eBTw+s/qRQ/f+j4JAAAAAEAcATvwLXWq1+sasaeUash+bcUAAJi5l3bgk9UQ7fnak7xtk9lvV3H6KkZ/jG99bpu8W+PFs5EnER+uxZqPNcb21fU/rRcTPOST7vvft/U9uHPhwMFqnz/0dXmQiJCTmWoX90SE4vUcUwcZXD/gvLHfLr46bufnsafE71rAPjdvW3B/c58/D+ScT9r39DHPgcftuAYAAAAAYAIE7MB91VDhTd8N/2whu4lFAACwuy7aFNXbbcTMbYLqec75om3LWBclHD8lYG8TzzftU92uDUyG/0Ntfb/4M99I72nqPrTj/fm83wYLcDryW6jR8fljLkBq56Sr9jjLOZ+28/NYIXudqH24AxfU1IsJLkopcwivVxc+XD70e1Qp5fOxM/JxI2AHAAAAAJiQ7+wM4IFepJTe991w3neDW5sDAMAOqiFdjc22HQ7WQK6UUmO3X0d6iafG2mP8zHQxZrz+LQuPRT+0Y+mnlNIPpZTcHgellBrK5pTSn9u//zTWRrRJ1vAlJyOuyk+llOOn3D1jXQuuD1oUP5axg/5tetvOQ4cziNfXt/VJ36Paex3rOD8Y6XkBAAAAAHgEATvwWK/qbYD7bljyLwsBAIAZaBH7uxG2dIoh8UbiUv7rbQvS/9xC9dMWYH5xnet0+vrvWwg5xjGXNnDhBAvU7n4w1jTzv7XjeqPaRUZ16vU/R9ru45Ged5t+beejjV1MMKJ3LVzf6La25xrjwrSjEZ4TAAAAAIBHErADT/EspfS674brvhuW+EtDAABgPjYeX040dlvyBPQoNVr/W0rpTy28rMH67UNeu00YPpv1KjA3Y/29yy8BE75P2x0ONu35gu5YsArXTx96PtqCT21i/+GIkf35pFcAAAAAAIAnE7ADm1Cjjjd9N1z23eB2vAAAQLiAAHMSWjjNw9V49u9rk40vn7qWLdwcawo73DXGZP4PEaFw+1ob6w5+c79jwT9nFK6nds47HmNi/7q2Fhs/v+acDeAAAAAAAJgIATuwSS/rNMC+G0xJAgAAtuHtpl9zQdN9d9XnaeullINSyvkIgaiJ+EQZY2DAky/kuK92wccYU9jnGiTXc9MPpZSTmYTrqW1zjdejzntjTXcHAAAAAGACBOzApu2llF713XDbd8OJ1QUAAAKNEQFOarqvoP7efm1x6PHI0/nnEp4yf0cjvIPoO1eMMbV7bufEGvH/tZ2b5hZoXwffBcQdRwAAAAAAFkzADozlWUrpt74brvtumPvtnAEAgHnYhZjYz1ff9udSyukM41CI9G4Lk7/H+JqcyznxU0rpp3Y3iKsJbM8cuEAIAAAAAGDBBOzA2OqEsH/13XDZd4NJgQAAAE9zYP2+bgtRLowq53w8wvPfRO+1Ukr4a07EL/XcXUoZYwL9kjmXAwAAAAAsmIAdiPKy/uKp74YzKw4AAPBofqYCNmFbcfC7DT/flCewv00p/aWUclZK+TiB7QEAAAAAgMkQsAOR9lJKP/fdUEP2MaaHAQAATMkY04af55wvc87ucAXM0aZD7r0JrsGnlNLfSinHOzx1HgAAAAAAvkrADmzDs5TSm74brvtucPt7AABgkUacuFvvcHWTcz4VsgOPdG3hRnNQSrlc6HsDAAAAAICNELAD23SUUnrfd8N53w2iCwAAYIk+jfSe6oXBr1NK/845X7WY3QXCAFs24sVLAAAAAACwGAJ2YApepZRu+244tTcAAICFuQl4Oy9azP4+51wns1/knE9MZwcAAAAAAACmSMAOTMVeDS76brjpu+HYXgEAABYiImBf9zyl9GNK6bc2nV3QDgAAAAAAAEyKgB2YmhpbvOm74arvBre/BwAA5u56y9t/N2i/zjmf5ZwP57+0AAAAAAAAwBx9b68BE1VvgX/cd8NFSuniH0P30Y4CAGBD3qWUpv7ny3ox57MJbAdPVEq5yjl/anedmoKj9kg55w8tsL+q22lfAwAAAAAAABEE7MCU1cDjVUrptO+G838M3aW9BQDABpyVUrY9Ffurcs7n7c/Ci5RzPmiR/qZN9S5ONQ5/OYHtuOtZ266XLbKv23k59a8PAAAAAAAAYN4E7MAc1Kjidd8NpymlGrKLKQAAYMJyzvsppcN6V6X2cX819XtHnU80YF+3txaz18nsFy1mdzcsAAAAAAAAYKO+s5zAjNTg5U3fDZd9N+zbcQAAMB01Ws85n+Wc6wWn/65/dm9T5F/seLyeSim3KaVfJrAp91UvIv45pXRb7wbQLkgAAAAAAAAA2AgBOzBHdSrgbd8N5/YeAABsV875IOd82aL1n3c9Vv+K+vPLu8lu3ZfttYsQbnLOJ1PcQAAAAAAAAGB+BOzAXH0OKfpuqCG7kAIAALagTlyvcXO7yJSvKKV8TCkdzzBiT20i+28554sJbAsAAAAAAAAwcwJ2YO4+hxR9N1z33XBgbwIAwPhyzvs556s2cX3Pkt/PzCP26sc2bR8AAAAAAADg0QTswFIcpZTe991w0XfDvr0KAADjqPF6Suk6pfTCEj9cjdhLKYcppV/mtu3NS5PYAQAAAClzHfEAACAASURBVAAAgKcQsANL82NK6bbvhjN7FgAARlEncD+3tE9TSqk/s/wlpfR2hptfJ7EfT2A7AAAAAAAAgBkSsANLtJdS+rnvhhqyiyoAAGBDcs5nJq9vTinlppRSf2b5IaX068w2/3wC2wAAAAAAAADMkIAdWLJnKaU3fTdc9d1wYE8DAMDj5ZwPRMvjKKVcl1JOU0p/Tin9lFJ6N4PNPso5H05gOwAAAAAAAICZEbADu6BOiHzfd8N53w379jgAADzKebvbESMppdyWUi5KKYdrMfvbCa/36QS2AQAAAAAAAJgZATuwS16llG77bhBZAADAA+Sc64WgL61ZnLWY/Til9KeU0l9TSr9MbDr78QS2AQAAAAAA/o+9ezuO48jWBrpLwXfQA2IsIMYCQpEGkGMBIQuIea8IQhH1LsgCghYIMiCDgAVqWcCmBT9oQf2ROtkzPRAvuPSlLmtFdGCkcwQUdha6uiq/3AnAyAiwA3NTOka+a1NetCkLWwAAwN28Uqf96fv+pu/7y77vT2t39qEE2p/vuzYAAAAAAADA+AiwA3NVghYf2pQv2pQPnQUAAPBNAuwD8o1A+/uI+LzLI22axsJgAAAAAAAA4F4E2IG5ex0RpRv7WZvy07kXAwAAvuKlwgzXWqD9pO/7p2thdpg6CygAAAAAAABG6IlBA4iDiHgbESclyN7ldKEkAADwf7bcYbt0C7+MiGVEXG3g+53URaqzVsLspa5N05xFxNmWa3K8obEDAAAAAAAAZkKAHeC/nkXEuzblEno57XJaqA0AAMTRlkrw777vzzf5Dbccth+dvu/LwoCTpmku6kKBg7nXhMnZ1vsTAAAAAAAAW/SD4gL8zYuI+KNN+aJN+anyAAAwc9v4TPzTpsPrfF3f91e1U/pnZWJiBNgfzoIfAAAAAABgbwTYAb6ubLO/bFM+UyMAAGZs0wHRP/u+v3BC7Vbf92WHKfc2TM2zpmkOjeqoaBQAAAAAAAAIsAN8R9li/22bcgmy604GAMAcbTpseOks2hsLB9inbe0A8MqoPsi+gv/PN/z9rjf8/QAAAAAAgB0QYAe4m2cR8aFN+apNWXc3AAB4uCu124++729KB/w5/u4MwmJLB3E6g+HdRu02vbvGdzVNs/OfyahpJAEAAAAAMGEC7AD38yIiPrYpn7cp2/YaAAAYmxsjxp5s69x71jTNyZQHtS4+2bTnTdPs+rnGNgLJyy18TwAAAAAAYMsE2AEe5k2ZJG1TnkOnNwAAAHisbXVgL86bppn6bmnb2D1h18H/bfw8AfbpsgMiAAAAAMCECbADPNxBRPzSprxoU7atMQAAAHzd1RZrU+7PL/fQUXyXthHU3tmi/KZpynOT51v41ts8r9gvHfsBAAAAACZMgB3g8coE7Ic25cs2Zd2hAACAIZtywJdh22YH9qj35oumaY4meh5sI6j9rGmasy183/9RFxacb+nbb/u8Yg/q3/GzTf/kvu8F2AEAAAAABkKAHWBzXkbExzblszZloRAAAPgyiz73axsdkOG7+r6/iYg/t1ypEnj9o2ma8yF1Yy9h3KZpXpWweNM0pVP8Q8Lo2+o0/rZpmpMtfe+V8y2993yq5xXTs42FFZ+cJwAAAAAAwyHADrB5b8uWxG3K254ABgCAMTre4jEPMhzfNM3hEMK0JUC772Ng9rYVwr7tTUT8v6ZpLmpwfKt/f+X7N01zvBZSLwH6q6Zplk3T9CVUHxG/1ecFZfH7i/seU9/3pdP45y39Cu+2EWKvdbmIiNeb/t7V5Za+L3tUz8WXWzgC3dcBAAAAAAbkicEA2IqDMgFcQ+xnXU67mqQHAIBNK4GvFxv8nn+FSTfZNbeG3c5q9+UhKsf2ummaP2uA96/XHjoHn27hey628D2ZrosaLt+V16vwdP37W9T3tOU9w6xHEbEKnB+uLZY5qvf/D3H0gED/5RbD4O/qIpfTvu8fHfTd0fuyZy27VRZplOvIou/7rdS+njfvtvRbOV8AAAAAAAZEgB1gu0rQ50Ob8vsaZNftCQCAsdn0Z9iDGmJ9VDfwpmlK+POkvh4aIN2VVdj1eX29qb/DpxqoXdRg3XITwdHbaqfn8w0vRFjZdQifEStdxGuQ/Pkefovne/q5X/OQHSO2GWCP2vX6ZdM0v9efdXWf96T6vvyqvi9ve0HR577vdWDfrRer60jTNOXLp/oZ4apeCxYPvY6tFk9s6Tq1YsEVAAAAAMCACLAD7EaZYH7VplxCI+ddTkIeAACMxTYCXyUgeVU7/d7p+9cQ9nF9vRpwt/Uv+Vog71l9ldDo2/hvKPDPGgZcdYtdfb25R70Oa4fn4y2H/AUCua/zLXZYHpN7B9hLYLsufNn2+9/L+irvJZ/r3/nNV/7ej+vXbQaPv+Rixz+Pv1tdw/5n7Ot1rLhe+9df6n6+2s1gV+eODuwAAAAAAAMiwA6wOwc1lHLSpnza5aRTGAAAY7CtgHIJrP1RuzEvvtLp/WkNYR+OLLD+H7Uj8X2tukSvQn1v177fXn6Pr/jU973FudxL3/cXTdOcjfVveoMe0oE9anD77R3+/zblYO296OUuC/Qd5wM6Fr5sPZi+6wUOt/3pegUAAAAAMCwC7AC7Vybpf2tTLp2oSpBdx0IAAAar7/tl7cC7rQ7ez9cC21P0kAD7WLiX4aHOdGF/cIC9BLdPt/iePAbvy7Vpxr8/96djPwAAAADAwPxgQAD25q+Ok23KF23KTw0DAAADZvegh5tygN15wYOULuwRcT3z6j3ovaF2kT7b/OGMxueZ//48jAA7AAAAAMDACLAD7N/riFi2KZ8aCwAABkpQ+eEE2OHLTmoYea4e3EG97/vShf3PmdbtXPd17ul9XfgBAAAAAMCACLADDEOZuP6lTbkE2Y+NCQAAQ9L3/eXMg6aPMdUA++8CgTxGDSHPeiF30zSPeX842eChjMWffd/rvs59OWcAAAAAAAZIgB1gWJ5FxIc25as25UNjAwDAgJwbjPtpmubwMV2WB875wKP1fX8REb/OuJJPH/of9n2/iIifNns4g1YWUb2a0e/LZrzXsR8AAAAAYJgE2AGG6UVEfGxTPm9TfvCENgAAbNC5Luz3NtXu69d9318N4DiYgL7vSxf29zMdy0ftwFYXAMyldseCyNzT57nv8gAAAAAAMGQC7ADD9iYilm3Kc9waHACAAen7/kbX7XubYoC9BALdn7BRfd+fzDjE/igzqd1PteM83MdJ/ewCAAAAAMAACbADDN9BRLxrU160KT+qOxsAADxG3/dnEfGnIt7ZFD+/n+qCzDbUIPZPMyvuRt4jJhxiLwtmfqyd5uE+fu37/lLFAAAAAACGS4AdYDyeR8SHNuXLNuVD4wYAwJ6c1FDhkA3l+Kb2uf1nQVK2qZ5f/4yITzMp9NNNfaMJLgAo58Bx3/dXAzgWxuV93/enxgwAAAAAYNgE2AHG52VEfGxTPmtT3thkNwAA3EXf94saYh+izzVkvffPyU3TlGN4NsgqPcy/awd+2Kr6HnNU/pZnUOnnm/xmawsAxr5Txq/lHKjnAtzH+7qYAwAAAACAgRNgBxivtxGxaFM2MQcAwE71fX9ZO/0OpdP55xp2PVwLWf++52M62vPP35RS23/1fX8+jV+HMej7/qb+Lf+jBFKnPGh1scvGlNB33/erBQBD3y3jthK8/7F0zy7nwLAOjYEr5/pPwusAAAAAAOMhwA4wbqWj47s25as25WNjCQDArtROv+Uz6Kc9Fv3TenD9VuDxao/HVepzVTsh/zribsjva20vB3AszFDf98saSF0F2ccWyL6LrSx2qQsADkcSZP9Uw8dH9b0T7uO6duy/UDUAAAAAgPEQYAeYhhcR8aFN+aJN+dCYAgCwC6XTbw1f/rrjgv9eu4J/Kbi+svfQde2EfFq7If+jdq1/v+fQ//d8rsf4jxIc1gWZIVgLsh/Wv6N977DwGNf1PfNf9e9sa4HttU72q7oNbTHN+9px/VD4mAe4rufPcXmPUEAAAAAAgHF5YrwAJuV1RLxqUz7vcjoztADABFxv4VcYQyB3uYXffbHh7/eXGnA+bZrmPCLKZ9BXEXGw4R/zuXZUL6H0y7uEqkuYrWmaEnJ9+sifvZHzpYbrLuormqZ5WsP/x/XrUd1haR/uXd8N2sp5uUPb+FvdRP03XddBjFM9N//6O6p/Q8drr+cDOMR1n+r5cVW/Luqin527VbfD+j79qi6G33VNrlbvNwNZIDP296Bdel/P5cP62vX5E/V6Va5VF7r1AwAAAACMW9P3vSGECWhTvtrTxBHDVSaGT7ucbPcPAMDO1FDpq7VQ6UNC2derwGcJOu4r9LkPTdMcr4UDj2oA/2iDiwI+17ouVuHaOdWX6VpbFLJ6rf6OtrUwZBVQv1kLQZdnMzdj+puq7znrNdvUs6XbAf4rXbJ3p47rhw3/wJ9rR///qAsi1q9Xx/X/tqnr1uqadVXPIaF1AAAAAICJEGCHiRBg5xuua5BdKAUAgJ1bC5XGWrBt3Xr4czGQjryDdKuWsRYY/JrFWjfvUYVqYZMe8Lezcjssu5xLCLtpmvUa3ee9ZjY1GrJdBdjvoh7Lui99FlhZ1lcIqwMAAAAATJsAO0yEADt38GtEnHU5CQQBAAAATNSQAuwAAAAAAPAlP6gKwGy8KV2s2pRPDTkAAAAAAAAAAACwDwLsAPNyEBG/tCmXIPu3tmwGAAAAAAAAAAAA2DgBdoB5ela2km5TvmpTPnQOAAAAAAAAAAAAALsgwA4wby8i4mOb8lmb8tO5FwMAAAAAAAAAAADYLgF2AIq3EbFsUz5RDQAAAAAAAAAAAGBbBNgBWDmIiHdtyos25WNVAQAAAAAAAAAAADZNgB2A255HxIc25cs25UPVAQAAAAAAAAAAADZFgB2Ar3kZEaUb+1mb8lNVAgAAAAAAAAAAAB5LgB2AbzmIiLc1yK4bOwAAAAAAAAAAAPAoAuwA3MWziBBgBwAAAAAAAAAAAB5FgB0AAAAAAAAAAAAAgJ0QYAcAAAAAAAAAAAAAYCcE2AEAAAAAAAAAAAAA2AkBdgAAAAAAAAAAAAAAdkKAHQAAAAAAAAAAAACAnRBgBwAAAAAAAAAAAABgJwTYAQAAAAAAAAAAAADYCQF2AAAAAAAAAAAAAAB2QoAdgJ1oU35aXqoNzFmb8qETAAAAAAAAAACAORNgB2BXjiJi2aZ8ouLA3LQpH7cpX0WE90AAAAAAAAAAAGbtydwLAMBOHUTEuxpiP+tyulJ+YMpqx/WziHhdf03vewAAAAAAAAAAzJoO7ADsw4uI+NCmfFHDnQCT06ZcguuLtfA6AAAAAAAAAADMngA7APtUQp2LGvIEmIQ25VdtysuIeFt3ngAAAAAAAAAAAKonCgHAnpVw59s25ZOIOO1yujQgwBi1KR9FxHndZQIAAAAAAAAAAPgCAXYAhuJZRPzWpnxdg+wLIwOMQZvy04goO0m8MWAAAAAAAAAAAPBtP6gPAANTOhf/0aZ8UUOhAIPVpnwaEUvhdQAAAAAAAAAAuBsBdgCG6nUJhdZwKMCgtCkftymX4PovEXFgdAAAAAAAAAAA4G6eqBMAA1ZCob/UEPtJl9OVwQL2qU35MCIu6m4RAAAAAAAAAADAPQmwAzAGzyLiQ5vydQ2yL40asEttyk8joiymeavwAADADHwqO+NFxKJ+vTToAAAAAABsigA7AGNSOh5/bFP+NSLOupxujB6wbW3KJxFxXneFAAAAmIrPawH18io73930fb8wwgAAAAAAbJMAOwBj9KZ0Ym9TPu1yujCCwDa0KR/X4PpzBQYAAEas7Gh3sx5W7/v+yoACAAAAALAvAuwAjFXphPyuhNgjogTZTbwCG9GmfFiD6y9VFAAAGKESVP+xfO373u51AAAAAAAMjgA7AGNXOiN/aFP+vQbZl0YUeIg25aflfaS+DhQRAAAYoxpat9AfAAAAAIDB+sHQADARpVPyok35rIZQAe6sTfmkdil8K7wOAAAAAAAAAADbI8AOwJQc1PDpooZRAb6pTfm4Tbl0JnwXEc9UCwAAAAAAAAAAtuuJ+gIwQSWE+q6G2M+6nGybDfyPulPDeUS8VhkAAAAAAAAAANgdHdgBmLIXEfGhTfmihlUBSnj9LCKWwusAAAAAAAAAALB7AuwAzEEJqS5raBWYqTblV23KJbj+NiIOnAcAAAAAAAAAALB7T9QcgJkoYdW3bconEXHa5XRp4GEe2pQPI+Ki7soAAAAAAAAAAADskQA7AHPzLCJ+a1O+rkH2hTMApqlN+WlElJ0X3hhiAAAAAAAAAAAYhh+MAwAzVTox/9GmfF5DrsCEtCmfRsRSeB0AAAAAAAAAAIZFgB2AuSvh1mUNuwIj16Z83KZcguu/RMSB8QQAAAAAAAAAgGF5YjwA4K+Q6y81xH7S5XSlJDAubcqHEXEeES8NHQAAAAAAAAAADJcAOwD817OI+NCmfF2D7Eu1gWFrU34aEWXxyVtDBQAAAAAAAAAAw/eDMQKAv3kRER/blM9qOBYYoDblk4hYCq8DAAAAAAAAAMB4CLADwNeVUOyyhmSBgWhTPm5TXkTEu4g4MC4AAAAAAAAAADAeT4wVAHxTCce+a1M+jYjTLqcr5YL9aFM+jIiziHhtCAAAAAAAAAAAYJwE2AHgbp5HxIc25fclQNvltFQ32I025adlAUl96bgOAAAAAAAAAAAj9oPBA4B7KZ2fF23KZzVUC2xRm/Kr8jcXEW+F1wEAAAAAAAAAYPwE2AHg/g5qmLYE2U/UDzavTfmoTfkqIn6LiGdKDAAAAAAAAAAA0/DEOALAg5VQ7bsaYj/tclooJTxO3dngvO52AAAAAAAAAAAATIwO7ADweC8i4o825YsavgUeoE35LCKWwusAAAAAAAAAADBdAuwAsDkldLusIVzgjtqUj9uUS3D9bUQcqBsAAAAAAAAAAEzXE2MLABtVwrdv25RPIuK0y+lSeeHL2pQPI+Ki7mIAAAAAAAAAAADMgAA7AGzHs4j4rU35OiJOupyW6gz/p035aUSUnQreKAkAAAAAAAAAAMzLD8YbALaqdJb+2KZ8XkO7MGttyqcRsRReBwAAAAAAAACAeRJgB4DdKGHdZQ3vwuy0KR+3KS8i4peIOHAGAAAAAAAAAADAPD0x7gCwMyW0+0ub8klEnHY5XSk9U9emfBgR5xHx0mADAAAAwHQ1TVN2IT2qv+Dx2i96fOuXPnpEk4vrL/y79Wfty/r663/3fb/8wv8/AAAAsGcC7ACwe88j4kOb8u81yO4BOpPTplwmq8qOA2+NLgAAAABMR9M0JZB+WF/lfz+tz7134cUXfsaX/t1fmqYpXz5HxKL+q6u1rzd93y++9t8CAAAA2yPADgD7UzpSv2xT/rl0qO5yujEWTEHdZeAsIp4ZUAAAAAAYr6ZpjmpI/ai+dhVU36SDtZD76utfjTdqwP1T7dq+WPu66PveM3sAAADYEgF2ANi/8qD8tE25dGO/MB6MVZvycQ2uf7XjEQAAAAAwXE3TlK7qr2po/biGv6fuWX39z3PNpmk+rcLstWO7UDsAAABsiAA7AAxDmQR4t+pc3eV0ZVwYizblwxpcf23QAAAAAGBcapf1kxpct6vif62C7S/XOrZ/Wgu0X/V9vxjIsQIAAMCoCLADwLCUDi8f2pTf1yD70vgwZG3KJbh+OpNOTAAAAAAwCbXT+kl9Ca3f3XqovdSxfLleC7RrTgMAAAB3IMAOAMNUOlm/alM+j4jzLifbkjIobcqlG9O5yS0AAAAAGI+maVah9ReGbWNe1Nfbpmk+r8LsEXHR971n+wAAAPAFPygKAAzWQd2WdFHDwrB3bcpHbcpl8uU34XUAAAAAGL6maZ42TXPaNE3Z8fOd8PpWHdTu7L9M+HcEAACAR9OBHQCGr4SEf2tTLtuQnnY5LYwZu9am/LR2XH+t+AAAAAAwfCW4Xp4p19eBIdst3dcBAADg63RgB4DxKF1x/mhTvqhhYtiJNuUywbUUXgcAAACAcSgd1+szvbfC63txPcPfGQAAAO5MgB0AxqeEiJdtymfGjm1qUz5uU17W7W5NcgEAAADAwDVNc9w0jWd6+6f7OgAAAHzDE8UBgFEqEw9v25RPIuKky+nKMLIpbcqHEXFRu/4DAAAAAAPXNE3ZtfPcLoqDsZh7AQAAAOBbBNgBYNyeRcSHNuXrGmRfGk8eqk25THKVzv5vFBEAAAAAxqF0XY+ISx3XB0UHdgAAAPiGHxQHACahdMr+2KZ8XkPIcC+1m/9SeB0AAAAAxqNpmtJ1/YPw+uDowA4AAADfIMAOANNSwsfLGkaG72pTPm5TLpMp70xyAQAAAMA4NE3ztGmahYYUg2W3VAAAAPiGJ4oDAJNTQsjv2pRPI+K0y+nKEHNbm/JhRJTuTC8VBwAAAADGo2mao4i40pBiuPq+F2AHAACAbxBgB4Dpel62jm1T/r0G2T0wpwTXn5bzob5McAEAAADAiDRNcxwRl57tDdqfcy8AAAAAfM8PKgQAk1c6bH9sUz6r4WVmqk35JCLKtsJvTXABAAAAwLg0TVOe733wbG/wbuZeAAAAAPgeAXYAmI8SWl7UEDMz0qZ83KZcthR+FxHPjD0AAAAAjEsNr78zbKNwNfcCAAAAwPc8USEAmJUSXn5XQ+xnXU4epE9Y7bh/HhGv514LYLyapnGtgnE77ft+YQwBAODhhNcBAACAqRFgB4B5elG2mm1Tfl+D7EvnwbS0KZ+VwJjthIEJeGEQYdSeGj4AAHi4pmmOapMKxsNifAAAAPiOHxQIAGatdOZe1LAzE9Cm/KpNuSxIeCu8DgAAAADj1TTNYQ1De843LjdzLwAAAAB8jw7sAECZ/Hjbply2oT3tcrqcfUVGqE151YlJp2IAAAAAGLmmacpuRpfC6+PT9/1i7jUAAACA7xFgBwBWnkXEb23K1zXI7iH7CLQpl4ms0kH/zdxrAQAAAAATUppVPDego/Np7gUAAACAu/hBlQCAW0oH7z/alM9rOJqBalM+jYil8DoAAAAATEfTNGW3zNeGdJSWcy8AAAAA3IUAOwDwNSUUvawhaQakTfm4TblMhPxiC2EAAAAAmI6maQ5r93XGyc6mAAAAcAdPFAkA+IYSjv6lhthPupyuFGt/2pRXk1cv51oDAAAAAJi4C00rRu1m7gUAAACAuxBgBwDu4llEfGhTvq5Bdtug7lCb8tOIKIsI3s7mlwYAAACAmWma5iQiXhj3UdMEBgAAAO7gB0UCAO6hTJ58bFM+q6FqtqxNuUxaLYXXAQAAAGC6mqZ5WndfBAAAAJg8AXYA4CFKmHpZw9VsQZvycZvyIiLe2TIYAAAAACbvzHPA8ev7Xgd2AAAAuIMnigQAPFCZTHnXpnwaEaddTh7Mb0Cb8mGdrHo9+l8GAAAAAPiupmnKM8E3KjV6n+deAAAAALgrAXYA4LGeR8SHNuXfa5B9qaL316Zctgg+rS+dlgAAAABgPs6M9SQs5l4AAAAAuKsfVAoA2JCX5QF9m/JZDWNzR23KJ3Vy463wOgAAAADMR+2+bjfGadDcBQAAAO5IgB0A2KSDGsJe1FA239CmfNSmfBUR7yLimVoBAAAAwOzovj4dAuwAAABwR08UCgDYghLGfldD7GddTleK/F+1Q/25zkoAAAAAMF+6r0/OYu4FAAAAgLvSgR0A2KYXEfGhTfmihrZnr035rHbiMTEFAAAAAPNmF8tpuZl7AQAAAOCuBNgBgF0oYe1lDW/PUpvyqzblElx/GxEHzjoAAAAAmD0B9mnRgR0AAADu6IlCAQA7UkLbb9uUy6TMaZfT5RwK36ZctgG+qN3oAQAAAACiaZpXEfFMJaaj73sd2AEAAOCOBNgBgF0rkzK/tSlflw5DXU7LKY5Am/LTiCgd598M4HAAAAAAgGHRfX1arudeAAAAALiPH1QLANiT0pH8Y5vyeQ17T0ab8mlELIXXAQAAAIDbmqYpz0NfKsyk6L4OAAAA9yDADtNxqrsDMFIl5L2soe9Ra1M+blNeRMQvEXHghAQAAAAAvuCVokzOYu4FAAAAgPsQYIeJ6HJadDkdR8S/IuKTcQVGpoS9f2lTLkH247EdfJvyYZvyZUR8iIjnAzgkAAAAAGC4BNinZzn3AgAAAMB9CLDDxHQ5XXY5HUbEzxHx2fgCI/OshMBLGLyEwod+6G3KT9uUzyLioy1/AQAAAIA78ixxegTYAQAA4B4E2GGiupxKoPIoIt4bY2CEygTOxxIOLyHxIR5+m/JJnZR4O4DDAQAAAABGoGka3denSYAdAAAA7kGAHSasy2nZ5VQClj9GxLWxBkaohMOXNSw+CG3Kx23KVxHxLiIOnFQAAAAAwD0cK9b09H0vwA4AAAD3IMAOM9DldNXlVB6I/hQRn4w5MDIlJP6uTXlRwuP7OvQ25cM25YuI+BARL5xEAAAAAMAD6MA+PX/OvQAAAABwXwLsMCNdTiV4eRQRPxt3YISel/B4CZGXMPmuDr9N+Wmb8llELCLitRMHAAAAAHiIpmmeRsQzxZucm7kXAAAAAO5LgB1mpsvppsupBDH/ERG/G39ghEqIvHRjPyvh8m0efpvyqxpcf1s7wQMAAAAAPNTedphkq66UFwAAAO7niXrBPHU5Lcs2lW3K5WHpee1sDDAWBzVUftKmfNrldLnJ425TPqrvjS+cEQAAAADAhgiwP8yfD+hyfrTDpiQ6sAMAAMA9CbDDzHU5la4QR23KJzWsqcMwMCZlu93f2pSvI6IE2RePOfba0f28dnkHAAAAANikI9X8puu6I2Z5Lfu+30hn86Zpnq7V/rC+1v/dYxuZPOq5NAAAAMyRADvwly6nizbl0sH4LCLeqAowMmWC4Y8yF/HIwz4VXgcAAAAAtsSOj3/3e0SU+anLvu+30sm8ft/vhuGbpjleC7avgu53nRR/1wAAIABJREFUGbPlZo4UAAAA5kOAHfiPLqfyAO+0Tbl0H77wIBUAAAAAAODxmqbRff2/PtedMC/6vh9M+Hut4/vl+r9vmmYVZj+u4fajujvo6r8TYAcAAIB7EmAH/qbLqTxoO25TPq5B9meqBAAAAAAA8GCHSveX0nH9dEyh73qsy/Uu7k3TrDq1H+/36AAAAGCcfjBuwNd0OV11OZUHqj/XbhgAAAAAAADcnw7sEf/u+/7VFDqW931/Uzq2931/NoDDAQAAgNERYAe+q8vprHYGea9aAAAAAAAA9zb3APtPfd+fD+A4AAAAgAEQYAfupMvppsvpJCL+GRHXqgYAAAAAAHBnT2dcqhJevxjAcQAAAAADIcAO3EuX06LL6Tgi/hURn1QPAAAAAADgu17MtES/Cq8DAAAAtwmwAw/S5XRZt7v8OSI+qyIAAAAAAABrSiOkMwUBAAAAbhNgBx6sy+mmy+msBtnfqyQAAAAAAMD/aprmaKYlOev7/mYAxwEAAAAMjAA78GhdTssup5OI+DEirlUUAAAAAADgP57OsBSf+r6/GMBxAAAAAAMkwA5sTJfTVZfTcUT8FBGfVRYAAAAAACAOZ1iC8wEcAwAAADBQAuzAxnU5XdSHsT+rLgAAAAAAMHNzDLBfDuAYAAAAgIESYAe2osvppsvpLCL+ERG/qzIAAAAAAMAs/Nn3/dJQAwAAAF8jwA5sVZfTssvpVUT8GBGfVBsAAAAAAJiZpzP7fa8GcAwAAADAgAmwAzvR5XTV5VS2yPx3RHxWdQAAAAAAYCaOZjbQAuwAAADANwmwAzvV5XQeESXI/qvKAwAAAAAATM7CkAIAAADfIsAO7FyX002X02lE/CMiro0AAAAAAADANPR9vzSUAAAAwLcIsAN70+W07HI6joh/RcQnIwEAAAAAADBqfxo+AAAA4HsE2IG963K67HI6jIifI+KzEQEAAAAAABilG8MGAAAAfI8AOzAYXU5nEVGC7O+NCgAAAAAAMBFHMxrI5QCOAQAAABg4AXZgULqcbrqcTiLinxFxbXQAAAAAAICRO5jRAAqwAwAAAN8lwA4MUpfTosvpOCJ+iohPRgkAAAAAAAAAAABg/ATYgUHrcrqoW2v+HBGfjRYAAAAAAAAAAADAeD0xdsDQdTndRMRZm3IJs59HxEuDBgAwGz8a6p34MIPf8bZ/R8RiWIc0SWoMAAAAAAAA/A8BdmA0upyWEfGqTfm4BtmfGz0AgGnr+/7KEG9f0zRT/xW/ZOH8AgAAAAAAANi9H9QcGJsup6sup6OI+CkiPhtAAAAAAACAQVgaBgAAAOB7BNiB0epyuoiIw4j42SgCAAAAAADsnQA7AAAA8F0C7MCodTnddDmdRcQ/IuLaaAIAAAAAAAAAAAAMlwA7MAldTssup+OI+DEiPhlVAAAAAAAAAAAAgOERYAcmpcvpqsvpMCL+HRGfjS4AAAAAAAAAAADAcAiwA5PU5XQeESXI/qsRBgAAAAAAAAAAABgGAXZgsrqcbrqcTiPinxFxbaQBAAAAAAAAAAAA9kuAHZi8LqdFl9NxRPwrIj4ZcQAAAAAAAAAAAID9EGAHZqPL6bLL6TAifo6Iz0YeAAAAAAAAAAAAYLcE2IHZ6XI6i4ijiHhv9AEAAAAAAAAAAAB2R4AdmKUup2WX00lE/BgR184CAAAAAAAAAAAAgO0TYAdmrcvpqsvpOCJ+iohPc68HAAAAAAAAAAAAwDYJsAP8X5D9IiKOIuJn9QAAAAAAAAAAAADYDgF2gKrL6abL6Swi/hERv6sLAAAAAAAAAAAAwGYJsAPc0uW07HJ6FRE/RsSf6gMAAAAAAAAAAACwGQLsAF/R5XTV5XQUET9FxGd1AgAAAAAAAAAAAHgcAXaA7+hyuoiIw4j4Va0AAAAAAAAAAAAAHk6AHeAOupxuupxOI+IfEXGtZgAAAAAAAAAAAAD3J8AOcA9dTssup+OI+DEiPqkdAAAAAAAAAAAAwN0JsAM8QJfTVZfTYUT8HBGf1RAAAAAAAAAAAADg+wTYAR6hy+ksIkqQ/b06AgAAAAAAAAAAAHybADvAI3U53XQ5nUTEPyPiWj0BAAAAAAAAAAAAvkyAHWBDupwWXU7HEfGviPikrgAAAAAAAAAAAAD/S4AdYMO6nC4j4igifo6Iz+oLAAAAAAAAAAAA8H8E2AG2oMvppsvprAbZ36sxAAAAAAAAAAAAgAA7wFZ1OS27nE4i4seIuFZtAAAAAAAAAAAAYM6eGH2A7etyuoqI4zblEmY/j4gDZQcAANifpmme1l2zisP6iq/882Ndrf33NxGxWP3vvu8XG/w5wD01TVPeB8rzmqO+74/Vj/uo5085b15FxKn39O2odX669s1v/3PUcdiWZX2tW9RrerieA+xf0zTr93C37+fW7/02Zf06ELf+edH3/c2Gfx7wQE3TvFp9Vuz7/lQd2Ydb16n1e5eHPoNcf764qPckV9/5bxiBbzyzfsznmdW5sbq3XfZ9f/seF2AvBNgBdqjL6aJN+bJMaEXEW7UHAADYjrWJoVXIbTU5dLSHRcUvvvZ/aJpm9T9Xu3atgg9XAnGwHTXAsHppMsC9rC16KOfPs7X/9nagmm9ommZ1XV6fkF8Ppn/12rkH3z2Wtev5p7Ww+yoksLq2CzQCPFC9bjxdu1asAlz7ul588+d+5z4vhAxhu75xzyfAzlbs6Tnky/V/qNeez/Wac7X66h5kWNYC6rfPmcNbzxg26W+fW+r5cl3Pk9W5ItQO7JwAO8COdTmVG4SzNuWL2o39pTEAAAB4mLWH/sdrD/+fj7CcL259/WvRc51M+LOG4f4zAWXyCe5nLXR88rXJ4xKMEibiS2oYYXX+fG1CeZM7d4zaWnjj9uvpSK/R9/Fs7Rz5VkhguXZtXwgKAPyfGlQ/Wgt07WMB8iZ96z5vtejpaq0bqs+i8ED1/ePEQmW2qd7rHK29hvYc8qBec/5zL9I0TXmuWJosXmqUsTu3nlmv7o2HtFA7vnCufKqfS8q5crnfQwPmQoAdYE+6nMrDqFdtysc1yD71yRsAAIBHWws0rL5uqzPNkDyvr5drgYfVhMKVDjnwZXWy8KR22ZvDewUbVM+fV/Ucussk86wC7Lc6DK53jfOM8/te3D6nvtD9biFcAkzd2r3d6jW3a8hq0dN6cCzqAub1xcuuB/AVd1xo+h9lYbO/Ke6qLoRffw0tfHxXq+eKb+vzxBJMPvcscXNuLWw4HvECvPI++rq86meS98LswLYJsAPsWZdTeQB11KZcJlPPrAgHAAD4rzpZdFxDhGOdKNqG/0woxN8D7Zc6tDNna533Xt+zDEf1b4h5nz+H9RndfTs3Pt3iYe1NvQ4fDrjD4JTc7n73+dZiNWErYNTqZ7TVy73d162Chqt7PdcDuKVpmtVC0/vudD7Jz+w83loAeRU+nup1qjxPfFNeTdOUBbRndv+4n1ud1cccVr+LVZi9PHe+qAsfPHMGNkqAHWAgupzO25Qv6gTZG+MCAADMUZ0EWAXWbft8d+uB9nd1e+CLGmbXUWlLmqbpJ/Kr/Dj2Ccu1btlnj+i2vtMwQ9M0VxOZFP933/fnAziOR2ma5uQe3da/5GiYv9ndfGF78zl2wh2agxrK+iuYtRZgvLRY7esm9N46Zh9qx8a5+JeulF9Ww4Cre7tj93YP9qXrwaXFy9tXF118mMLv0vf96N+Y6+fV07t2W/+KXd/zjfGZwc99358N4Di2aq1hxurrHHdte1E/t32qQfaLARzT4Nxa3HA80/vkZ3VX0NOmac4F2YFNEmAHGJAup/Ih77RN+bwGDTxoBwAAJm8tePrqAd2z+LIymfJLeQmzcwej7UJXJxJXIYbHhqJ043uYMZ8/mwjBjM6tsPqqs/ocAxtjsx5gtFgNhkN4Z039bLbqjGwh1HYc3Fq8fL22uMn1gC8qYfyxLlquQePTB+yw9SVH9e+Fr1stDJ+UtcD6sUVVf/OsXk9OdGT/W3OVuS5u+JqD9SD7HBa7ANsnwA4wQF1O5QHTcZty+VB87kMxAAAwRbWb2YlO61u3Hmb/vYTddInkltFN4q+9f2wixLAy6g7ae3Q8tgOu4bqzDV9/BtuIooY11gPrAoXTcHux2rlOvMA+CK3v3Yv6+qWG2S9cD/iC0S06rfd8Zxq+7dzzEuAd+3vIWrOMYyHkO1t1ZP+1Btlncx2p7zevZtxh/b7+CrKvdrKb+6IH4HEE2AEGrMvpr44JbcpndWW5QAcAADBqc+12OyB/dW6t2wNf2PKV6nAshWia5lV9DxFiGI7RhGG2tPBhcHQXnKUSsnhXOye+r4vVhAhgN2b7WbqGluyiNSyrMLvrAbeNZtHyqgv0lp4ZjW7x7Z68qs+MRqXeB612eBRCfrg3pYblb3Gq15C1xXfHPsc8yrO5LnoANucHtQQYvi6nszqZ/N5wAQAAY1QmkZqmKZNf/69uNSq8vl/P6jj8vzIudeKG+Rr8+JeJ06Zpyo51v20xvC4U/zCDDwaU4HrTNGXi/cM2w+v7ei+t19iyhfdl0zRlwviP2pn7pfD6LL2uIYJlDYABW9T3/WJO9S3XuqZpzur15p3Q16CtXw9O62Jy5mvQ93zl/Fy753vnmdHejSLoX8+bV/W51uo+6K3w+kasgslnE/hd/lLvm8+bpimf3T6u3TPzeGXRw1VdRAJwLwLsACPR5XTT5VQmHP4ZEdfGDQAAGIO10OAfU+94O2JlXD4Kss/aYCeYhBjGYajvHbeC67tYoLCTOtwKaiwF1vmKZ7UD700NmwouAg+2tiD5Yw0Hut6Mx7P6OWFZg3vu+eZpqJ/Xn9aA7K7u+YQr7+bVUA9sbbHDZW2S8Vt9ruW6tB1v60LpUd5LfOG++Y0FDlvzvIbYLaIG7kWAHWBkupwWXU5l1fNPEfHJ+AEAAEO0h9AgjyfIPl8HQ5uM3FdwXbeoBxvUe8Yer0Fb/zuqk8HrQQ0LO/iegxo2XU6pgyKwGxYkT8pBDe6555unQd3n3Aqu73JRjJDz3ZRnBIPpwl53/zit16P/ZweQnXtZg8mjCLHf6srvvnm3DuoiaiF24M4E2AFGqsvpoj5s+DkiPhtHAABgCGpnPsH1cSsTOwvdWmdnEIGGAXRcd84/zCDCDQNYPLWLv6ObHfwMpumgdlBcChTAxvw51VJakDx5Fi/PzyAWLe8xuP4/x7DrnzlSe+3CvtZpfVF3//jF9Wivng85xP6V0LoFK/vzru7cA/BdAuwAI9bldNPldFYnx94bSwAAYF/qxNJF7cxnQmn8Vt1aF0PqusVW7TW4MoDg+ooww8PstW4zC9kJsPNYz2qg4MquE/Bok3tPrl1uLwTXZ2MVZD8X6p2FvV73SwftfQbX1/j8czc7fxa0Flq/XOu0/nzXx8FXDSrEXpuonNdnSULrw/NaiB24CwF2gAnoclp2OZWuOT9OueMHAAAwTGuTkLaUn54ScvtQJg8FGiZvLwH22iVrCMH1FWGGh9lL3QYYXN96yKPv+6tt/wxmo/zN/FG7oAIzt9YV+aP7ull6U+7p670907Wve77VYuVfhEtH5fmudmhYdc+uzxbLs4GX0ynj5Ow1xF4X2p3W95Q/6vVrCM+S+LLXPlsA3yPADjAhXU5XXU5lwvCniPhsbAEAgG2qnW6uTELOwssaaNjrFtJs1U4DyGvB499MNk7CTsMwusPGpwEcA9PxtmmahW7s8CCT6MBeP+Mvaldk5qvc0/9Srwl24ZqmXX9mH8ouW7c5v+9ua8+A6j2d7tnjVELsl7s88rXO/B/rc2jPkcajfLY4mXsRgK8TYAeYoC6ni/oQ4mfjCwAAbEPtzveHbeVnpUwk/mZ7+cnayZjWSeohdcy+TZjhYXYyeVy7w14MuDvsrkJByx39HObjee3Grjse3M9izPWq19VLCwq55Xndhct93/TsZLHa2mLloQXXub+N3h/X685JPT8+6p49ai/KdWKbv8DaIocbnflH750F08DXCLADTFSX002XUwmU/CMiro0zAACwCWvhU9355utN3S54L9uPszVbDZOvdcz+aOHLNG1zMrIGHc5qcHuIwfWVXYUvrnb0c5if0h3vQmARpq92XV8Kg/EN5b5PN/Zp2er1fQSLlVeEKO9uI9eItecBq478nglMw5tt7NT4hUUOOvNPw5X7TOBLBNgBJq7LadnlVB4u/Wh7YQAA4DHWtpY30cRzYYbp2caihLXg8WLgweMVYYaH28pEZN1qelkXTg1+4npHE7I6sLNNr4ULYLrWdjP5TSCMO3hWu7GfKdYkbOVZzq1dksbwvMhnnHt4TED5VhD5tevOJF1s4llSXeRw1jSNRQ7TVf7+L+deBODvBNgBZqLL6arLqdw8/DsiPht3AADgPuqEtZAD6w5qmOFEVSZjowH2sQWPK+9xD7fp7eWPm6ZZ1MnrMY3LLhZBCLCzbWWh2tI27/BdizGVqP5Nj2VRIcPytoRQLW4av00vWh7JLkm3OY/v5173eWtB5BtB5Fko9+oXD/1F633/agHM2x3uasZ+vGia5lTtgXUC7AAz0+V0XiekfzX2AADA99ROWpd1EgG+5F2dbGL8NhJUHHHw+C+COQ+2kTBMDTyU686HGqLllr7vr9SEHTiondiF2OHrbsZSm7qw8EowjEd4URc32YVr3Db1mf1V7ZQ8psXKK+4x7udOHdjLZ8ZbQWSLw+fjxX2bW6x15/9gYd3snG1jB0hgvATYAWaoy+mmy6msbPxnRFw7BwAAgC+pIc4ymfBSgfiO10Lsk/Co4PaEgsfCmg/zqAnIumDqrAYexnzd2VWoyw6L7IIQO0xA0zTnY11YyODYhWv8HnVNryHlq7pDnwUx8/DsW58F62KGck78IYg8a+ffawZQ7/lP6uIX3fnn61Fd+4HpEWAHmLEup0WXU5lU+1dEfHIuAAAAK2vby+tMxV0JsY/fg4O3NXi8sOBl1h4chqkhqKXdPu5lMaJjZdyE2OHrlkOuzdpuWm8GcDhMi124xutBi5br+8l5DSmPPnRqJ4F7+1u91oLIvwkiU+8Zzr5UiLXF6qvgusUvlK79d9rdAZg+AXYASpD9ssupdMn6WfcmAACgBpRsL89DCLGP273DDCPfOv5rhBke5t7jv9bBcUpdYXe1FbYAO7skxA5f0Pf9YAPsdtNiB9z7jdO973XWFptaDDNffwVNV0HktQ7anhuy7k3ZmW/1z7eC61N6ZsRmnKsjEALsAKzrcjqrk2zvFQYAAOZpLbxuUoGHEmQYrzvvuFAmJW0dz2137WQ4tQ6Ot+wqwD7orr9MUvlseFlDscCArYXX7abFtpV7v4Vrw6jceawmuth0xaK8+3lxK4jsGQBfc1afF10IrvMdz+oCKWDmBNgB+B9dTjddTuWD4o8Rca06AAAwH8LrbJAQ+0jdpbtunbheTHibcGGGh/tuIGYGHRx3FeDSgZ19eFY/KwIDtXZPJ7zOrjyvu3QIsY/Dd98bJr7YdMX5en+CyNzF64j4WL86X/ieMxUCBNgB+KIup6sup9I166eI+KRKAAAwbcLrbMFrnXRG6asT+aW7dt0qfOoT18IMD/fV8P9a1/4pdnBct6vAoAA7+/LcIjX4y+AaANUA8aXwOnsgxD4i31q03DTNq4kvNl1xrgLsny7sgAA7AN/W5XRRJx//P3t3exTHsf4NuPvU+Q7/CMARCEegVU0AxhEIRWD8fauEqva7cQRCERwUwJRQBAdFYIjgERH0U416fVYYSbwsOz3T11VFyefF0mz3aGd65nff7aUYAABM1MoW88LrrNvbHHo2qqPyj/kqHfjy84EPjWwVLszwcLeGYUrX/r8m3MFx41JKn0MIV419bOqhSA0qs7Kma+FejToJsY/HP+Zopdj0P408G7LrFkAddGGHxgmwA/BDi777nH+MFAAATI/wOhtwml+GG+jR+CrMsNKB72VDY6Br6cPdPH9y1/7z0rW/GRss3NFwgiEdu75DHVbWdO5hGFo+B4/NQvW+uleNMR6W+0rFpgBs2k559gg0SoAdAAAAoG0ngg48sVwccWqQR+O6E12DHfhYj+vQS+naf1y69rvGPJ2LqX4wRmGr3EdCq2r6Dj51vaUiL8vuTdTruug0xrhXik3/aHDNJ6wPUA+7e0HDBNgBAAAAGhVjzFt0/mL+2YBnJcxK/XZ14NtoB+3JKZ2z8vnzW8PDsKmu1ALsDO15uWZAi6r4Di5BYUFMapND7MJo9dorz4P+q/gFgAr8YncvaJcAOwAAAECDSsDwtblng34TCh6FnUY78LE+/ynnUcs29eL1zHlLBY6EDWAYpYDkpeGnUm+t/6r13POgLx3oKzgMAL5Q+AaNEmAHAAAAaEwJGdnSmyGcxhi3jTwjIIzJY2zqe04HdmqQC56OzARsVgkG/2HYqdypIicq5tkEQD0E2KFRAuwAAAAA7TnRXZmB5PPu2OAzAoI2PMZGujmmlATYqcVLXXZp0GC7YJSC0FMnHSOw5VylYgLsAPXYsTMGtEmAHQAAAKAhZZv55+acAQm5MQbCDIzFRzNFJXRhh805VZDMiDyLMSpipkaCkgB10YUdGiTADgAAANCIsnW3beapwYlZoHLCDDzGJgvFdGGnFs8VqMHTU5DMSP3mGgEA/IB7BWiQADsAAABAO4SGqUXeFlanVoDHE2CnJq7ttGTj37+lINnfM8bqJMZolyNqIigJUJdn5X4XaIgAOwCbkh/mXhptoHHnrQ8AAMOJMR7o1EdlDgUYqJjvSx5lgy9drTOpiS7sNCOlNEQBUS5I3nKWMVI7CjAAgB+wnoTGCLADsBGLvrso22+/CSFcGXWgMe9DCD8t+u7UxAMwhBISPjb4VGZLgAGYsE0F2HVgpzaHZgTWL8Z4qMCOCfhNoRMV0eUXoD775gTaIsAOwMYs+u7zou+OSpD9vZEHGvAphPBi0Xf7pZAHAIZypFMflfrN1rDUyrnJI21kh4mUkg7s1OYX35+wXqUgWeEnU6G4nlrsmAmA6ih0g8YIsAOwcTnEmcOcOdRZwp0AU5N3mni16Lu9Rd+dmV0AhlQCRL+ZBComjEOtBDB5jL0Njp7na9RGF3am7uOGP9+xgmQm5FnZUQAGVwqEAKjHVoxxk89TgIEJsAMwmBzqzOHOHPIsYU+AKfgzB10WfXdiNgGohHAwtXupUyuVEmZgLOz4RW0OzAisRwnwvDScTMyR4DCVEJIEqI/vZmiIADsAgyshzxxWeGM2gBHLnZd+WvTd4aLvPptIAGoQY5wJOzASOvBRIy/MeIxNbnt9bqaoTO6at29SYC2ODSMTtGUNCAB8wyafpwADE2AHoAo57Lnou9wZ8qcBtt8EeIzLEMKLRd/NFn2n6x0AtdF9nbE40IEP4MEE2KmRADtTtpFngKUg+bkziYl6bScuKiAkCVAfDSWgIQLsAFQlhz9zCDSHQUsoFKBWV3nniEXf7S767swsAVCb8iJY2IGxyB34DswWlRFm4DE2GciyCxg1eqk4jQnbVBMLBclMnXMcALjpmRGBdgiwA1ClHAbNodAQwu8lJApQk3c5jFB2jgCAWrlOMTa2kAemZGdTnyWlpKiaWunCDg+k+zqNeKkLOwNz/gFUqNwLAw0QYAegaou+Oy4PD/40U0AFPoYQfl703cGi73S4A6Ba5QXwSzPEyOzEGAXdqIkwA4+y4e7TdjKkRkIHTNUmngsqSKYVCpkZkjUfQJ18P0MjBNgBqF4OiS76Lj/A+rmERwE2LQcBfl303WzRd+dGH4ARODBJjJQAOzXZWAdtJmtvgx/swmlEhVzXmaonfT4YY9zTfZ2GHGy46A9WOfcA6iTADo0QYAdgNHJoNIdHc4hUVylgQ65CCG9y6GDRd6cGHYAR0cHs6Xz8zs+nqX7oDXopvEBNnI+MyJnJokJbtn6HB7GeoyVbznkG9MzgA1TJOhIa8W8TDcDYlBDp6bzrj8pDrS2TCDyBd3mr3kXf6WIHwKjEGA/cIz/YVemmmEOAn8s/f04pPajD4kpga1a6xux5OXonuVvryQiOkzbsCQbzCLMNnj9TWLte3ehq/Pk7XY4fOq43X4Jvr3TK33adfhKb/HsAo1eK516aSRqTn2McmXQAoNBQAhohwA7AaC367mje9cchhGMPdIE1+liC616uAjBW+2buznJQ7rSEqs5SSmsN/6WUlvcTX91XlGD7fgl0Ccr9kwA7wP3VGmD/WH69WDnG8xJOv/7nlNLnb/y7T+FOa/1bitDyz/MNHueU6JzHFD2owPWOdKLejE8r16IfydeAnQmPRQ12Yoz7KSW7oLJx+b5v5fkNAHXwzBwaIcAOwKgt+i4/YDyYd/1J6c7gRRLwUDnAdrjoO2EpAEYrxphfrP9iBr9rGVo/fmhn9ccqL0avX46WOTsoP0IRX/ySO09uONAI36JzMI+xu6nRy9eWGOOmJ+tyJZi++vPg3Utq8Z0itL3yvbD8sevNj3ley+Q88X3qgTPm0ZY7eiwLppbf5Y8umiod8vdWdvBQ5LQ+B2WtDgAQPB+GNgiwAzAJpVPybN71y20GBT+A+3iTQ2ylKAYAxkz39W/LIbujlFJVxWql63tewxzFGK1n/kcXdmAKNhZgL66eIFD9aSX897mEAS/WvWvJWJRg/nnZETK/UN8v16x9YfZv23Bn08NKt5v/UMExbMrvT9yhfLLK7g/WAvd3udxV6yl21lpVQlTL77OvwtalyGlZ6OS6cH+5kHm31XsMBrXpe3YA7mZPUwmYPgF2ACYld06ed/1peVHx2uwCP/C+dF33UByAqdCt75+qDK7fphzjiSD7NQF2aiHMwGNsOkR7/ogOsB9XOqifTaGL+iaklE6XAcZy/T601fmtNrabRa3n7QA7JAzpfIMFC1NjPXd3n8p64bSWwPNKkdP1OqYE2g/K2kZhwt3sL4vEYIOs+QAABvIvAw8Czsa9AAAgAElEQVTA1OQOyou+y2GPn0o4FeCm/ILjxaLv9oXXAZiK3KlMYOoruQvt7yml3TGE11eV481hhz/rOaqN+6Wxz0u97NLEY2z6/LlLcPdTeV6WdyJ7kZ+fpZRiSil3yD5IKeWirzPh9fvL1++U0l4Z18uxHf8T25v0p4P1saPW912VNVK+du2llI5r7tadr6UppcO8Ji3XhncVHFbtFHEwBO+IAOo0My8wfTqwAzBZJZS6P+/6WenYIMwD5JccR4u+08UFgCkSdvif3EX2YMxbj5et6Q9jjGelg19z28/HGPdLZ1vYtKvSUflozN8jDCoHxI8H6EB883z9VELt5zoib04Z590Y45EdIv8mwA4/kO99W7znv6Or8o7nuKyTRqdcG87KtWG5Y4f5/qdnuTjfPTgbsPxeOXG+AQAMRwd2ADZi3vW7+WeI0V703dmi7/JLklflgQTQptydZ1d4HYAJE2D/4s/SRXYSLyBLgHvW6FpGlx027ap0pd4tnagFGbivd6Ur7P5AYfF8zfg9d3ktXdX3yrk8RJi+ebmbfQjh51JI0LqdGON264MAP2A9d7vlvdnRWMPrq/L9Zbk+7OnI/k3+LvCULsv98vJ7xZoPoF7WkNAAHdgB2JQcXv8w7/r8sPF40Xcbf9C46LuTeddfd1ALIfxm5qEZ1x1Yy64MADBJJRD03OyGVymlkwqOY63y1vMxxhzmPmusS58AO5tyWZ4VnE4hGMXGVdMVtgRwFG1X5MY1vPXdIffKOAC3E9r92uh31fqe8rkOYownZcetnXqPduMO3M/wBC7LDluTe2bExnwsf9DFLTtfLS2fY3lG27ZcwPy5/Jx/YyT2Sjh7z44s32UnL2iAADsAm5a3zT2cd/1hDpRv+g8vwfn85x+Xh4IWkDBd+YFk/q45NccANEDQd6Lh9aVGQ+x5+/htgWKekBADj1FNcJ265fNDiP2aADt8Q/mOEF76n9/z7iG1HMxTyjukxBj3yj3Fy+l+0nuxDmSdPpY1n3sQ7uKqBI7PlkH1h5475bt9VgrU5BGm6VM5Xy6W58xDCu9KY5rlubLvnhBojQA7AEPIN91vc4i9hEs3/tCgdGKezbt+prsFTM5V2enhyNQC0JDWu/VNOry+VELsuRvdf+o4oo3IazYFiaxbDjGcCK7zQDr2c29C7Nd2KzgGqFXr67ml/Fx3v7WgabmfyN3Y8+d+W8Eh1WC/vLuDhxJc5y4+lfvz69D6Onf9yM/wyu97HGPcLWtIhUrjdblyrpyv87ul3AfkZ5+nJcy+X84X+RWgCf8yzQAMKL+s+TDv+tN51w/yAiOH5xd9l//s38vDUWDc3uUXosLrADSo5Q7sb1oKoaaU8guNNxUcyqbYXYB1yiGGFymlmfA6D3BZCqZ28/kjvM59LQOKDT+DtP07fJt73i/fjbOWw6bl/vSFd1XX/J3goVbXfMLr3JTXdH+GEH4NIfxfSmkvpXRY1ndrC6/flH/vlFJeB/xUQvPU77K8c36V5608BzjIO8Q85XdLXjOW+4G9xp7/fos1JDRAgB2AGvySK1XnXX807/rtIY5n0XfHpQvQO2cEjFJ+KPnzou8OFn0nRABAU0oXn1Y7srxPKTVXuFY+82UFh7IJXlSwDkIMPMZXwXUjyWOUTozHjQ6iazrcoqznWt2ZYWkZXj+v43CGU+5VZ0LsdiXg3qz5+Jb3pZHdMoScA+uD7KZVgux78gjVunmuHDx1ccO3lCD7USm2aPmeYKuCYwCemAA7ALXIN5+vS5D9YIhjyqHXHH7NIdjyoAOo33WQYNF3s0XfNf+CA4BmtdqZ7Kp0MW1VK5/9eQXHwHgJMfAYgus8icYK0VYJH8DtWu80Lbx+QxmLlte62VaMUeETd2HNx01XJSC+7LK+X7pmbzyE/C2lG7sQ+/D+PldSSrHSc+VUURcwdQLsANQmd458O+/6s3nXD/LgNodgcxi2LGxbfJkEY3BVtk7bW/SdIAEArWv1pe7BEN2SalFezDZReBtjbD3Uw/0JMfAYgutsQnM7yIQv13RhRPin1u9194XX/6kE1n6v7bg2rPW/G3yfNR+rVoPI26Vz9iBd1u+qhNg/mcWNy+v9P3NDw9VzpeYDLt9xrd8TABMmwA5ArXKXvQ/zrj+Zd/32EMe46LvTEgZ6Y7tGqMq7Elw/yjsnmBoAaPKl7sfaXy5sSCvht90KjoFxuBRi4BEE19mYco612DhjkOe8ULmWCzveuGf7ttwFNoTwvtbj2wABdm4juM7SraH1kY1O67ttbMpqaD2v9w/HVjxX7gmaaGQCtEeAHYDavQwhXMy7fpBgRg7H5pBseYhsKy8YVu5E8GLRdweLvqtm+zYAqMCzBifhsIJjGFx5WdtCtybdWvmR1eCxEAP39fcOX4LrbNhxgwPumg4rYozbja7nQilKbnI3ins6aLjBkmsGqwTXWcqFPa9ys4ORhtb/VkLU8gdPY1ng8GKsofVbuG8CJkmAHYAx2AohvJ53fQ6y7w9xvDksm0OzeZGjuhU2Lj9keLXou9x13YNJAFgRY2yxI9l7W8x/pYXwm+AC36JjNo+xDK7n8+eo5u3lmawWd5PRgR2+1vJ9rqLkOyj3J6126N0pRR607bJ02BZcb1s+D34PIfyUUtrP6/8Jrd+EktfrfXlOtOzKP5nvjYYamQCNEWAHYEx2Qgj/mXf92bzrB9lCPodnF303K5XdrXa9gE26DhMs+k4YBQBuN8h98cBa7Fb6PS2E3wTYuUnHbB7rneA6Q0spXTQYQBBEhK+1WJCc/ako+e5Kd+FWGytZC7ZrtVi5xaI/vljtoH1c7p8npdE1wbpdlmdEfxc4TOvjfcVzcWByBNgBGKPnIYS/5l1/PO/6QV56lDDtblkMAeuXK+R/WvTd0aLvhAkA4Ntae5n7Scetr5Xg5fuajukJbOm8xwods3mMd+Wl9oHzh0q0FsgSRISvtfh34kq32QdpdcxaLfJomWJllt3W/29qHbS/w7n+MO/LDg3LZ0STK3C4RXPPxT0ThukTYAdgzH4LIVzMu36QrSZzqDaHa/OLzwYCI7Ap+cHUi0Xf7S/6roUHDQDwWK0FHrzQuZ0u7LRgGTwWXOchPpbOfQeNvNRmPBTmQdua3FHLvdz9lQBni13YrQPb8qdi5aa9v9FtvaVzwK4kd3dVviuW3dabKghutGO/ewGYOAF2AMZuK4Twx7zrc5B9kE4MOWSbw7Z5UW2LL3iw/MDh90Xf7S76zstbALi71h7g2jb6di3cP7UY7uELwWMe47J0ZJvZwYMaNXhe6p4HX3vW4HgoSn64FruwWwe24X0Jox4KrjfnZhi5yTWbteqd5LX9q1Lkctj48yEFD8CkCLADMBU7IYQP864/nXf9IA+0cuh20Xd7ZVuzK2cW3Nl1V41F3x0bMgC4t62GhuyT8Ortyrhc1nhsayS40B7BYx7juki6dO9T/ETtWmqI0WJYF24VYxykIc/A3lvTPVy5J576uu8m141pWxYr7/tuaM5leZ8ujPw/rX2/39XH8mwonysnilyu+fsCTIoAOwBT80sI4a951x/Nu36Qjj4lhLtbQrnAt+WHDj8t+u5w0XceOADAPTUYeBBA/L6pd9+xXWw7BI95rD9LEEKRNGMhgABtanFHAt3XH6+5+5sYo7Xg9Fx3Ulas3KTl3F+v14SRv2JN8LVlgcvMs6F/0IEdmBQBdgCm6nVe6M27/mCIz5fDuDmUm8O5ZYEF/M91J8VF380WfeeBDAA8XGuBBy81v2/qLy9aDPi0SPCYx/hYtp4/FIRgZAQQoE2thXKvBNDWosUxtBacjlys/CZ//+VOyq0PRmOWYeRdc/9N1rBfrAbXPQu+nXMFmBQBdgCmbCuE8Hbe9efzrh+kO2UO5+aQbl5o2foLvjycXPTd7qLvvKwAgMdrKvDgpcUPTX18dN2btvyC8mfBYx7ocuUFtyJpxqip770YoyAifLHb2Dh4HrwG5V7n0+g/yP20tvvcVL0vwfUja76mCCPfXetFrc4VgEYJsAPQgmchhA/zrj+Zd/0gD4UXfXeWQ7uls8CVs44GvcsvZRZ9d2TyAYAHsKvRj009tLlVwTGwfte7M5UXlK2/rOX+roukSxc/L7gZs9a+/xSlwRetBdhdq9entbFU+DRun0oodV+xaVOEkbkr5wpA4wTYAWjJy/xCaN71R/OuH+SBVwnv7pYwL7Tg+sHDou8OFn2nqwYArFdLXci85PyBFl4E69g6Katbx+vGyUNcF0nnDo5GD4CR0oEdY3k3Cp/GKa/5fk8p7QmlNkUYmbvKDQ1eOVcAEGAHoDW5a9/rEmQ/GOKz5xBvDvPm7dF1kmTCrh88LPpulncgMNEAwCMJsN/N5RgO8hEEF6bB1vE8xrKD44HzhwlxnwNt2mnoU1+6bq+PoB8jsCw2PTZZTRFG5q4+lZ3UTowYAALsALQqPxx+O+/6s3nXDxKCWPTdeQ735gV9A0ET2vF3J8VF33nwAABPq6WOfV5+3Y0AHDW7tHU8j6CDI5PlOxHa0+DOQq7d6/dpah/oO55Xe2TcpNi0be5puSvfDwD8TYAdgNblB1//nXf9ybzrB3loXEK+eyX0e9X6hDBq70tw/SjvNGAqAeDJtdSxD0JjRRtTcl3kWrprCS/xEDo4AjA1re0sJNS4fudT+0CMmmJTAAAeRIAdAL54mR+izrv+aIjxyGHfHPotD67fmRNG5rqrxqLv9hd952UEALB2XoDe2dRDDALs4/Mxr3NTSoOstRk9HRwBYBqs59avqefwMUZrwXopNgUA4MEE2AHgf7ZCCK/nXZ+D7LMhxiWHfxd9d5Bf0Da2BSTjlLtqvFr0Xe667iUEAGyQl7d8g4AntbgMIfyaUpqllBS5cl86OAIwda2t59wPrl9r90iegdRHsSkAAI8mwA4A/7QTQvgw7/qzedcP8lAsh4FzKDiHg8uLW6jNm/zQeNF3J2YGAAbh5S1Qqzel6/qpGeIB3pfzRwdHAKasqfWcgkaYlPzO8o1iUwAA1kGAHQC+7XkI4a951x/Pu357iHEq4eDdEgCAGnwMIfy06LujRd/pqgEAbIKCTpYG2SmLO8trhZ9TSkc68PEAl6WD476QG0ye6zm05dJ8r5/gMANZFpsemQAAANZBgB0Afuy3vMXlvOsPhxirHBLOYeEcGi4Ph2AI12GCRd/NFn0nTAAAbNK50Yaq5SKT31NKs5SSv688xLJrvyAWAEyPZ8msg+KnYeX3Q78qNgUAYN0E2AHgbrZCCH/Mu/583vWDPCjLoeFF3+3nELGuJWzQdRhl0Xe7i74TJgAAAFblIuvdlNKxUeEBdO0HoFW7Zp418J6ITfizFJueGm0AANZNgB0A7udZCOHDvOtP510/yEPmHCLOYeIcKi7hYngq+cFkDq4LowBAfQQegCFd79BUOvAJHnNfuvYD0LqW1nO6NT8dY8tT+lSKTQ+t+QAAeCoC7ADwML+EEP6ad/3RvOu3hxjDEireLSFjWKfrLniLvjtc9J0HkwBQJwF2YCjLDnx2aOIh3pfzR6E0ALRByBrGJRebvkkp7Sk2BQDgqQmwA8DjvM4PYOddfzDEOOZwcQ4Z57BxCR3DY+Quir8u+m626DsPJgEAqI3CjWHpwMdjXK83S9d+QTYAAKjPx1JsemRuAADYBAF2AHi8rRDC23nXn827fjbEeOawcQ4d55fB5aUw3Md1R41F3+0u+u7UyAEAUKkdEzOoQx34eISTlJL1JgAA1OtIsSkAAJskwA4A6/M8hPBh3vUn864fpDNgDh/nEHIOI5dQMvzIu9xRY9F3OmoAAAAAAAAAAABPToAdANbvZQjhfN71gwWCSxh5t4ST4TZ5K8gXi747WPSdjhoAAAAAAECNBtn9GAAAeFoC7ADwNLZCCK/nXX8x7/r9IcZ40Xefczg5h5RLWBmyyxDCq0XfzRZ9d2ZEAAAAAAAAAACATRJgB4CntRNC+M+868/mXb83xFjnkHIOK+fQcgkv0643IYS9Rd+dOAcAAAAAAAAAAIAhCLADwGY8DyH8d971J/Ou3x5izEtoea+EmK/Me1PehxB+WvTdUe7M3/pgAAAAAAAAAAAAwxFgB4DNehlCuJh3/eEQ457DyznEXILs78395H0KIbxY9N3+ou8uWh8MAAAAAAAAAABgeALsALB5WyGEP+Zdn4PssyEOIIeZc6g5h5tLyJlpyR32Xy36bm/Rd2fmFgAAAAAAAAAAqIUAOwAMZyeE8GHe9Wfzrt8d4ihyuDmHnHPYuYSeGb8/Qwi7i747MZcAAAAAAAAAAEBt/m1GAGBwz0MIf827PgePjxZ993nTB5TDzvOuPw0hHIYQXjslRuljCOEgd9dvfSAAgMl5HmNMphUAAAAAAACmQQd2AKjHbyGEi3nXHwxxRDk4v+i7oxDCTyUMzThchhBeLPpuJrwOAAAAAAAAAADUToAdAOqyFUJ4O+/683nXz4Y4shyCzmHoHIou4WjqdBVC+H3Rd7uLvjszRwAAAAAAAAAAwBgIsANAnZ6FED7Mu/503vW7QxxhDkXncHQOSZewNPV4F0LIwfVjcwIAAAAAAAAAAIyJADsA1O2XEELuxn407/rtIY60hKR3S2iaYX0MIfy86LuDRd99NhcAAAAAAAAAAMDYCLADQP22QgivS5D9YIijzWHpHJrO4ekSomazLkMIvy76brbou3NjDwAAAAAAAAAAjJUAOwCMx04I4e2868/mXT8b4qhzeDqHqHOYuoSqeVpXIYQ3i77bXfTdqbEGAAAAAAAAAADGToAdAMbneQjhw7zrT+Zdvz3E0ecwdQ5V53B1CVmzfu9CCHuLvjsytgAAAAAAAAAAwFQIsAPAeL0MIVzMu36wgHMJV++VsDXr8TGE8GLRdweLvrswpgAAAAAAAAAAwJQIsAPAuG2FEF7Puz4H2feH+CQ5ZJ3D1jl0XcLXPEzuZP9q0XezRd+dGUMAAAAAAAAAAGCKBNgBYBp2Qgj/mXf92bzr94b4RDl0ncPXOYQdQrh0Xt3LmxDC7qLvTkZ0zAAAAAAAAAAAAPf2b0MGAJPyPITw33nX/xlCOFr03edNf7gcwp53/WkI4TB3h3d6fdf7PE65i33FxwgAAADwYDHGWfl3d8vPzX9e2iu7DQIAAAAAEyfADgDT9FsI4WDe9TnEfrzpT1iC80fzrs8dxfOf/4vz7CufSnD9rKJjAgAAAHiQGONeCaDvll+3S6MFAAAAAIB/EGAHgOnKHav+mHd97oR+MERYunQW3593/awE2Z81fr5dlc74Gy8qAAAAAFiHGGMOqc9KUH3meQ8AAAAAcF8C7AAwfTshhA/zrn9fun5fbPoTl/D8XgnTHzW6HfSfJbz+uYJjAQAAALiTGGPupr5fwuqz8qwJAAAAAODB/mXoAKAZv4QQ/pp3/dG867eH+NCl8/huCXO34mMI4adF3x0KrwMAAABjkEPrMcbDGGNuSvD/QghvQwgvhdcBAAAAgHUQYAeA9rwOIVzMu/5giE+eQ9w5zJ1D3SXcPVWXIYQXi76bDdH1HgAAAOC+YowHMcbTElr/I4Tw3CACAAAAAOv2byMKAE3ayp2z5l2fg+S5M/jZpgehhLpn867PW0+fTKiD11UI4XjRd0cVHAsAAADAd+Vu6/n5UAjhQId1AAAAAGATdGAHgLY9CyF8mHf9ybzrd4cYiRyeX/Rd/rPflPD3mL0LIewKrwMAAAC1izHuxhhzU4GLsmOf8DoAAAAAsBEC7ABA9jKEcD7v+qN5128PMSIl9L1bQuBj8zGE8POi7w4WfffZGQUAAADUKndcjzHm5zB/lWdCWyYLAAAAANgkAXYAYGmrdNvKQfaDIUYlh79zCDyHwUsovHaXIYRfF303W/TduTMJAAAAqFmM8WCl4zoAAAAAwCAE2AGAm/J20W/nXX827/q9IUYnh8FzKDyHw0tIvDZXIYQ3IYS9Rd+dOoMAAACAmsUYd2OMZ/mZj47rAAAAAMDQBNgBgG95HkL477zrT+Zdvz3EKJVw+F4Ji19VMlPvSnD9KHeMr+B4AAAAAL4pxniYd9wrz3oAAAAAAAYnwA4A/MjLvLX0vOuPhhipHBLPYfESZH834Gx9DCG8WPTdwaLvLgY8DgAAAIAfijFuxxhPQgh/6LoOAAAAANREgB0AuIv8kvP1vOtzkH1/iBHLofEcHs8h8hIm35Tc+f3Vou9mi747c7YAAAAAtYsx7oYQzkpjAgAAAACAqgiwAwD3sRNC+M+868/mXb87xMjlEHkOk+dQeQmXP6U3IYTdRd+dOEsAAACAMYgx5l3szkMIz0wYAAAAAFAjAXYA4CGehxD+mnf98bzrt4cYwRIq3y0h83V7H0L4adF3R4u+++wMAQAAAMaghNfPym56AAAAAABVEmAHAB7jtxDCxbzrD4cYxRwuzyHzHDYPIbxbw295EUJ4sei7/UXfXazh9wMAAADYCOF1AAAAAGAs/m2mAIBHyi9F/5h3/UEI4XDRd2ebHtASNj9Yw+9zsp4jAgAAANgc4XUAAAAAYEx0YAcA1uVZCOHDvOtP512/a1QBAAAAnl6McVt4HQAAAAAYEwF2AGDdfgkh/DXv+qN5128bXQAAAIAnJbwOAAAAAIyKADsA8FRehxAu5l1/YIQBAAAA1i/GeFx2xQMAAAAAGA0BdgDgKeXuX2/nXX827/qZkQYAAABYjxjjfgjhN8MJAAAAAIyNADsAsAnPQwgf5l1/Mu/6XSMOAAAA8HAxxu0QwokhBAAAAADGSIAdANiklyGE83nXH827ftvIAwAAADzISdn5DgAAAABgdATYAYBNyy9XX5cg+77RBwAAALi7GOMshPCLIQMAAAAAxkqAHQAYyk4I4T/zrj+bd/2eWQAAAAC4kxPDBAAAAACMmQA7ADC05yGE/867/mTe9dtmAwAAAOB2McaD0hQAAAAAAGC0BNgBgFq8DCFczLv+0IwAAAAA3OrIsAAAAAAAYyfADgDUZCuE8Me863OQfWZmAAAAAL7QfR0AAAAAmAoBdgCgRvll7Id515/Nu37XDAEAAADovg4AAAAATIMAOwBQs+chhL/mXX887/ptMwUAAAC0KMa4r/s6AAAAADAVAuwAwBj8FkK4mHf9gdkCAAAAGuSZCAAAAAAwGQLsAMBYbIUQ3s67/nze9TOzBgAAALQgxrgbQvjFZAMAAAAAUyHADgCMzbMQwod515/Ou37X7AEAAAATt2+CAQAAAIApEWAHAMYqdx77a971R/Ou3zaLAAAAwEQdmlgAAAAAYEoE2AGAsXsdQjifd/2BmQQAAACmJMa4F0LYMakAAAAAwJT822wCABOQX+S+DSGcmEwAgMm5dJ8HQMNmJh8AAAAAmBoBdgAAAABqdpFSOjJDADTKjnMAAAAAwOT8y5QCAAAAAADUJca4HUJ4ZloAAAAAgKkRYAcAAAAAAKjPzJwAAAAAAFMkwA4AAAAAAFAfAXYAAAAAYJIE2AEAAAAAAOojwA4AAAAATNK/TSsAAAAAAEB1npmSB/k4wmN+XsExAAAAAMDGCLADAAAAAABUJMao+/o/fQohnIcQLkIIZ+V/PU8pfa7pIB8ixpjGd9QAAAAA8HAC7AAAAAAAAHXZMx/hKoRwWn7OphBUBwAAAAC+EGAHAAAAAACoS8sB9hxcP84/QusAQAjB/QAAAEyQADsAAAAAAEBddhudj/chhAPBdQBgxbnBAACA6fmXOQUAAAAAAKjK8wan4/eU0r7wOgAAAABMnwA7AAAAAABAJWKM2w3ORQ6vH1dwHAAAAADABgiwAwAAAAAA1GOvsbl4L7wOAAAAAG0RYAcAAAAAAKjHbkNzcRVCOKjgOAB4Gq0VZQEAAHBHAuwAAAAA4/PZnAHAZLUUYD9OKbmvAVpz0dDn3a7gGKaqpfsFAABgggTYAQAAAMbnvKE5e17BMQDAJrUU9juu4BgANq2lADtPZ6ehsVXsBgAAEyTADgAAAAAAUI+9Rubine7rAJPXyjWNp9VSET8AADRDgB0AAAAAAIBNOzPiAJO3ZYrXL8Y4m9pnAgAA2iPADgAAAAAAUI/tRubitIJjABhCU92kY4y6sK9fK/cKAADAhAmwAwAAAIzP55bmTOABgMY8a+DjXqaUmrqfAVjR2vefsPX6tbZGbqroAwAAWiHADgAAADAyKaXWXt4KPADAtFyYT4BmzEz12jUVYFf0BgAA0yTADgAAAEDtBNgBYFrOzCfQsNYKku2otX67U/tAAABAewTYAQAAAKidwAMAADAJDXaTtp5boxhjLvB+NpkP9GMfaz9AAADgYQTYAQAAAMappZe4ussB0IQY46yRj6oDO9C6y4Y+/06M0ZpufVq5VwAAACZOgB0AAACA2gk7AAAAU3LR2GwKXa9Pa2Op6A0AACZKgB0AAABgnFoKPDyv4BgAAADWpbUA+34FxzAVxhIAAJgEAXYAAACAcWoq8BBj3KvgMAAAANZBB3burayLdxobOR3YAQBgogTYAQAAAMbpc2PzJsAOANNxbi6BxrX2PbgVYzyo4DjGrsUxbO3ZBwAANEOAHQAAAGCcWgs86NgHABORUhJGA1rXWgf20Gj4et32p/VxfiylpOgNAAAmSoAdAAAAYJxaC34196IeAACYpkZDuc9jjLsVHMcolQ72O4197E8VHAMAAPBEBNgBAAAARqjBwEPecn6vguMAAB4pxrhtDAGaDOceVXAMY9ViB/sWdyoAAIBmCLADAAAAjNdlY3Nny3kAmAZFaQAhtNiF/aUu7PcXY5zlDvZjO+41aPHvCAAANEOAHQAAAGC8WutGJsAOAABMRavhXF3Y7+94bAe8JmeT+BQAAMCtBNgBAAAAxqu1l7lbMUYhdgAAYApaDbC/LB3FuYMY42EI4VmjY6UDOwAATJgAOwAAAMB4tdaBPejWBwCTsG0agdallF4eOBUAACAASURBVFruLn0cY3Qt+IEY427Da+DLlNLnCo4DAAB4IgLsAAAAAOPVYjeyHV3YAZiwVorT9io4BoAafGp0Fp4pTr6Tk7wT2QiO8ym0XOABAABNEGAHAAAAGKmUUqvbaR/p1gfAFKWUWgmw71ZwDAA1aDmk+5vi5G+LMR6HEJ7XenwbIMAOAAATJ8AOAAAAMG4fG5y/nRDCYQXHAQA8jAA7wBeth3TfxhjtynFDCfb/VtVBbV7rfzcAAGDyBNgBAAAAxq3VLuyvY4yzCo4DALi/ljvKAqwS0g3hTIj9f0p4/W0txzOQy4Z2pQEAgGYJsAMAAACMW8uBh9MY43YFxwEA63TZwmgqRAMIIaX0OYTwqfGh2BJi/0J4/W8KOwAAoAEC7AAAAADj1vKL3WXQQYh9BGKMuzmQEWPMhQefWx8PgO9opePofgXHMDhBfiAX5hqE67Xdf0uAu0kxxiPh9b8JsAMAQAME2AEAAABGTMe+8EyIvV45lBdjPI4xnocQ/iqBjF9yQEVgD6B5TQfYS2HXSQjhQwWHAwxLgP1/3pb1QzPru/xZY4w5sP26gsOphb8TAADQAAF2AAAAgPFrvTvZM1vO1yHPQYzxcKXLeg7l/Vbm6CbzBXC7Vq7rOy0WM60E13Nh18sKDgkYWEopF3temYe/5fXDeQvXiBjjftl55XkFh1OLj6VQHwAAmDgBdgAAAIDxaz3AHlZC7E13c920EsI7yEG8GGMOXvw3hPDHssv6Dw5HgB2Ao1ZGQHAd+AEdp7+2k4thyzpjt6YDW4dS+JvX8f+5w7qpNf4uAABAIwTYAQAAAMZPgP2L/OL/P6X7dzNbzm/SjQ7rFyWE97YE8XbueSgC7AC3O29oXJ5PvcNu/nwlpCi4DnyP0O7t8vfmX1MJspf11Ekp/NV1/Xb+LgAAQCME2AEAAABGrmyv/d48/i13/76IMTbT1fUp5CKA3NE+j2MO3sUY040O6/cNrN/0rPpBABjG58bG/WRqhWflGnpQir0+CCkCP5JSyqHdKwP1Tcsg++kYd90q14Szsp5SzPRtn1JKF7UeHAAAsF7/Np4AAAAAk3BWQsV8kbuxv85BgRyMCyEcl6A/tyjBwdwRfVZ+3VtDQP2HclfalJIdBAC+1lIH9lCuN/laPbpA4k2lm/xB+SxbdR0dMAL5u/A3E/Vdec37S4zxqnTqPi3h/6qU9dWsXA9cE+7ueCwHCgAAPJ4AOwAAAMA0nJbO2Hwth+JelzD7u1oDDptUwnW75WcZWB8qUDErxRcAFLngqgTzWgq75TDiSUrpoIJjuZcY495KaP3Ji7+ASRNgv7ut0sn8ZYwx/0sfy7oi/5xvung5xri7Ugg8s/PGgzW9VgcAgNYIsAMAAABMQN5mO8b4KYTwzHx+0zLgsOzWd1YC7ZPrzF4CFMsQxbL7326Fwbq9Co4BoEbnDYbfXpYw+H6+r6ngeL5JaB14Cimlc2u6B3tefnLxcv6evgwhXJTr6eeVotmLh15jynf/dvnZW/l1yILgKXln1zQAAGiLADsAAADAdJzown4nf3frCyG8LSGR89Wf2l+cr4QnlkH11RDFmAIvAuwAt2sxwB7KNSwHOI9TSkcVHM+1Uhg2Kz/7gorAE7KmW4+d8rO8lr5e/q6lY/uqj7f8iWNbV03BSesDAAAArRFgBwAAAJgOYYeHeVZ+Xi7/7dKlfdmt77z818v/HB7TuW9VjHH7lhD3MogeVoLpYaIhip08BjrtAfzDecNDksPhr2OMhyGE43x/s+mO7DHG2UpX3Zku68AG5TXdkUKZjWqxYKw2lymls3EdMgAA8FgC7AAAAAATkUPAMcb3IYRfzOmjba0EGW4dz1s69/Eweytb+gPwRcsB9qWt0jH3ddkt5bRcL9a2U0oJqi+LxXbLrzruAoMpa7rT1eJaaEA1u64AAACbI8AOAAAAMC0nAuyMzEyAHeBrKaVzhVJfWe6WkgPtqzulhBs7pHzPrPxvU9zRBJiWIwF2GnJVitQAAIDGCLADAAAATEhK6TTGeBlC2DGvjMSeiQK41ceV3UD42upOKcYImJSU0kWM8Z0QO404XtfOKgAAwLj8y3wBAAAATM6JKWVEZiYL4FbnhgWgWdZ0tCB3Xz820wAA0CYBdgAAAIDpOS4vgmEMtmKMu2YK4B/ODAlAm1JKZ2UnDpgy3dcBAKBhAuwAAAAAE1NeAJ+aV0Zkz2QB/IMAO0DbDlsfACZN93UAAGicADsAAADANB2ZV0ZEgB3ghlKQpvsuQKNSSuchhHfmn4nSfR0AABonwA4AAAAwQSmlC2EHRmRmsgBuZUcVgLYpTGaKLnVfBwAABNgBAAAApkvYgbHQgR3gdmfGBaBdpTD5jVOAiTnSfR0AABBgBwAAAJgoYQdGZCvGuGvCAL6WUjovXUoBaNexawET8jGldGJCAQAAAXYAAACAacthhytzzAjowg5wu1PjAtCu0qn60CnARDiXAQCAawLsAAAAABNWwg5H5pgRmJkkgFvpUgrQuJRSLmZ63/o4MHpvyu4yAAAAAuwAAAAAU5dSyl3YP5loKqcDO8AtStDLdRyAA7trMWKfUkqK6wEAgL8JsAMAAAC04cA8U7nnJgjgm3RhB2hc2V3Luo6xcu4CAABfEWAHAAAAaEDp3vqnuaZmMUZd2AFud6LrLgAppdMQwrvmB4Kx+b08kwAAAPibADsAAABAO/J23Z/MNxUTYAe4Rem6e2psAAghHFrXMSLvU0rHJgwAALhJgB0AAACgEbacZwQE2AG+7cjYALCyrrMzB7W79AwCAAD4FgF2AAAAgIaUbbt/N+dUSoAd4BtSShchhI/GB4CyrjtsfiCoWS6w2C8FFwAAAP8gwA4AAADQmLJ993vzToWemxSA79KFHYBrKaWTEMIbo0GlDkuhBQAAwK0E2AEAAADalLfx/mTuqU2McWZSAG6XUjrThR2ApZRSLmx6Z0CozO+lwAIAAOCbBNgBAAAAGlS28d4v23pDTfbMBsB36cIOwN9SSoqTqcm7susbAADAdwmwAwAAADQqpXQRQpgJsVMZAXaA7yhd2HXbBWDVTIidCrwrBRUAAAA/JMAOAAAA0LCU0nkI4dA5QEUE2AF+7EgBGgBLZYctIXaGJLwOAADciwA7AAAAQONSSichhFetjwPVeGYqAL6v7KJybJgAWBJiZ0DC6wAAwL0JsAMAAAAgxE5VYowzMwLwfSmlIyFFAFYJsTMA4XUAAOBBBNgBAAAAuCbETkX2TAbAnQiMAfCVlRD7eyPDExNeBwAAHkyAHQAAAIC/CbFTCR3YAe4gpXQeQnhjrABYlUPsKaX9HDA2MDyRV8LrAADAYwiwAwAAAPCVEmL/OYRwZWQYiA7sAHeUUjoKIXw0XgDcVALGCpRZp/yc4Nfy3AAAAODBBNgBAAAA+IfS0TV3wf5kdBjAToxx28AD3Nm+wrPJea+7PrAOJWj8wnWCNcjPB2YppVODCQAAPJYAOwAAAAC3WgmxvzdCDEAXdoA7Sil9Ltdsxu+ydLbNRQkCgsBapJTOyv21AmUe6l0Jr58bQQAAYB0E2AEAAAD4phyIKwEqHUDZNEFMgHsogbJXxmzU8v3W3rKzbZlTHZOBtUgpXaSU9qztuKd8HXqVUjooBXMAAABrIcAOAAAAwA+llI5CCD+XrqCwCTqwA9xTSulEiH2UPoYQfsr3W7eEA3VhB9aqrO1eWNtxBx9LYdWJwQIAANZNgB0AAACAOyldQHOo+E8jxgYIsAM8QAmZuVaPQw6PvkgpzXJn5G8c8VnrgwSsX0rpzNqO78hd13//wfUJAADgUQTYAQAAALiz3BU0pXSoYx8bsG2QAR6mXKuFEuuV76FepZR2S4j0ewTYgSexsrbLO219MsoUy67rxwYEAAB4SgLsAAAAANzbSse+N0aPNXtfQn0C7ACPUEKJr4xhVa7KvdNe6ZT/Q6XzrWAp8GTyTlsppby2+718T9GmXFz1q67rAADApgiwAwAAAPAgpWPfUQjhpxI6hof6VAIz/5dS2r9rqA+A7yvfp0Lsw1sG13PH9aN8D3XPI9KFHXhypeP2riLl5lxfo8quIKetDwYAALA5AuwAbMp52XYQAACYmNydLYeOQwgv3PdzD8vQ+k+542MOzDwg0AfAD5QQ+8+66g7ishQQPDS4viTADmzEjSLld0Z90r4qrmp9MAAAgM0TYAdgIxZ993nRd7O8/WB5cQMAAExMSuksbzcuyM53fLwltG57eoAnllI6L111XZ83I4/zq9LN9uSxBVo64gKbVoqUDwTZJ+mxu4IAAACshQA7ABu16LvTRd8tt6DU9QkAACboRpD9vTlu2lUJvOTus/+XzwuhdYBhlK66s/JcjqeRr3kvyvXuZM1/guIDYONuBNm91xm3y1JMLLgOAABUQYAdgEEs+u6odH3SuQMAACaqBNn3V7r2CTu04VMJt/ycUtrOgZd1dJ8FYD1yaC1/R5fvax5vGQj8v3LNO3uiMdWFHRhMCbIv3+u8cg0ZlVwA9WvZFeTYugwAAKiFADsAg1n03edF3x2Urow6CAEAwEStdO0TdpimPJ9/5lBECe/tlY5+560PDECt8nd0/r4uwWsFZvd3tdJtfVOBwKcKxgPcWdnN46RcQ35WqFyty7JG+6nsCqIICgAAqI4AOwCDW/Td2aLvZiXIcmlGAABgmm6EHX4qL9StAcbntsD6YQ5F6OYHMC45eG2XxHt5X55h7j5xt/V/KIVhQqJANUoxVP4u3C7fje/NzqCWxVXLbut5jXbR8HgAAACVE2AHoBqLvjsJIeyVrea9jAEAgAkrXdnzC/Xd0rlPmL1OV2XHrDdl9yyBdYCJKQVmB6W4TJD9n5ah9XwN3C/FeENd/3TQBapUvhv383flSpjde56ntxpa3y4FBa4VAADAKPzbNAFQk0Xf5Zc/R/Ouz2H23AHqFxMEAADTVjqKHuafGGMOtOfgw8x6YBA5rH5efs507ANoR/nOP4gxHuVfy7V5q8FTIBfU5c7qpxWGAPNxvazgOABuVQp8TspPiDEu13b51x2jthafyvXgpKylAQAARimmlMwcANWad/2sBNmfmSV+ZNF30SABAExLjHFWAg/557npXZvLlaD69Y+wOgA3xRgPSuhwykVlVyUIuAytux4CPIFSrLy6vhNov5tPK9epM7tgAQAAUyHADsAozLv+oATZW+z6xB0JsAMATF+Mca+EHfbKj2LX78thh4sSUs+/XqSUzmo+YADqs7JDyv4ECsqWHdaXu43oXgswgBjj9srabvlr6++AVguNz0qhscA6AAAwSQLsAIzGvOu3y9bFr80atxFgBwBoU+nSvlt+8j9vNxRsvyzB9M+rIfUSVNdBFoC1WwkcLn9qvuauFnIJAgJUrhRMLdd1y3+e4k5cVyvrt9VdsVyjAACAZgiwAzA6867PDyxPJvrQkkcQYAcAYNVK+GGvhNqX/3kMAfdlMD2shNJDCd8FAXUAalEC7XsDhg0/rRRyfS7Xys86qwNMx8q15uavodJ3RcuAelhZw52X65MdsQAAgOYFAXYAxmze9bMSZN8xkQQBdgAAHmAlCLG0DEWsuvn/ua9loO6mm/+9jnsATMaNa+xs5XMtQ+53cTPk9/e1UwAQgFV3XNvd5xp0023rutViY9cmAACAexBgB2D05l1/GEI4CiFsmc22CbADAAAAAAAAAADU7V/mB4CxW/TdcemY8c5kAgAAAAAAAAAAQL0E2AGYhEXffV703UEI4ecQwkezCgAAAAAAAAAAAPURYAdgUhZ9d77ou1kI4dcQwqXZBQAAAAAAAAAAgHoIsAMwSYu+O1303W4I4U0I4cosAwAAAAAAAAAAwPAE2AGYtEXfHYUQ9kII78w0AAAAAAAAAAAADEuAHYDJW/TdxaLvDkIIL0IIH804APz/du7oNq7szMLork5gQjAzMDsCkTgBqDsCSyHonQ8icAKgMqAy6AQOQGWgzkDMQIzgDsr2DMaDlq2WyK0q1loJ8HL/9fjhAAAAAAAAAAD8GAJ2AE7GXONurnGR5HWSe5cHAAAAAAAAAACALgE7ACdnrnGb5DzJtesDAAAAAAAAAABAz27bNnMDcLKuxjpLcpPkpV/B8Ztr7E59AwAAAAAAAAAAgEPmBXYATtpc49Nc45ckl0l+P/U9AAAAAAAAAAAA4CkJ2AHgHyH73VzjPMmbJA82AQAAAAAAAAAAgMcnYAeA/2OucZPkLMk7uwAAAAAAAAAAAMDj2m3bZlIA+ANXY+1D9tskL+xzHOYau1PfAAAAAAAAAAAA4JB5gR0AvmCu8WmucZHkMsm9nQAAAAAAAAAAAOD7CNgB4D+Ya9zNNfavsV8nebAXAAAAAAAAAAAAfBsBOwB8pbnG2yT7kP29zQAAAAAAAAAAAODPE7ADwJ8w1/g813iV5OckH2wHAAAAAAAAAAAAX0/ADgDfYK7xca5xkeTXJPc2BAAAAAAAAAAAgP9MwA4A32Gu8VuS8yTXSR5sCQAAAAAAAAAAAF+227bNPADwCK7GOkvyNsnf7PljzDV2p/h/AwAAAAAAAAAAHAsBOwA8squxLpLcJPmrbbsE7AAAAAAAAAAAAIftJ/cBgMc117iba5wneZ3kwbwAAAAAAAAAAADwDwJ2AHgic43bJGdJrm0MAAAAAAAAAAAAyW7bNjMAwBO7Gmsfst8keWnrpzPX2D3X/w0AAAAAAAAAAOA5ELADQNHVWBdJ9i+z/8Xuj0/ADgAAAAAAAAAAcNh+ch8A6Jlr3M019q+xv0nyYHoAAAAAAAAAAABOiYAdAH6AucZNkn3I/s7+AAAAAAAAAAAAnIrdtm2ODQA/0NVY50n2QfsLd/g+c43dMX8/AAAAAAAAAADAc+cFdgD4weYaH+caF0l+TXLvHgAAAAAAAAAAADxXAnYAOBBzjd/mGmdJrpM8uAsAAAAAAAAAAADPjYAdAA7MXONtkn3I/t5tAAAAAAAAAAAAeE4E7ABwgOYan+car5JcJvngRgAAAAAAAAAAADwHAnYAOGBzjbu5xkWS10nu3QoAAAAAAAAAAIBjJmAHgCMw17hNcp7kOsmDmwEAAAAAAAAAAHCMdtu2ORwAHJGrsc6S3CR56W7/aq6xO6TvAQAAAAAAAAAA4F95gR0Ajsxc49Nc45ckl0l+dz8AAAAAAAAAAACOhYAdAI7UXONurnGe5HWSB3cEAAAAAAAAAADg0AnYAeDIzTVuk5wleeeWAAAAAAAAAAAAHLLdtm0OBADPxNVY+5B9H7S/OMWbzjV2B/AZAAAAAAAAAAAAfIEX2AHgGZlrfJprXCS5THLvtgAAAAAAAAAAABwSATsAPENzjbu5xv419jdJHtwYAAAAAAAAAACAQyBgB4BnbK5xk2Qfsr93ZwAAAAAAAAAAAH40ATsAPHNzjc9zjVdJfk7ywb0BAAAAAAAAAAD4UQTsAHAi5hof5xoXSX5Ncu/uAAAAAAAAAAAAtAnYAeDEzDV+m2ucJblO8uD+AAAAAAAAAAAAtAjYAeBEzTXeJjlP8t5vAAAAAAAAAAAAgAYBOwCcsLnGp7nGqySXST74LQAAAAAAAAAAAPCUdtu2GRgA+LursfYx+02S/zrGReYauwP4DAAAAAAAAAAAAL7AC+wAwP+aa9wmOUtybRUAAAAAAAAAAAAemxfYAYA/dDXW2T9fY395LAt5gR0AAAAAAAAAAOCweYEdAPhDc41Pc41fklwm+d1KAAAAAAAAAAAAfC8BOwDwb8017uYa50neJHmwFgAAAAAAAAAAAN9KwA4AfJW5xk2SsyTvLAYAAAAAAAAAAMC32G3bZjgA4E+5Gmsfst8meXFIy801dgfwGQAAAAAAAAAAAHyBF9gBgD9trvFprnGR5DLJvQUBAAAAAAAAAAD4GgJ2AOCbzTXu5hr719ivkzxYEgAAAAAAAAAAgH9HwA4AfLe5xtsk+5D9vTUBAAAAAAAAAAD4EgE7APAo5hqf5xqvkvyc5INVAQAAAAAAAAAA+P8E7ADAo5prfJxrXCR5neTeugAAAAAAAAAAAPwPATsA8CTmGrdJzpNcJ3mwMgAAAAAAAAAAALtt205+BADgaV2NdZbkbZK/PeUfmmvsnBIAAAAAAAAAAOBwCdgBgJqrsS6S3CT561P8TQE7AAAAAAAAAADAYfvJfQCAlrnG3VzjPMnrJA+GBwAAAAAAAAAAOC0CdgCgbq5xm+QsybX1AQAAAAAAAAAATsdu2zbnBgB+mKux9iH7TZKX3/sNc42dSwIAAAAAAAAAABwuATsAcBCuxrpIsn+Z/S/f+j0CdgAAAAAAAAAAgMP2k/sAAIdgrnE319i/xv4myYOjAAAAAAAAAAAAPD8CdgDgoMw1bpLsQ/Z3LgMAAAAAAAAAAPC87LZtc1IA4CBdjXWeZB+0v/ia75tr7FwSAAAAAAAAAADgcHmBHQA4WHONj3ONiyS/Jrl3KQAAAAAAAAAAgOMmYAcADt5c47e5xlmS6yQPLgYAAAAAAAAAAHCcBOwAwNGYa7xNsg/Z37saAAAAAAAAAADA8RGwAwBHZa7xea7xKsllkg+uBwAAAAAAAAAAcDwE7ADAUZpr3M01LpK8TnLvigAAAAAAAAAAAIdPwA4AHLW5xm2S8yRvXBIAAAAAAAAAAOCw7bZtcyIAAAAAAAAAAAAAAJ6cF9gBAAAAAAAAAAAAAKgQsAMAAAAAAAAAAAAAUCFgBwAAAAAAAAAAAACgQsAOAAAAAAAAAAAAAECFgB0AAAAAAAAAAAAAgAoBOwAAAAAAAAAAAAAAFQJ2AAAAAAAAAAAAAAAqBOwAAAAAAAAAAAAAAFQI2AEAAAAAAAAAAAAAqBCwAwAAAAAAAAAAAABQIWAHAAAAAAAAAAAAAKBCwA4AAAAAAAAAAAAAQIWAHQAAAAAAAAAAAACACgE7AAAAAAAAAAAAAAAVAnYAAAAAAAAAAAAAACoE7AAAAAAAAAAAAAAAVAjYAQAAAAAAAAAAAACoELADAAAAAAAAAAAAAFAhYAcAAAAAAAAAAAAAoELADgAAAAAAAAAAAABAhYAdAAAAAAAAAAAAAIAKATsAAAAAAAAAAAAAABUCdgAAAAAAAAAAAAAAKgTsAAAAAAAAAAAAAABUCNgBAAAAAAAAAAAAAKgQsAMAAAAAAAAAAAAAUCFgBwAAAAAAAAAAAACgQsAOAAAAAAAAAAAAAECFgB0AAAAAAAAAAAAAgAoBOwAAAAAAAAAAAAAAFQJ2AAAAAAAAAAAAAAAqBOwAAAAAAAAAAAAAAFQI2AEAAAAAAAAAAAAAqBCwAwAAAAAAAAAAAABQIWAHAAAAAAAAAAAAAKBCwA4AAAAAAAAAAAAAQIWAHQAAAAAAAAAAAACACgE7AAAAAAAAAAAAAAAVAnYAAAAAAAAAAAAAACoE7AAAAAAAAAAAAAAAVAjYAQAAAAAAAAAAAACoELADAAAAAAAAAAAAAFAhYAcAAAAAAAAAAAAAoELADgAAAAAAAAAAAABAhYAdAAAAAAAAAAAAAIAKATsAAAAAAAAAAAAAABUCdgAAAAAAAAAAAAAAKgTsAAAAAAAAAAAAAABUCNgBAAAAAAAAAAAAAKgQsAMAAAAAAAAAAAAAUCFgBwAAAAAAAAAAAACgQsAOAAAAAAAAAAAAAECFgB0AAAAAAAAAAAAAgAoBOwAAAAAAAAAAAAAAFQJ2AAAAAAAAAAAAAAAqBOwAAAAAAAAAAAAAAFQI2AEAAAAAAAAAAAAAqBCwAwAAAAAAAAAAAABQIWAHAAAAAAAAAAAAAKBCwA4AAAAAAAAAAAAAQIWAHQAAAAAAAAAAAACACgE7AAAAAAAAAAAAAAAVAnYAAAAAAAAAAAAAACoE7AAAAAAAAAAAAAAAVAjYAQAAAAAAAAAAAACoELADAAAAAAAAAAAAAFAhYAcAAAAAAAAAAAAAoELADgAAAAAAAAAAAABAhYAdAAAAAAAAAAAAAIAKATsAAAAAAAAAAAAAABUCdgAAAAAAAAAAAAAAKgTsAAAAAAAAAAAAAABUCNgBAAAAAAAAAAAAAKgQsAMAAAAAAAAAAAAAUCFgBwAAAAAAAAAAAACgQsAOAAAAAAAAAAAAAECFgB0AAAAAAAAAAAAAgAoBOwAAAAAAAAAAAAAAFQJ2AAAAAAAAAAAAAAAqBOwAAAAAAAAAAAAAAFQI2AEAAAAAAAAAAAAAqBCwAwAAAAAAAAAAAABQIWAHAAAAAAAAAAAAAKBCwA4AAAAAAAAAAAAAQIWAHQAAAAAAAAAAAACACgE7AAAAAAAAAAAAAAAVAnYAAAAAAAAAAAAAACoE7AAAAAAAAAAAAAAAVAjYAQAAAAAAAAAAAACoELADAAAAAAAAAAAAAFAhYAcAAAAAAAAAAAAAoELADgAAAAAAAAAAAABAhYAdAAAAAAAAAAAAAIAKATsAAAAAAAAAAAAAABUCdgAAAAAAAAAAAAAAKgTsAAAAAAAAAAAAAABUCNgBAAAAAAAAAAAAAKgQsAMAAAAAAAAAAAAAUCFgBwAAAAAAAAAAAACgQsAOAAAAAAAAAAAAAECFgB0AAAAAAAAAAAAAgAoBOwAAAAAAAAAAAAAAFQJ2AAAAAAAAAAAAAAAqBOwAAAAAAAAAAAAAAFQI2AEAAAAAAAAAAAAAqBCwAwAAAAAAAAAAAABQIWAHAAAAAAAAAAAAAKBCwA4AAAAAAAAAAAAAQIWAHQAAAAAAAAAAAACACgE7AAAAAAAAAAAAAAAVAnYAAAAAAAAAAAAAACoE7AAAAAAAAAAAAAAAVAjYAQAAAAAAAAAAAACoELADAAAAAAAAAAAAAFAhYAcAAAAAAAAAAAAAoELADgAAAAAAAAAAAABAhYAdAAAAAAAAAAAAAIAKATsAAAAAAAAAAAAAABUCdgAAAAAAAAAAAAAAKgTsAAAAAAAAAAAA1bV4BwAABo5JREFUAABUCNgBAAAAAAAAAAAAAKgQsAMAAAAAAAAAAAAAUCFgBwAAAAAAAAAAAACgQsAOAAAAAAAAAAAAAECFgB0AAAAAAAAAAAAAgAoBOwAAAAAAAAAAAAAAFQJ2AAAAAAAAAAAAAAAqBOwAAAAAAAAAAAAAAFQI2AEAAAAAAAAAAAAAqBCwAwAAAAAAAAAAAABQIWAHAAAAAAAAAAAAAKBCwA4AAAAAAAAAAAAAQIWAHQAAAAAAAAAAAACACgE7AAAAAAAAAAAAAAAVAnYAAAAAAAAAAAAAACoE7AAAAAAAAAAAAAAAVAjYAQAAAAAAAAAAAACoELADAAAAAAAAAAAAAFAhYAcAAAAAAAAAAAAAoELADgAAAAAAAAAAAABAhYAdAAAAAAAAAAAAAIAKATsAAAAAAAAAAAAAABUCdgAAAAAAAAAAAAAAKgTsAAAAAAAAAAAAAABUCNgBAAAAAAAAAAAAAKgQsAMAAAAAAAAAAAAAUCFgBwAAAAAAAAAAAACgQsAOAAAAAAAAAAAAAECFgB0AAAAAAAAAAAAAgAoBOwAAAAAAAAAAAAAAFQJ2AAAAAAAAAAAAAAAqBOwAAAAAAAAAAAAAAFQI2AEAAAAAAAAAAAAAqBCwAwAAAAAAAAAAAABQIWAHAAAAAAAAAAAAAKBCwA4AAAAAAAAAAAAAQIWAHQAAAAAAAAAAAACACgE7AAAAAAAAAAAAAAAVAnYAAAAAAAAAAAAAACoE7AAAAAAAAAAAAAAAVAjYAQAAAAAAAAAAAACoELADAAAAAAAAAAAAAFAhYAcAAAAAAAAAAAAAoELADgAAAAAAAAAAAABAhYAdAAAAAAAAAAAAAIAKATsAAAAAAAAAAAAAABUCdgAAAAAAAAAAAAAAKgTsAAAAAAAAAAAAAABUCNgBAAAAAAAAAAAAAKgQsAMAAAAAAAAAAAAAUCFgBwAAAAAAAAAAAACgQsAOAAAAAAAAAAAAAECFgB0AAAAAAAAAAAAAgAoBOwAAAAAAAAAAAAAAFQJ2AAAAAAAAAAAAAAAqBOwAAAAAAAAAAAAAAFQI2AEAAAAAAAAAAAAAqBCwAwAAAAAAAAAAAABQIWAHAAAAAAAAAAAAAKBCwA4AAAAAAAAAAAAAQIWAHQAAAAAAAAAAAACACgE7AAAAAAAAAAAAAAAVAnYAAAAAAAAAAAAAACoE7AAAAAAAAAAAAAAAVAjYAQAAAAAAAAAAAACoELADAAAAAAAAAAAAAFAhYAcAAAAAAAAAAAAAoELADgAAAAAAAAAAAABAhYAdAAAAAAAAAAAAAIAKATsAAAAAAAAAAAAAABUCdgAAAAAAAAAAAAAAKgTsAAAAAAAAAAAAAABUCNgBAAAAAAAAAAAAAKgQsAMAAAAAAAAAAAAAUCFgBwAAAAAAAAAAAACgQsAOAAAAAAAAAAAAAECFgB0AAAAAAAAAAAAAgAoBOwAAAAAAAAAAAAAAFQJ2AAAAAAAAAAAAAAAqBOwAAAAAAAAAAAAAAFQI2AEAAAAAAAAAAAAAqBCwAwAAAAAAAAAAAABQIWAHAAAAAAAAAAAAAKBCwA4AAAAAAAAAAAAAQIWAHQAAAAAAAAAAAACACgE7AAAAAAAAAAAAAAAVAnYAAAAAAAAAAAAAACoE7AAAAAAAAAAAAAAAVAjYAQAAAAAAAAAAAACoELADAAAAAAAAAAAAAFAhYAcAAAAAAAAAAAAAoELADgAAAAAAAAAAAABAhYAdAAAAAAAAAAAAAIAKATsAAAAAAAAAAAAAABUCdgAAAAAAAAAAAAAAKgTsAAAAAAAAAAAAAABUCNgBAAAAAAAAAAAAAKgQsAMAAAAAAAAAAAAAUCFgBwAAAAAAAAAAAACgQsAOAAAAAAAAAAAAAECFgB0AAAAAAAAAAAAAgAoBOwAAAAAAAAAAAAAAFQJ2AAAAAAAAAAAAAAAqBOwAAAAAAAAAAAAAAFQI2AEAAAAAAAAAAAAAqBCwAwAAAAAAAAAAAABQIWAHAAAAAAAAAAAAAKBCwA4AAAAAAAAAAAAAQIWAHQAAAAAAAAAAAACACgE7AAAAAAAAAAAAAAAVAnYAAAAAAAAAAAAAACoE7AAAAAAAAAAAAAAAVAjYAQAAAAAAAAAAAACoELADAAAAAAAAAAAAAFAhYAcAAAAAAAAAAAAAoELADgAAAAAAAAAAAABAhYAdAAAAAAAAAAAAAIAKATsAAAAAAAAAAAAAAE8vyX8DGQJgGDnnMMcAAAAASUVORK5CYII=;" vertex="1" parent="19Tu_cthAzZ1wYiQVMjy-96">
          <mxGeometry y="169" width="198.36" height="70" as="geometry" />
        </mxCell>
        <mxCell id="yDjlZjU0aNHBCC8FsVgM-94" value="" style="shape=image;verticalLabelPosition=bottom;labelBackgroundColor=default;verticalAlign=top;aspect=fixed;imageAspect=0;image=data:image/png,iVBORw0KGgoAAAANSUhEUgAAAoYAAADxCAYAAABWMnYpAAAACXBIWXMAABYlAAAWJQFJUiTwAAAAAXNSR0IArs4c6QAAAARnQU1BAACxjwv8YQUAAA6kSURBVHgB7d3/cVxVmgbg1xT/AwnsNBGM2QS22Qg8mwDMJGBwAEt7A8BDAuBJYHAEQ08CgyeBoTeBWUgA7T2+UiE0ktXd6h/fufd5qk7JSKZwCbX86px73u9ROIaL9GUzrI+G9WPo3Q/DWqSWR5mG5bC+C3PRvo//YVgv83DtNfBzoL6LdwJjkPgiAMCsCYZc+SzjjggAMFOCIdfZNQSAGRMMuW6ZcecQAJghwZCb2q7hIgDA7AiG3PT+sL4JADA7giG3WQ7rSQCAWREMucuLjLuHAMBMCIbcZRG3lAFgVgRD3ka3IQDMiGDIfV4EAJgFwZD7PB7WKgDA5AmGbONpdBsCwOQJhmxDtyEAzIBgyLaW0W0IAJMmGLKLtmuo2xAAJkowZBctFOo2BICJEgzZlW5DAJgowZB9uIgCABMkGLKPRXQbAsDkCIbsS7chAEyMYMi+dBsCwMQIhjzEclifBACYBMGQh/pjdBsCwCQIhjyUbkMAmAjBkEPQbQgAEyAYcijG5QFA5wRDDmWRcecQAOiUYMgh6TYEgI4JhhySbkMA6JhgyKEt40gZALokGHIMrb7GRRQA6My7gcNrofDFsH4f4BTaLv1P4dDWOYyL+H54pW0cLFLPX4f1MnAkF9abtQyn9kPqfR1MxTL1PrdXaxGo79GwvkvN19DX4Q1HyRzTN3GkDADdEAw5pkVcRAGAbgiGHNsXw3ocAKA8wZBTeBEAoDzBkFNYxpEyAJQnGHIq7UjZRRQAKEww5FSMywOA4gRDTulJdBsCQFmCIaem2xAAihIMObVFxucNAYBiBEPOod1Q1m0IAMUIhpyLbkMAKEYw5FyW0W0IAKUIhpxTe9ZwEQCgBMFw+l4P66PUpNsQAAoRDKdvkTEcrlPTMroNAaAEwXD63r9cz1OXbkMAKEAwnIdFxh3DTWpaRLchAJydYDgPv7l8+1XqajeUlwEAzkYwnIcPLt++HNaPqcuuIQCckWA4D1fP77VQWHnXcBndhgBwNoLhPFy/2PHH1N81XAQAODnBcB6uB8Pqu4a6DQHgTATDeXjvxj+3XcNN6loO60kAgJMSDOep7Rp+ntpeRLchAJyUYDgPH9zyvlepOw2lWcQtZQA4KcFwHt674/3Vdw11GwLACQmG89ZmKFe+iNK8CABwEoLhPLztWb1Val9EeZzxzwgAHJlgOA9vC4btIsrvU9vT6DYEgKMTDGnWw/pT6tJtCAAnIBhypV30qDwRZRndhgBwVIIhV1oofJ7a2q6hbkMAOBLBkOvaRJR16mqhULchAByJYDgPix1+b7uIUvlIWbchAByJYMhNm9TvNnQRBQCOQDDkNquM5ddVLaLbEAAOTjDkLtXH5ek2BIADEwy5yzq1j5R1GwLAgQmGvM0qtcflLTNeRgEADkAw5G16GJfX6mt0GwLAAQiG3Gc9rFepS7chAByIYMg2dBsCwAwIhmzDuDwAmAHBkG1VH5e3iIsoAPAggiG7qH6krNsQAB5AMGQXm+g2BIDJEgzZVTtS3qSuZRwpA8BeBEN2pdsQACZKMGQf69Q/Un4RAGAngiH7WqX2kfKn0W0IADsRDNlXO1L+PLXpNgSAHQiGPEQblbdOXYu4iAIAWxMMeajq3YbtIsrjAAD3Egx5qE3qj8tzEQUAtiAYcgjVx+Ut40gZAO4lGHIo1S+i6DYEgHsIhhzK69Q+UjYuDwDuIRhySNXH5T2JbkMAuJNgyCH1MC5PtyEA3EEw5NDWqT0ub5HxeUMA4AbBkGNYpXa3YbuhrNsQAG4QDDmGHsbl6TYEgBsEQ47lZXQbAkBXBEOOqYdxeYsAAG+8GzieTcZuw6rHtlfdhh8H+tZ2vyv/EFZZ62B9FeANwZBja92Gn6TuZY/l5VoH+vU07Kv9cCgYwiVHyZxC9Ysoug0BIIIhp7GObkMAKE8w5FRWqT0urz2jtQwAzJhgyKn0MC7PriEAsyYYckrr1H7IexndhgDMmGDIqek2BICiBENOrYXC56nrqtsQAGZHMOQcWrfhOnUth/UkADAzgiHnUv1IuU1r0W0IwKwIhpzLJroNAaAUwZBzWmWcU1qVbkMAZkUw5Nyqj8t7EQCYCcGQc1un9pHy44w7mwAweYIhFaxSe1ze0+g2BGAGBEMqqD4uT7chALMgGFLFOvXH5ek2BGDSBEMqaRdRKncbtl1D3YYATJZgSCWb1B+Xp9sQgMkSDKmm+rg83YYATJZgSEWVL6I0LqIAMEmCIRVtUvtIeRHdhgBMkGBIVe1IeZO6dBsCMDmCIVXpNgSAExMMqWydceewqmXGyygAMAmCIdW1Zw3/L3W1+hrdhgBMgmBIde1I+Q+pS7chAJMhGNKDNirvu9TVjpM/DgB0TjCkF23XsPKR8tdxpAxA5wRDerEZ1v+krkVcRAGgc4IhPWk3lCsfKbduww8DAJ0SDOnNs9TVjpK/DtCLiwC/8m6gL68z7hxWPbZdZvyzVe5fZHq+z3iDn929DsCRXRRcU9J25v6Rmp/nttolmQ9yHj+k3udjKpap97m9WotAfY8yPg5U8TXktOeSo2R61EO34ZcBgM4IhvRqPayXqevT6DYEoDOCIT37PLoNAeBgBEN61o6UdRsCwIEIhvSuerfhF8P6KADQAcGQKWgXUSpXdbiIAkAXBEOmYDOsr1LXMo6UAeiAYMhUrDKW/FbVjpTP1W0IAFsRDJkS4/IA4AEEQ6Zkndqj6J5EtyEAhQmGTM3zjGPhqtJtCEBZgiFTU31c3iLj84YAUI5gyBSth/Vt6mo3lHUbAlCOYMhUtV3DyuPydBsCUI5gyFRVH5e3jG5DAIoRDJmyHsblfRgAKEIwZOoqj8vTbQhAKYIhU7dJ/XF5ug0BKEEwZA5W0W0IAPcSDJkL3YYAcA/BkLlYp/a4vHZDeRkAOCPBkDmpPi7PriEAZyUYMiftdvKz1LWMbkMAzkgwZG5eRbchANxKMGSOKo/L020IwNkIhszRJvXH5f0uAHBigiFzVX1c3pfRbQjAiQmGzFnliyiLuKUMwIkJhszZ64wVNlW1G8q7jsurOhcagA4IhsxdO1Ku3G345Y6/XzAEYG+CIXPXglTlcXmPM856BoCjEwyh/ri8p9FtCMAJCIYwas8aTqHb0FEyAHsTDGHUw7i8bboNfwoA7EkwhF+8TO1uw7ZrqNsQgKMRDOHXqo/L020IwNEIhvBrm9Qel3dft+EmALAnwRD+VbuhvE5djpQBOArBEG5XeSLKIuPO4W3cSgZgb4Ih3G6d2t2G7VnD27oNBUMA9iYYwt3armHlcXm3dRsKhgDsTTCEu1Ufl7fMvx4pC4YA7E0whLdbD+vb1NWOlK9fRNkEAPYkGML9euo2tGMIwN4EQ7hfC1vVuw2Xl78WDAHYm2AI22k3lCuPy7u+a7gJAOxBMITttSPlqjtyy2F9cvnrTQBgD4IhbG8zrK9S1yrjM4f/GwDYg2AIu1kN6/vUtMj4vOEmALAHwRB29yx1Pc0YEAFgZ4Ih7G6duuPy2lHyJwGAPQiGsJ/q4/IAYGeCIeyn+rg8ANiZYAj7W6f2uDwA2IlgCA/TLqJUHZcHADsRDOFhNqk9Lg8AtiYYwsNVH5cHAFsRDOEwXEQBoHuCIRzGJmOFDQB0SzCEw2lHyroNAejWIYPhoy0XTJVuQwC69m4epgW9NoLrybB+O6zfDOvx5ccWl29/vFyby7d/HdbfM3bANReB6Vhn3Dn8LAAwEx9k/Iuv3cS82HO1I7dvhvVxpreTeFFwcTrth6V/pubXga+9/S1T93O8CNTX/q7/LjVfQ1+HN3Y9Sm6BcDWsfwzrRcZvlPtaDOvTYf3lcrVfO2pmChwpA9ClbYNhC2y/yxgIv8i4I3JIy4y7hy2xfxjo36voNgSgM9sEw7ZL2ALbn3P4QHjTp8P62+Vb6F3bNTQuD4Bu3BcM2+7dqYNaC59t93AVR8v0bRPj8gDoyNuCYQuF7dm/Rc6jHVm3nUrhkJ4ZlwdAN+6qqzl3KLzy6eXbdiQ3pduNzMuzYX0fOJ5WE+b57NNoj4e8DsxI++byQ2pdI3+RvlT63F0tzmuVml8Xvva2t0xfn3frOEutyf7U1XTgtqPk9slZpJbPojCYvhmXB0B5N4PhKg/rJjymL+KohH7pNgSgvOvBcJExfFXVbivb6qVn64w7hwBQ0vVguEp9y9Td0YRtPI9uQwCKugqGi2F9kj5U3tWE+7QjZd2GAJR0FQxX6ccydg3pm25DAEq6Cob/kb70srsJdzEuD4ByWjBcpl49zX2eBPq2iSNlAIppwfBx+tNuKPf454br2pGyiSgAlNGCYW/HyFcEQ6bgWQCgiBYMF+mTYMgUrKPbEIAieg6G7wWmoXUbGpcHwNm1YPh++rQITINxeQCU8E6ACtbD+jYAcEaCIdSh2xCAs2rBcJM+/RSYFuPyADirFgx/TJ82gekxLg+As2nB8O/pk2JgpqodKff6AxsAHWvB8HX61GughftshvVVAODEWjBcpz+b9BtoYRur6DYE4MSudgx7O7ZaB6ZPtyEAJ3VVV9PbsdWfAtO3jnF5AJzQVTBsf/n0smu4jh1D5sO4PABO5ioYtlDYy66hh/KZk/bafBYAOIHrk0/armH1qQsvh/UqMC/ta163IQBHdz0YVp+60I7Tngfmybg8AI7u5qzktmv4MjW147RNYJ42MS4PgCN755b3fZ56U0XaTqEjZObOuDwAjuq2YNiOlP8rdW5CtlC4CtC4iALA0bxzx/s3w/rPnDccXkQohJtaIb1nbQE4infe8rHNsP59WN/m9NpD9m1nZBXgpnakrNsQgIN7956PXx0rr4b138N6lOP74fK/2fMs5IvA8bTXZbul/Jdwal7b8DAX8TqajMWw/jysn/PL/9hDrn9mDKDvBwCALiwz7lT8nIeHxPbvC4QAAJ1bDOvpsP6WX0Li24Li9d/TwuDXw3oSgRAAoIRDPTPYwt3jYf12WB8M699ufPynjJdZ2tt1FFUDAJTz/0oBhswBGyUVAAAAAElFTkSuQmCC;" vertex="1" parent="19Tu_cthAzZ1wYiQVMjy-96">
          <mxGeometry x="378.35" y="38.27" width="120.72" height="45.04" as="geometry" />
        </mxCell>
        <mxCell id="yDjlZjU0aNHBCC8FsVgM-96" value="" style="shape=image;verticalLabelPosition=bottom;labelBackgroundColor=default;verticalAlign=top;aspect=fixed;imageAspect=0;image=data:image/svg+xml,PHN2ZyB4bWxucz0iaHR0cDovL3d3dy53My5vcmcvMjAwMC9zdmciIGZpbGw9Im5vbmUiIGhlaWdodD0iNDIiIHdpZHRoPSIxMzgiIHZpZXdCb3g9IjAgMCAxMzggNDIiPiYjeGE7ICAgIDxnIHN0cm9rZS1saW5lam9pbj0icm91bmQiIHN0cm9rZS1saW5lY2FwPSJyb3VuZCIgY2xpcC1wYXRoPSJ1cmwoI2EpIj4mI3hhOyAgICAgICAgPHBhdGggc3Ryb2tlLXdpZHRoPSIxLjAzOSIgc3Ryb2tlPSJ1cmwoI2MpIiBmaWxsPSJ1cmwoI2IpIiBkPSJNMzkuODQzIDM0LjgxaC0yOS40Yy0uNDIgMC0uNjgzLS40NzQtLjQ3My0uODU1bDcuMzUtMTMuMjQgNy4zNTEtMTMuMjM4YS41MzcuNTM3IDAgMCAxIC45NDcgMGw0LjcyOCA4LjUxN2E2LjUyMSA2LjUyMSAwIDAgMCAxLjU3IDEyLjg0OGMxLjc2NSAwIDMuMzY5LS43IDQuNTQyLTEuODQzbDMuODYxIDYuOTU2Yy4yMS4zNzgtLjA1My44NTQtLjQ3My44NTRoLS4wMDNaIi8+JiN4YTsgICAgICAgIDxwYXRoIHN0cm9rZS13aWR0aD0iMiIgc3Ryb2tlPSJ1cmwoI2QpIiBkPSJNMzcuODU1IDI1LjAxN2E2LjUxOSA2LjUxOSAwIDAgMS01LjkzOCAzLjgyNSA2LjUxOCA2LjUxOCAwIDAgMS02LjUyLTYuNTIgNi41MTggNi41MTggMCAwIDEgOS4zNDMtNS44NzgiLz4mI3hhOyAgICA8L2c+JiN4YTsgICAgPHBhdGggZmlsbD0iIzI0MjczNiIgZD0iTTUyLjg2OCAyNy42MTRjMy4yMjMgMCA0Ljg5MS0xLjg5NyA1LjE4OC00LjM0M2gtMi43NDJjLS4yMDYgMS4xMi0uODQ2IDIuMDM1LTIuMzMyIDIuMDM1LTEuNjkxIDAtMi43Mi0xLjI1Ny0yLjcyLTMuNDA2czEuMDk3LTMuNDA2IDIuNzQzLTMuNDA2YzEuNDE3IDAgMi4xMDMuOTM3IDIuMzA4IDIuMTAzaDIuNzQzYy0uMjc0LTIuNTE0LTEuOTItNC40MTEtNS4xMi00LjQxMS0zLjIyMiAwLTUuNTA4IDIuMzc3LTUuNTA4IDUuNzYgMCAzLjMxNCAyLjA1NyA1LjY2OCA1LjQ0IDUuNjY4Wk02NS45IDE2LjE4NmMtMS40NCAwLTIuMzU0LjgtMi45MDIgMS45MmwtLjA0Ni0xLjgwNmgtMi42NzR2MTEuMmgyLjc4OHYtNS45ODljLjE4My0xLjY5MSAxLjM0OS0yLjYyOCAyLjcyLTIuNjI4LjQzNCAwIC42MTcuMDQ2Ljc3Ny4xMTRsLjAyMy0yLjc0M2E0LjI1OCA0LjI1OCAwIDAgMC0uNjg2LS4wNjhabTEyLjk1MiA4Ljk2YTEuNDgzIDEuNDgzIDAgMCAxLS41NzIuMTE0Yy0uMzQzIDAtLjU3MS0uMjUxLS41NzEtLjY4NnYtMy45MzFjMC0yLjc4OS0xLjcxNS00LjQ1Ny00Ljg5Mi00LjQ1Ny0yLjg1NyAwLTQuOCAxLjM5NC00Ljk4MyAzLjkwOGgyLjU2Yy4xMTUtMS4wOTcuOTM4LTEuNzM3IDIuMjYzLTEuNzM3IDEuNTU1IDAgMi4zMzIuODIzIDIuMzMyIDIuMTI2di41NzFoLTEuNzM3Yy0zLjA2MyAwLTUuNjkyLjg2OS01LjY5MiAzLjUyIDAgMS44MDYgMS4zMDMgMy4wNCAzLjc5NCAzLjA0IDIuNCAwIDMuMzgzLTEuMTQzIDMuNzQ5LTEuODI4LjMyIDEuMjExIDEuMjExIDEuODI4IDIuNDIzIDEuODI4LjU3MSAwIDEuMDc0LS4wOTEgMS41MDgtLjIwNWwtLjE4Mi0yLjI2M1ptLTYuNzY2LjM4OGMtMS4yMzQgMC0xLjgwNi0uNDU3LTEuODA2LTEuMjU3IDAtMS4wNTEgMS4wMDYtMS42IDIuODM0LTEuNmgxLjg3NXYuNzMyYzAgLjk2LTEuMDc1IDIuMTI1LTIuOTAzIDIuMTI1Wk05My41MjUgMTYuM2wtMS42OTIgNy4xNTRjLS4xNi41OTUtLjI1MSAxLjAwNi0uMjk3IDEuMzQ5aC0uMDY5Yy0uMDY4LS4zNDMtLjE4Mi0uOC0uMzItMS4zNDlMODkuMjk2IDE2LjNoLTIuNTgzbC0xLjgyOCA3LjE1NGMtLjEzOC41NDktLjI3NSAxLjAwNi0uMzIgMS4zNDloLS4wNjljLS4wNDYtLjM0My0uMTgzLS44LS4yOTctMS4zNDlMODIuNDg1IDE2LjNoLTIuOTQ5bDMuMjY5IDExLjJoMy4ybDEuNzgyLTYuNTE0Yy4wNjktLjI5Ny4xNi0uODQ2LjE4My0xLjA3NWguMDY5Yy4wMjMuMjI5LjEzNy43NzguMjA2IDEuMDc1bDEuNzgyIDYuNTE0aDMuMmwzLjI0Ni0xMS4yaC0yLjk0OFptOC41ODQgOC44NDZjLS4yNTIuMDkxLS4zNjYuMTE0LS41NDkuMTE0LS4zNDMgMC0uNTk0LS4yNTEtLjU5NC0uNjg2VjExLjI3MUg5OC4ydjEzLjUzMmMwIDEuNzgzLjg5MiAyLjgxMSAyLjU2IDIuODExLjYxNyAwIDEuMDk3LS4wOTEgMS41MzItLjIwNWwtLjE4My0yLjI2M1ptMTIuMzM1LTMuMTc3YzAtMy40OTgtMS45Mi01Ljc4My01LjIzNS01Ljc4My0zLjIgMC01LjUzMSAyLjM1NC01LjUzMSA1LjczNyAwIDMuMzE0IDIuMDggNS42OTEgNS41MDggNS42OTEgMy4yNjkgMCA0LjgyMy0xLjgwNSA1LjIxMi0zLjc3MWgtMi42MjljLS4xODMuNjg2LS44IDEuNTU0LTIuNDY4IDEuNTU0LTEuNiAwLTIuNjc1LTEuMDI4LTIuODgtMi44NTdoOC4wMjN2LS41NzFabS01LjIxMi0zLjYzNWMxLjM5NCAwIDIuMzMyLjc3NyAyLjU2IDIuNDkyaC01LjMyNmMuMjk4LTEuNjQ2IDEuMzcyLTIuNDkyIDIuNzY2LTIuNDkyWm0xNy42ODkgMy42MzVjMC0zLjQ5OC0xLjkyLTUuNzgzLTUuMjM0LTUuNzgzLTMuMiAwLTUuNTMxIDIuMzU0LTUuNTMxIDUuNzM3IDAgMy4zMTQgMi4wOCA1LjY5MSA1LjUwOCA1LjY5MSAzLjI2OSAwIDQuODIzLTEuODA1IDUuMjEyLTMuNzcxaC0yLjYyOWMtLjE4My42ODYtLjggMS41NTQtMi40NjkgMS41NTQtMS42IDAtMi42NzQtMS4wMjgtMi44OC0yLjg1N2g4LjAyM3YtLjU3MVptLTUuMjExLTMuNjM1YzEuMzk0IDAgMi4zMzEuNzc3IDIuNTYgMi40OTJoLTUuMzI2Yy4yOTctMS42NDYgMS4zNzItMi40OTIgMi43NjYtMi40OTJaIi8+JiN4YTsgICAgPGRlZnM+JiN4YTsgICAgICAgIDxsaW5lYXJHcmFkaWVudCBncmFkaWVudFVuaXRzPSJ1c2VyU3BhY2VPblVzZSIgeTI9IjM3LjU0MSIgeDI9IjEyLjkxMiIgeTE9IjcuMTkzIiB4MT0iNDAuMzkzIiBpZD0iYiI+JiN4YTsgICAgICAgICAgICA8c3RvcCBzdG9wLWNvbG9yPSIjRkZCMjAwIiBvZmZzZXQ9Ii4wMDEiLz4mI3hhOyAgICAgICAgICAgIDxzdG9wIHN0b3AtY29sb3I9IiNGRkIxMDAiIG9mZnNldD0iLjA4MSIvPiYjeGE7ICAgICAgICAgICAgPHN0b3Agc3RvcC1jb2xvcj0iI0ZGQUYwMiIgb2Zmc2V0PSIuMTU2Ii8+JiN4YTsgICAgICAgICAgICA8c3RvcCBzdG9wLWNvbG9yPSIjRkVBQjA0IiBvZmZzZXQ9Ii4yMjUiLz4mI3hhOyAgICAgICAgICAgIDxzdG9wIHN0b3AtY29sb3I9IiNGREE2MDYiIG9mZnNldD0iLjI5MSIvPiYjeGE7ICAgICAgICAgICAgPHN0b3Agc3RvcC1jb2xvcj0iI0ZDQTAwQSIgb2Zmc2V0PSIuMzUzIi8+JiN4YTsgICAgICAgICAgICA8c3RvcCBzdG9wLWNvbG9yPSIjRkI5ODBFIiBvZmZzZXQ9Ii40MTMiLz4mI3hhOyAgICAgICAgICAgIDxzdG9wIHN0b3AtY29sb3I9IiNGQTkwMTMiIG9mZnNldD0iLjQ3MSIvPiYjeGE7ICAgICAgICAgICAgPHN0b3Agc3RvcC1jb2xvcj0iI0Y5ODYxOCIgb2Zmc2V0PSIuNTI5Ii8+JiN4YTsgICAgICAgICAgICA8c3RvcCBzdG9wLWNvbG9yPSIjRjc3QjFFIiBvZmZzZXQ9Ii41ODciLz4mI3hhOyAgICAgICAgICAgIDxzdG9wIHN0b3AtY29sb3I9IiNGNTZGMjQiIG9mZnNldD0iLjY0NyIvPiYjeGE7ICAgICAgICAgICAgPHN0b3Agc3RvcC1jb2xvcj0iI0YzNjMyQiIgb2Zmc2V0PSIuNzA5Ii8+JiN4YTsgICAgICAgICAgICA8c3RvcCBzdG9wLWNvbG9yPSIjRjI1NTMyIiBvZmZzZXQ9Ii43NzQiLz4mI3hhOyAgICAgICAgICAgIDxzdG9wIHN0b3AtY29sb3I9IiNFRjQ3M0EiIG9mZnNldD0iLjg0NCIvPiYjeGE7ICAgICAgICAgICAgPHN0b3Agc3RvcC1jb2xvcj0iI0VEMzg0MiIgb2Zmc2V0PSIuOTE4Ii8+JiN4YTsgICAgICAgICAgICA8c3RvcCBzdG9wLWNvbG9yPSIjRUIyODRCIiBvZmZzZXQ9Ii45OTkiLz4mI3hhOyAgICAgICAgPC9saW5lYXJHcmFkaWVudD4mI3hhOyAgICAgICAgPGxpbmVhckdyYWRpZW50IGdyYWRpZW50VW5pdHM9InVzZXJTcGFjZU9uVXNlIiB5Mj0iMzcuNTQxIiB4Mj0iMTIuOTEyIiB5MT0iNy4xOTMiIHgxPSI0MC4zOTMiIGlkPSJjIj4mI3hhOyAgICAgICAgICAgIDxzdG9wIHN0b3AtY29sb3I9IiNGRkIyMDAiIG9mZnNldD0iLjAwMSIvPiYjeGE7ICAgICAgICAgICAgPHN0b3Agc3RvcC1jb2xvcj0iI0ZGQjEwMCIgb2Zmc2V0PSIuMDgxIi8+JiN4YTsgICAgICAgICAgICA8c3RvcCBzdG9wLWNvbG9yPSIjRkZBRjAyIiBvZmZzZXQ9Ii4xNTYiLz4mI3hhOyAgICAgICAgICAgIDxzdG9wIHN0b3AtY29sb3I9IiNGRUFCMDQiIG9mZnNldD0iLjIyNSIvPiYjeGE7ICAgICAgICAgICAgPHN0b3Agc3RvcC1jb2xvcj0iI0ZEQTYwNiIgb2Zmc2V0PSIuMjkxIi8+JiN4YTsgICAgICAgICAgICA8c3RvcCBzdG9wLWNvbG9yPSIjRkNBMDBBIiBvZmZzZXQ9Ii4zNTMiLz4mI3hhOyAgICAgICAgICAgIDxzdG9wIHN0b3AtY29sb3I9IiNGQjk4MEUiIG9mZnNldD0iLjQxMyIvPiYjeGE7ICAgICAgICAgICAgPHN0b3Agc3RvcC1jb2xvcj0iI0ZBOTAxMyIgb2Zmc2V0PSIuNDcxIi8+JiN4YTsgICAgICAgICAgICA8c3RvcCBzdG9wLWNvbG9yPSIjRjk4NjE4IiBvZmZzZXQ9Ii41MjkiLz4mI3hhOyAgICAgICAgICAgIDxzdG9wIHN0b3AtY29sb3I9IiNGNzdCMUUiIG9mZnNldD0iLjU4NyIvPiYjeGE7ICAgICAgICAgICAgPHN0b3Agc3RvcC1jb2xvcj0iI0Y1NkYyNCIgb2Zmc2V0PSIuNjQ3Ii8+JiN4YTsgICAgICAgICAgICA8c3RvcCBzdG9wLWNvbG9yPSIjRjM2MzJCIiBvZmZzZXQ9Ii43MDkiLz4mI3hhOyAgICAgICAgICAgIDxzdG9wIHN0b3AtY29sb3I9IiNGMjU1MzIiIG9mZnNldD0iLjc3NCIvPiYjeGE7ICAgICAgICAgICAgPHN0b3Agc3RvcC1jb2xvcj0iI0VGNDczQSIgb2Zmc2V0PSIuODQ0Ii8+JiN4YTsgICAgICAgICAgICA8c3RvcCBzdG9wLWNvbG9yPSIjRUQzODQyIiBvZmZzZXQ9Ii45MTgiLz4mI3hhOyAgICAgICAgICAgIDxzdG9wIHN0b3AtY29sb3I9IiNFQjI4NEIiIG9mZnNldD0iLjk5OSIvPiYjeGE7ICAgICAgICA8L2xpbmVhckdyYWRpZW50PiYjeGE7ICAgICAgICA8bGluZWFyR3JhZGllbnQgZ3JhZGllbnRVbml0cz0idXNlclNwYWNlT25Vc2UiIHkyPSIyOC4yNDciIHgyPSIyNC44MjkiIHkxPSIxNS44MDMiIHgxPSIzNy44NTUiIGlkPSJkIj4mI3hhOyAgICAgICAgICAgIDxzdG9wIHN0b3AtY29sb3I9IiNGRkIyMDAiIG9mZnNldD0iLjAwMSIvPiYjeGE7ICAgICAgICAgICAgPHN0b3Agc3RvcC1jb2xvcj0iI0ZGQjEwMCIgb2Zmc2V0PSIuMDgxIi8+JiN4YTsgICAgICAgICAgICA8c3RvcCBzdG9wLWNvbG9yPSIjRkZBRjAyIiBvZmZzZXQ9Ii4xNTYiLz4mI3hhOyAgICAgICAgICAgIDxzdG9wIHN0b3AtY29sb3I9IiNGRUFCMDQiIG9mZnNldD0iLjIyNSIvPiYjeGE7ICAgICAgICAgICAgPHN0b3Agc3RvcC1jb2xvcj0iI0ZEQTYwNiIgb2Zmc2V0PSIuMjkxIi8+JiN4YTsgICAgICAgICAgICA8c3RvcCBzdG9wLWNvbG9yPSIjRkNBMDBBIiBvZmZzZXQ9Ii4zNTMiLz4mI3hhOyAgICAgICAgICAgIDxzdG9wIHN0b3AtY29sb3I9IiNGQjk4MEUiIG9mZnNldD0iLjQxMyIvPiYjeGE7ICAgICAgICAgICAgPHN0b3Agc3RvcC1jb2xvcj0iI0ZBOTAxMyIgb2Zmc2V0PSIuNDcxIi8+JiN4YTsgICAgICAgICAgICA8c3RvcCBzdG9wLWNvbG9yPSIjRjk4NjE4IiBvZmZzZXQ9Ii41MjkiLz4mI3hhOyAgICAgICAgICAgIDxzdG9wIHN0b3AtY29sb3I9IiNGNzdCMUUiIG9mZnNldD0iLjU4NyIvPiYjeGE7ICAgICAgICAgICAgPHN0b3Agc3RvcC1jb2xvcj0iI0Y1NkYyNCIgb2Zmc2V0PSIuNjQ3Ii8+JiN4YTsgICAgICAgICAgICA8c3RvcCBzdG9wLWNvbG9yPSIjRjM2MzJCIiBvZmZzZXQ9Ii43MDkiLz4mI3hhOyAgICAgICAgICAgIDxzdG9wIHN0b3AtY29sb3I9IiNGMjU1MzIiIG9mZnNldD0iLjc3NCIvPiYjeGE7ICAgICAgICAgICAgPHN0b3Agc3RvcC1jb2xvcj0iI0VGNDczQSIgb2Zmc2V0PSIuODQ0Ii8+JiN4YTsgICAgICAgICAgICA8c3RvcCBzdG9wLWNvbG9yPSIjRUQzODQyIiBvZmZzZXQ9Ii45MTgiLz4mI3hhOyAgICAgICAgICAgIDxzdG9wIHN0b3AtY29sb3I9IiNFQjI4NEIiIG9mZnNldD0iLjk5OSIvPiYjeGE7ICAgICAgICA8L2xpbmVhckdyYWRpZW50PiYjeGE7ICAgICAgICA8Y2xpcFBhdGggaWQ9ImEiPiYjeGE7ICAgICAgICAgICAgPHBhdGggZD0iTTkuNDE4IDYuNzE0aDMxLjQ1djI4LjU3MUg5LjQxOHoiIGZpbGw9IiNmZmYiLz4mI3hhOyAgICAgICAgPC9jbGlwUGF0aD4mI3hhOyAgICA8L2RlZnM+JiN4YTs8L3N2Zz4=;" vertex="1" parent="19Tu_cthAzZ1wYiQVMjy-96">
          <mxGeometry x="193.59" y="38.269999999999996" width="122.82" height="37.38" as="geometry" />
        </mxCell>
      </root>
    </mxGraphModel>
  </diagram>
</mxfile>
